M48
; DRILL file {KiCad 8.0.2} date 2024-08-08T08:25:30+0300
; FORMAT={-:-/ absolute / metric / decimal}
; #@! TF.CreationDate,2024-08-08T08:25:30+03:00
; #@! TF.GenerationSoftware,Kicad,Pcbnew,8.0.2
; #@! TF.FileFunction,Plated,1,2,PTH
FMAT,2
METRIC
; #@! TA.AperFunction,Plated,PTH,ViaDrill
T1C0.300
; #@! TA.AperFunction,Plated,PTH,ComponentDrill
T2C0.300
; #@! TA.AperFunction,Plated,PTH,ViaDrill
T3C0.500
; #@! TA.AperFunction,Plated,PTH,ComponentDrill
T4C1.000
; #@! TA.AperFunction,Plated,PTH,ComponentDrill
T5C1.750
; #@! TA.AperFunction,Plated,PTH,ComponentDrill
T6C3.000
%
G90
G05
T1
X124.101Y-103.705
X130.451Y-85.188
X131.238Y-89.252
X133.169Y-89.227
X137.969Y-100.657
X140.56Y-80.108
X143.888Y-88.24
X145.412Y-99.336
X145.742Y-77.035
X146.453Y-96.288
X146.859Y-91.005
X148.129Y-87.881
X148.739Y-92.351
X149.222Y-93.011
X149.603Y-100.86
X150.009Y-96.72
X151.355Y-80.134
X152.892Y-91.12
X153.137Y-102.743
X153.235Y-107.108
X155.47Y-98.091
X157.07Y-96.339
X158.379Y-91.144
X165.659Y-103.353
X168.283Y-93.921
X168.935Y-100.051
X169.189Y-106.299
X169.693Y-98.468
X169.756Y-85.158
X171.052Y-81.501
X172.271Y-78.529
X172.766Y-94.429
X172.847Y-106.35
X173.65Y-84.65
X174.062Y-94.429
X174.3Y-85.463
X176.2Y-93.701
X178.359Y-83.388
T2
X70.536Y-89.281
X70.536Y-90.381
X70.536Y-91.681
X70.536Y-92.881
X71.736Y-89.281
X71.736Y-90.381
X71.736Y-91.681
X71.736Y-92.881
T3
X55.143Y-85.09
X56.769Y-85.09
X62.636Y-88.773
X69.113Y-84.938
X73.863Y-80.747
X74.905Y-99.746
X74.905Y-101.371
X92.38Y-90.856
X94.59Y-80.747
X94.59Y-82.372
X98.361Y-89.205
X109.029Y-96.012
X117.221Y-82.88
T4
X152.915Y-85.747
X155.455Y-85.747
X157.995Y-85.747
X160.535Y-85.747
T5
X185.166Y-84.224
X185.166Y-92.024
X185.166Y-99.824
T6
X47.854Y-84.404
X47.854Y-96.596
X101.803Y-78.435
X112.827Y-78.461
X136.547Y-78.025
X155.216Y-78.0
M30
