%TF.GenerationSoftware,KiCad,Pcbnew,8.0.2*%
%TF.CreationDate,2024-08-08T08:25:17+03:00*%
%TF.ProjectId,______________ SMD,21323542-3e43-43a3-9037-3042353b4c20,rev?*%
%TF.SameCoordinates,Original*%
%TF.FileFunction,Copper,L1,Top*%
%TF.FilePolarity,Positive*%
%FSLAX45Y45*%
G04 Gerber Fmt 4.5, Leading zero omitted, Abs format (unit mm)*
G04 Created by KiCad (PCBNEW 8.0.2) date 2024-08-08 08:25:17*
%MOMM*%
%LPD*%
G01*
G04 APERTURE LIST*
G04 Aperture macros list*
%AMRoundRect*
0 Rectangle with rounded corners*
0 $1 Rounding radius*
0 $2 $3 $4 $5 $6 $7 $8 $9 X,Y pos of 4 corners*
0 Add a 4 corners polygon primitive as box body*
4,1,4,$2,$3,$4,$5,$6,$7,$8,$9,$2,$3,0*
0 Add four circle primitives for the rounded corners*
1,1,$1+$1,$2,$3*
1,1,$1+$1,$4,$5*
1,1,$1+$1,$6,$7*
1,1,$1+$1,$8,$9*
0 Add four rect primitives between the rounded corners*
20,1,$1+$1,$2,$3,$4,$5,0*
20,1,$1+$1,$4,$5,$6,$7,0*
20,1,$1+$1,$6,$7,$8,$9,0*
20,1,$1+$1,$8,$9,$2,$3,0*%
G04 Aperture macros list end*
%TA.AperFunction,SMDPad,CuDef*%
%ADD10RoundRect,0.075000X-0.662500X-0.075000X0.662500X-0.075000X0.662500X0.075000X-0.662500X0.075000X0*%
%TD*%
%TA.AperFunction,SMDPad,CuDef*%
%ADD11RoundRect,0.075000X-0.075000X-0.662500X0.075000X-0.662500X0.075000X0.662500X-0.075000X0.662500X0*%
%TD*%
%TA.AperFunction,SMDPad,CuDef*%
%ADD12RoundRect,0.200000X0.275000X-0.200000X0.275000X0.200000X-0.275000X0.200000X-0.275000X-0.200000X0*%
%TD*%
%TA.AperFunction,SMDPad,CuDef*%
%ADD13RoundRect,0.218750X-0.256250X0.218750X-0.256250X-0.218750X0.256250X-0.218750X0.256250X0.218750X0*%
%TD*%
%TA.AperFunction,SMDPad,CuDef*%
%ADD14RoundRect,0.200000X0.200000X0.275000X-0.200000X0.275000X-0.200000X-0.275000X0.200000X-0.275000X0*%
%TD*%
%TA.AperFunction,SMDPad,CuDef*%
%ADD15RoundRect,0.225000X0.250000X-0.225000X0.250000X0.225000X-0.250000X0.225000X-0.250000X-0.225000X0*%
%TD*%
%TA.AperFunction,SMDPad,CuDef*%
%ADD16RoundRect,0.218750X0.218750X0.256250X-0.218750X0.256250X-0.218750X-0.256250X0.218750X-0.256250X0*%
%TD*%
%TA.AperFunction,SMDPad,CuDef*%
%ADD17RoundRect,0.150000X0.150000X-0.587500X0.150000X0.587500X-0.150000X0.587500X-0.150000X-0.587500X0*%
%TD*%
%TA.AperFunction,SMDPad,CuDef*%
%ADD18RoundRect,0.200000X-0.200000X-0.275000X0.200000X-0.275000X0.200000X0.275000X-0.200000X0.275000X0*%
%TD*%
%TA.AperFunction,SMDPad,CuDef*%
%ADD19RoundRect,0.200000X-0.275000X0.200000X-0.275000X-0.200000X0.275000X-0.200000X0.275000X0.200000X0*%
%TD*%
%TA.AperFunction,SMDPad,CuDef*%
%ADD20RoundRect,0.225000X-0.250000X0.225000X-0.250000X-0.225000X0.250000X-0.225000X0.250000X0.225000X0*%
%TD*%
%TA.AperFunction,SMDPad,CuDef*%
%ADD21RoundRect,0.100000X0.100000X-0.637500X0.100000X0.637500X-0.100000X0.637500X-0.100000X-0.637500X0*%
%TD*%
%TA.AperFunction,SMDPad,CuDef*%
%ADD22RoundRect,0.225000X-0.225000X-0.250000X0.225000X-0.250000X0.225000X0.250000X-0.225000X0.250000X0*%
%TD*%
%TA.AperFunction,SMDPad,CuDef*%
%ADD23R,1.550000X0.600000*%
%TD*%
%TA.AperFunction,ComponentPad*%
%ADD24C,0.600000*%
%TD*%
%TA.AperFunction,SMDPad,CuDef*%
%ADD25R,2.600000X3.100000*%
%TD*%
%TA.AperFunction,SMDPad,CuDef*%
%ADD26R,2.950000X4.500000*%
%TD*%
%TA.AperFunction,SMDPad,CuDef*%
%ADD27RoundRect,0.250000X-1.950000X-1.000000X1.950000X-1.000000X1.950000X1.000000X-1.950000X1.000000X0*%
%TD*%
%TA.AperFunction,SMDPad,CuDef*%
%ADD28RoundRect,0.250000X-0.900000X1.000000X-0.900000X-1.000000X0.900000X-1.000000X0.900000X1.000000X0*%
%TD*%
%TA.AperFunction,SMDPad,CuDef*%
%ADD29RoundRect,0.375000X-0.375000X0.625000X-0.375000X-0.625000X0.375000X-0.625000X0.375000X0.625000X0*%
%TD*%
%TA.AperFunction,SMDPad,CuDef*%
%ADD30RoundRect,0.500000X-1.400000X0.500000X-1.400000X-0.500000X1.400000X-0.500000X1.400000X0.500000X0*%
%TD*%
%TA.AperFunction,ComponentPad*%
%ADD31R,1.700000X1.700000*%
%TD*%
%TA.AperFunction,ComponentPad*%
%ADD32O,1.700000X1.700000*%
%TD*%
%TA.AperFunction,SMDPad,CuDef*%
%ADD33R,1.500000X1.500000*%
%TD*%
%TA.AperFunction,ComponentPad*%
%ADD34RoundRect,0.249999X-1.950001X-1.950001X1.950001X-1.950001X1.950001X1.950001X-1.950001X1.950001X0*%
%TD*%
%TA.AperFunction,SMDPad,CuDef*%
%ADD35RoundRect,0.225000X0.225000X0.250000X-0.225000X0.250000X-0.225000X-0.250000X0.225000X-0.250000X0*%
%TD*%
%TA.AperFunction,SMDPad,CuDef*%
%ADD36RoundRect,0.250000X1.000000X-1.400000X1.000000X1.400000X-1.000000X1.400000X-1.000000X-1.400000X0*%
%TD*%
%TA.AperFunction,ComponentPad*%
%ADD37RoundRect,0.250002X-1.699998X1.699998X-1.699998X-1.699998X1.699998X-1.699998X1.699998X1.699998X0*%
%TD*%
%TA.AperFunction,ComponentPad*%
%ADD38C,3.900000*%
%TD*%
%TA.AperFunction,SMDPad,CuDef*%
%ADD39RoundRect,0.250000X1.000000X-1.950000X1.000000X1.950000X-1.000000X1.950000X-1.000000X-1.950000X0*%
%TD*%
%TA.AperFunction,SMDPad,CuDef*%
%ADD40RoundRect,0.218750X-0.218750X-0.256250X0.218750X-0.256250X0.218750X0.256250X-0.218750X0.256250X0*%
%TD*%
%TA.AperFunction,ComponentPad*%
%ADD41RoundRect,0.249999X1.950001X1.950001X-1.950001X1.950001X-1.950001X-1.950001X1.950001X-1.950001X0*%
%TD*%
%TA.AperFunction,SMDPad,CuDef*%
%ADD42R,2.900000X5.400000*%
%TD*%
%TA.AperFunction,SMDPad,CuDef*%
%ADD43RoundRect,0.150000X0.150000X-0.825000X0.150000X0.825000X-0.150000X0.825000X-0.150000X-0.825000X0*%
%TD*%
%TA.AperFunction,SMDPad,CuDef*%
%ADD44R,4.500000X2.000000*%
%TD*%
%TA.AperFunction,ViaPad*%
%ADD45C,0.600000*%
%TD*%
%TA.AperFunction,ViaPad*%
%ADD46C,1.000000*%
%TD*%
%TA.AperFunction,Conductor*%
%ADD47C,0.200000*%
%TD*%
%TA.AperFunction,Conductor*%
%ADD48C,0.500000*%
%TD*%
%TA.AperFunction,Conductor*%
%ADD49C,0.400000*%
%TD*%
%TA.AperFunction,Conductor*%
%ADD50C,2.000000*%
%TD*%
%TA.AperFunction,Conductor*%
%ADD51C,1.000000*%
%TD*%
G04 APERTURE END LIST*
D10*
%TO.P,U3,1,VBAT*%
%TO.N,unconnected-(U3-VBAT-Pad1)*%
X14368750Y-9582400D03*
%TO.P,U3,2,PC13*%
%TO.N,Net-(U3-PC13)*%
X14368750Y-9632400D03*
%TO.P,U3,3,PC14*%
%TO.N,unconnected-(U3-PC14-Pad3)*%
X14368750Y-9682400D03*
%TO.P,U3,4,PC15*%
%TO.N,unconnected-(U3-PC15-Pad4)*%
X14368750Y-9732400D03*
%TO.P,U3,5,PD0*%
%TO.N,Net-(U3-PD0)*%
X14368750Y-9782400D03*
%TO.P,U3,6,PD1*%
%TO.N,Net-(U3-PD1)*%
X14368750Y-9832400D03*
%TO.P,U3,7,NRST*%
%TO.N,NRST*%
X14368750Y-9882400D03*
%TO.P,U3,8,VSSA*%
%TO.N,GND*%
X14368750Y-9932400D03*
%TO.P,U3,9,VDDA*%
%TO.N,Net-(U3-VDDA)*%
X14368750Y-9982400D03*
%TO.P,U3,10,PA0*%
%TO.N,unconnected-(U3-PA0-Pad10)*%
X14368750Y-10032400D03*
%TO.P,U3,11,PA1*%
%TO.N,unconnected-(U3-PA1-Pad11)*%
X14368750Y-10082400D03*
%TO.P,U3,12,PA2*%
%TO.N,unconnected-(U3-PA2-Pad12)*%
X14368750Y-10132400D03*
D11*
%TO.P,U3,13,PA3*%
%TO.N,unconnected-(U3-PA3-Pad13)*%
X14510000Y-10273650D03*
%TO.P,U3,14,PA4*%
%TO.N,unconnected-(U3-PA4-Pad14)*%
X14560000Y-10273650D03*
%TO.P,U3,15,PA5*%
%TO.N,unconnected-(U3-PA5-Pad15)*%
X14610000Y-10273650D03*
%TO.P,U3,16,PA6*%
%TO.N,unconnected-(U3-PA6-Pad16)*%
X14660000Y-10273650D03*
%TO.P,U3,17,PA7*%
%TO.N,unconnected-(U3-PA7-Pad17)*%
X14710000Y-10273650D03*
%TO.P,U3,18,PB0*%
%TO.N,unconnected-(U3-PB0-Pad18)*%
X14760000Y-10273650D03*
%TO.P,U3,19,PB1*%
%TO.N,unconnected-(U3-PB1-Pad19)*%
X14810000Y-10273650D03*
%TO.P,U3,20,PB2*%
%TO.N,Net-(U3-PB2)*%
X14860000Y-10273650D03*
%TO.P,U3,21,PB10*%
%TO.N,unconnected-(U3-PB10-Pad21)*%
X14910000Y-10273650D03*
%TO.P,U3,22,PB11*%
%TO.N,unconnected-(U3-PB11-Pad22)*%
X14960000Y-10273650D03*
%TO.P,U3,23,VSS*%
%TO.N,GND*%
X15010000Y-10273650D03*
%TO.P,U3,24,VDD*%
%TO.N,+3.3\u0412*%
X15060000Y-10273650D03*
D10*
%TO.P,U3,25,PB12*%
%TO.N,unconnected-(U3-PB12-Pad25)*%
X15201250Y-10132400D03*
%TO.P,U3,26,PB13*%
%TO.N,unconnected-(U3-PB13-Pad26)*%
X15201250Y-10082400D03*
%TO.P,U3,27,PB14*%
%TO.N,unconnected-(U3-PB14-Pad27)*%
X15201250Y-10032400D03*
%TO.P,U3,28,PB15*%
%TO.N,unconnected-(U3-PB15-Pad28)*%
X15201250Y-9982400D03*
%TO.P,U3,29,PA8*%
%TO.N,unconnected-(U3-PA8-Pad29)*%
X15201250Y-9932400D03*
%TO.P,U3,30,PA9*%
%TO.N,RX232_RxD*%
X15201250Y-9882400D03*
%TO.P,U3,31,PA10*%
%TO.N,RX232_TxD*%
X15201250Y-9832400D03*
%TO.P,U3,32,PA11*%
%TO.N,unconnected-(U3-PA11-Pad32)*%
X15201250Y-9782400D03*
%TO.P,U3,33,PA12*%
%TO.N,unconnected-(U3-PA12-Pad33)*%
X15201250Y-9732400D03*
%TO.P,U3,34,PA13*%
%TO.N,/SWDIO*%
X15201250Y-9682400D03*
%TO.P,U3,35,VSS*%
%TO.N,GND*%
X15201250Y-9632400D03*
%TO.P,U3,36,VDD*%
%TO.N,+3.3\u0412*%
X15201250Y-9582400D03*
D11*
%TO.P,U3,37,PA14*%
%TO.N,/SWCLK*%
X15060000Y-9441150D03*
%TO.P,U3,38,PA15*%
%TO.N,unconnected-(U3-PA15-Pad38)*%
X15010000Y-9441150D03*
%TO.P,U3,39,PB3*%
%TO.N,unconnected-(U3-PB3-Pad39)*%
X14960000Y-9441150D03*
%TO.P,U3,40,PB4*%
%TO.N,unconnected-(U3-PB4-Pad40)*%
X14910000Y-9441150D03*
%TO.P,U3,41,PB5*%
%TO.N,unconnected-(U3-PB5-Pad41)*%
X14860000Y-9441150D03*
%TO.P,U3,42,PB6*%
%TO.N,LED_LINE1*%
X14810000Y-9441150D03*
%TO.P,U3,43,PB7*%
%TO.N,LED_LINE2*%
X14760000Y-9441150D03*
%TO.P,U3,44,BOOT0*%
%TO.N,Net-(U3-BOOT0)*%
X14710000Y-9441150D03*
%TO.P,U3,45,PB8*%
%TO.N,unconnected-(U3-PB8-Pad45)*%
X14660000Y-9441150D03*
%TO.P,U3,46,PB9*%
%TO.N,unconnected-(U3-PB9-Pad46)*%
X14610000Y-9441150D03*
%TO.P,U3,47,VSS*%
%TO.N,GND*%
X14560000Y-9441150D03*
%TO.P,U3,48,VDD*%
%TO.N,+3.3\u0412*%
X14510000Y-9441150D03*
%TD*%
D12*
%TO.P,R1,1*%
%TO.N,Net-(U1-VSENSE)*%
X7205980Y-8660080D03*
%TO.P,R1,2*%
%TO.N,GND*%
X7205980Y-8495080D03*
%TD*%
D13*
%TO.P,D4,1,K*%
%TO.N,GND*%
X10901680Y-9761220D03*
%TO.P,D4,2,A*%
%TO.N,Net-(D4-A)*%
X10901680Y-9918720D03*
%TD*%
D14*
%TO.P,R9,1*%
%TO.N,Net-(J8-Pin_1)*%
X14953860Y-7695860D03*
%TO.P,R9,2*%
%TO.N,+5\u0412*%
X14788860Y-7695860D03*
%TD*%
D15*
%TO.P,C13,1*%
%TO.N,Net-(U3-VDDA)*%
X13591200Y-10218080D03*
%TO.P,C13,2*%
%TO.N,GND*%
X13591200Y-10063080D03*
%TD*%
D14*
%TO.P,R2,1*%
%TO.N,+5\u0412*%
X7548780Y-8656320D03*
%TO.P,R2,2*%
%TO.N,Net-(U1-VSENSE)*%
X7383780Y-8656320D03*
%TD*%
D16*
%TO.P,D3,1,K*%
%TO.N,GND*%
X9052570Y-9085580D03*
%TO.P,D3,2,A*%
%TO.N,Net-(D3-A)*%
X8895070Y-9085580D03*
%TD*%
D17*
%TO.P,Q2,1,E*%
%TO.N,Net-(J7-Pin_1)*%
X14196220Y-8198780D03*
%TO.P,Q2,2,B*%
%TO.N,Net-(Q2-B)*%
X14386220Y-8198780D03*
%TO.P,Q2,3,C*%
%TO.N,GND*%
X14291220Y-8011280D03*
%TD*%
D18*
%TO.P,R13,1*%
%TO.N,Net-(D5-A)*%
X13818580Y-8518820D03*
%TO.P,R13,2*%
%TO.N,Net-(U3-PC13)*%
X13983580Y-8518820D03*
%TD*%
D19*
%TO.P,R12,1*%
%TO.N,+3.3\u0412*%
X14962800Y-8941780D03*
%TO.P,R12,2*%
%TO.N,Net-(U3-BOOT0)*%
X14962800Y-9106780D03*
%TD*%
D15*
%TO.P,C19,1*%
%TO.N,Net-(U4-VS+)*%
X16841010Y-8671780D03*
%TO.P,C19,2*%
%TO.N,GND*%
X16841010Y-8516780D03*
%TD*%
D20*
%TO.P,C8,1*%
%TO.N,+3.3\u0412*%
X10905430Y-9140160D03*
%TO.P,C8,2*%
%TO.N,GND*%
X10905430Y-9295160D03*
%TD*%
D21*
%TO.P,U4,1,C1+*%
%TO.N,Net-(U4-C1+)*%
X17104970Y-8897610D03*
%TO.P,U4,2,VS+*%
%TO.N,Net-(U4-VS+)*%
X17169970Y-8897610D03*
%TO.P,U4,3,C1-*%
%TO.N,Net-(U4-C1-)*%
X17234970Y-8897610D03*
%TO.P,U4,4,C2+*%
%TO.N,Net-(U4-C2+)*%
X17299970Y-8897610D03*
%TO.P,U4,5,C2-*%
%TO.N,Net-(U4-C2-)*%
X17364970Y-8897610D03*
%TO.P,U4,6,VS-*%
%TO.N,Net-(U4-VS-)*%
X17429970Y-8897610D03*
%TO.P,U4,7,T2OUT*%
%TO.N,unconnected-(U4-T2OUT-Pad7)*%
X17494970Y-8897610D03*
%TO.P,U4,8,R2IN*%
%TO.N,unconnected-(U4-R2IN-Pad8)*%
X17559970Y-8897610D03*
%TO.P,U4,9,R2OUT*%
%TO.N,unconnected-(U4-R2OUT-Pad9)*%
X17559970Y-8325110D03*
%TO.P,U4,10,T2IN*%
%TO.N,unconnected-(U4-T2IN-Pad10)*%
X17494970Y-8325110D03*
%TO.P,U4,11,T1IN*%
%TO.N,Net-(U4-T1IN)*%
X17429970Y-8325110D03*
%TO.P,U4,12,R1OUT*%
%TO.N,Net-(U4-R1OUT)*%
X17364970Y-8325110D03*
%TO.P,U4,13,R1IN*%
%TO.N,/RxD*%
X17299970Y-8325110D03*
%TO.P,U4,14,T1OUT*%
%TO.N,/TxD*%
X17234970Y-8325110D03*
%TO.P,U4,15,GND*%
%TO.N,GND*%
X17169970Y-8325110D03*
%TO.P,U4,16,VCC*%
%TO.N,+5\u0412*%
X17104970Y-8325110D03*
%TD*%
D15*
%TO.P,C14,1*%
%TO.N,GND*%
X14510680Y-9099240D03*
%TO.P,C14,2*%
%TO.N,+3.3\u0412*%
X14510680Y-8944240D03*
%TD*%
%TO.P,C6,1*%
%TO.N,VIN*%
X6410960Y-9185940D03*
%TO.P,C6,2*%
%TO.N,GND*%
X6410960Y-9030940D03*
%TD*%
D22*
%TO.P,C24,1*%
%TO.N,Net-(U4-C2+)*%
X17256270Y-9191450D03*
%TO.P,C24,2*%
%TO.N,Net-(U4-C2-)*%
X17411270Y-9191450D03*
%TD*%
D12*
%TO.P,R7,1*%
%TO.N,+3.3\u0412*%
X14584680Y-10727640D03*
%TO.P,R7,2*%
%TO.N,Net-(U3-PB2)*%
X14584680Y-10562640D03*
%TD*%
D23*
%TO.P,U1,1,BOOT*%
%TO.N,Net-(U1-BOOT)*%
X7383580Y-9298600D03*
%TO.P,U1,2,NC*%
%TO.N,unconnected-(U1-NC-Pad2)*%
X7383580Y-9171600D03*
%TO.P,U1,3,NC*%
%TO.N,unconnected-(U1-NC-Pad3)*%
X7383580Y-9044600D03*
%TO.P,U1,4,VSENSE*%
%TO.N,Net-(U1-VSENSE)*%
X7383580Y-8917600D03*
%TO.P,U1,5,EN*%
%TO.N,ENA*%
X6843580Y-8917600D03*
%TO.P,U1,6,GND*%
%TO.N,GND*%
X6843580Y-9044600D03*
%TO.P,U1,7,VIN*%
%TO.N,VIN*%
X6843580Y-9171600D03*
%TO.P,U1,8,PH*%
%TO.N,Net-(D2-K)*%
X6843580Y-9298600D03*
D24*
%TO.P,U1,9,GNDPAD*%
%TO.N,GND*%
X7173580Y-9288100D03*
X7173580Y-9168100D03*
X7173580Y-9038100D03*
X7173580Y-8928100D03*
D25*
X7113580Y-9108100D03*
D26*
X7113580Y-9108100D03*
D24*
X7053580Y-9288100D03*
X7053580Y-9168100D03*
X7053580Y-9038100D03*
X7053580Y-8928100D03*
%TD*%
D15*
%TO.P,C11,1*%
%TO.N,+5\u0412*%
X10064690Y-9302780D03*
%TO.P,C11,2*%
%TO.N,GND*%
X10064690Y-9147780D03*
%TD*%
D20*
%TO.P,C17,1*%
%TO.N,+5\u0412*%
X16829570Y-9530510D03*
%TO.P,C17,2*%
%TO.N,GND*%
X16829570Y-9685510D03*
%TD*%
%TO.P,C22,1*%
%TO.N,GND*%
X16837190Y-10180750D03*
%TO.P,C22,2*%
%TO.N,+3.3\u0412*%
X16837190Y-10335750D03*
%TD*%
D27*
%TO.P,C2,1*%
%TO.N,+5\u0412*%
X8246480Y-8161020D03*
%TO.P,C2,2*%
%TO.N,GND*%
X9086480Y-8161020D03*
%TD*%
D28*
%TO.P,D1,1,A1*%
%TO.N,GND*%
X5600700Y-8847720D03*
%TO.P,D1,2,A2*%
%TO.N,VIN*%
X5600700Y-9277720D03*
%TD*%
D12*
%TO.P,R10,1*%
%TO.N,LED_LINE1*%
X14812940Y-8644500D03*
%TO.P,R10,2*%
%TO.N,Net-(Q1-B)*%
X14812940Y-8479500D03*
%TD*%
D20*
%TO.P,C16,1*%
%TO.N,+3.3\u0412*%
X15534300Y-9477640D03*
%TO.P,C16,2*%
%TO.N,GND*%
X15534300Y-9632640D03*
%TD*%
D29*
%TO.P,U2,1,GND*%
%TO.N,GND*%
X10534780Y-9624020D03*
%TO.P,U2,2,VO*%
%TO.N,+3.3\u0412*%
X10304780Y-9624020D03*
D30*
X10304780Y-10254020D03*
D29*
%TO.P,U2,3,VI*%
%TO.N,+5\u0412*%
X10074780Y-9624020D03*
%TD*%
D31*
%TO.P,J6,1,Pin_1*%
%TO.N,GND*%
X15291460Y-8574700D03*
D32*
%TO.P,J6,2,Pin_2*%
%TO.N,/SWCLK*%
X15545460Y-8574700D03*
%TO.P,J6,3,Pin_3*%
%TO.N,/SWDIO*%
X15799460Y-8574700D03*
%TO.P,J6,4,Pin_4*%
%TO.N,+3.3\u0412*%
X16053460Y-8574700D03*
%TD*%
D33*
%TO.P,SW1,1,1*%
%TO.N,GND*%
X12411260Y-10065680D03*
%TO.P,SW1,2,2*%
%TO.N,NRST*%
X13191260Y-10065680D03*
%TD*%
D34*
%TO.P,J2,1,Pin_1*%
%TO.N,GND*%
X11282680Y-7846060D03*
%TD*%
D35*
%TO.P,C15,1*%
%TO.N,GND*%
X15164760Y-10708300D03*
%TO.P,C15,2*%
%TO.N,+3.3\u0412*%
X15009760Y-10708300D03*
%TD*%
D20*
%TO.P,C9,1*%
%TO.N,+3.3\u0412*%
X10537130Y-9145240D03*
%TO.P,C9,2*%
%TO.N,GND*%
X10537130Y-9300240D03*
%TD*%
D14*
%TO.P,R3,1*%
%TO.N,Net-(D3-A)*%
X8401000Y-9085580D03*
%TO.P,R3,2*%
%TO.N,+5\u0412*%
X8236000Y-9085580D03*
%TD*%
D22*
%TO.P,C23,1*%
%TO.N,+5\u0412*%
X17069610Y-7991000D03*
%TO.P,C23,2*%
%TO.N,GND*%
X17224610Y-7991000D03*
%TD*%
D15*
%TO.P,C18,1*%
%TO.N,Net-(U4-VS-)*%
X17836690Y-8661890D03*
%TO.P,C18,2*%
%TO.N,GND*%
X17836690Y-8506890D03*
%TD*%
D35*
%TO.P,C20,1*%
%TO.N,GND*%
X12944800Y-8925220D03*
%TO.P,C20,2*%
%TO.N,Net-(U3-PD1)*%
X12789800Y-8925220D03*
%TD*%
D34*
%TO.P,J3,1,Pin_1*%
%TO.N,+5\u0412*%
X10180320Y-7843520D03*
%TD*%
D15*
%TO.P,C5,1*%
%TO.N,VIN*%
X6103620Y-9185940D03*
%TO.P,C5,2*%
%TO.N,GND*%
X6103620Y-9030940D03*
%TD*%
D36*
%TO.P,D2,1,K*%
%TO.N,Net-(D2-K)*%
X6479900Y-10058400D03*
%TO.P,D2,2,A*%
%TO.N,GND*%
X7159900Y-10058400D03*
%TD*%
D12*
%TO.P,R6,1*%
%TO.N,LED_LINE2*%
X14388760Y-8635660D03*
%TO.P,R6,2*%
%TO.N,Net-(Q2-B)*%
X14388760Y-8470660D03*
%TD*%
D19*
%TO.P,R11,1*%
%TO.N,Net-(D4-A)*%
X10904220Y-10138460D03*
%TO.P,R11,2*%
%TO.N,+3.3\u0412*%
X10904220Y-10303460D03*
%TD*%
D20*
%TO.P,C7,1*%
%TO.N,Net-(U1-BOOT)*%
X7759700Y-9302720D03*
%TO.P,C7,2*%
%TO.N,Net-(D2-K)*%
X7759700Y-9457720D03*
%TD*%
D17*
%TO.P,Q1,1,E*%
%TO.N,Net-(J8-Pin_1)*%
X14795160Y-8200860D03*
%TO.P,Q1,2,B*%
%TO.N,Net-(Q1-B)*%
X14985160Y-8200860D03*
%TO.P,Q1,3,C*%
%TO.N,GND*%
X14890160Y-8013360D03*
%TD*%
D15*
%TO.P,C10,1*%
%TO.N,+5\u0412*%
X9660830Y-9302780D03*
%TO.P,C10,2*%
%TO.N,GND*%
X9660830Y-9147780D03*
%TD*%
D14*
%TO.P,R4,1*%
%TO.N,+3.3\u0412*%
X16002880Y-8965860D03*
%TO.P,R4,2*%
%TO.N,/SWDIO*%
X15837880Y-8965860D03*
%TD*%
D37*
%TO.P,J4,1,Pin_1*%
%TO.N,/TxD*%
X18516600Y-8422420D03*
D38*
%TO.P,J4,2,Pin_2*%
%TO.N,/RxD*%
X18516600Y-9202420D03*
%TO.P,J4,3,Pin_3*%
%TO.N,GND*%
X18516600Y-9982420D03*
%TD*%
D39*
%TO.P,C4,1*%
%TO.N,+3.3\u0412*%
X11724640Y-9778310D03*
%TO.P,C4,2*%
%TO.N,GND*%
X11724640Y-8938310D03*
%TD*%
D40*
%TO.P,D5,1,K*%
%TO.N,GND*%
X13230500Y-8518820D03*
%TO.P,D5,2,A*%
%TO.N,Net-(D5-A)*%
X13388000Y-8518820D03*
%TD*%
D15*
%TO.P,C12,1*%
%TO.N,Net-(U3-VDDA)*%
X14007760Y-10218080D03*
%TO.P,C12,2*%
%TO.N,GND*%
X14007760Y-10063080D03*
%TD*%
D18*
%TO.P,R8,1*%
%TO.N,Net-(J7-Pin_1)*%
X14195820Y-7700940D03*
%TO.P,R8,2*%
%TO.N,+5\u0412*%
X14360820Y-7700940D03*
%TD*%
D41*
%TO.P,J1,1,Pin_1*%
%TO.N,GND*%
X4785360Y-8440420D03*
%TD*%
D22*
%TO.P,C3,1*%
%TO.N,GND*%
X12741540Y-10370480D03*
%TO.P,C3,2*%
%TO.N,NRST*%
X12896540Y-10370480D03*
%TD*%
%TO.P,C25,1*%
%TO.N,Net-(U4-C1+)*%
X16899370Y-9188910D03*
%TO.P,C25,2*%
%TO.N,Net-(U4-C1-)*%
X17054370Y-9188910D03*
%TD*%
D14*
%TO.P,R5,1*%
%TO.N,/SWCLK*%
X15454240Y-8965860D03*
%TO.P,R5,2*%
%TO.N,GND*%
X15289240Y-8965860D03*
%TD*%
D42*
%TO.P,L1,1,1*%
%TO.N,Net-(D2-K)*%
X8206880Y-10048240D03*
%TO.P,L1,2,2*%
%TO.N,+5\u0412*%
X9176880Y-10048240D03*
%TD*%
D41*
%TO.P,J5,1,Pin_1*%
%TO.N,VIN*%
X4785360Y-9659620D03*
%TD*%
D34*
%TO.P,J7,1,Pin_1*%
%TO.N,Net-(J7-Pin_1)*%
X13654700Y-7802540D03*
%TD*%
D35*
%TO.P,C1,1*%
%TO.N,+5\u0412*%
X7540020Y-8310880D03*
%TO.P,C1,2*%
%TO.N,GND*%
X7385020Y-8310880D03*
%TD*%
D34*
%TO.P,J8,1,Pin_1*%
%TO.N,Net-(J8-Pin_1)*%
X15521600Y-7800000D03*
%TD*%
D43*
%TO.P,U5,1,VDD1*%
%TO.N,+3.3\u0412*%
X17151030Y-10180630D03*
%TO.P,U5,2,VOA*%
%TO.N,RX232_RxD*%
X17278030Y-10180630D03*
%TO.P,U5,3,VIB*%
%TO.N,RX232_TxD*%
X17405030Y-10180630D03*
%TO.P,U5,4,GND1*%
%TO.N,GND*%
X17532030Y-10180630D03*
%TO.P,U5,5,GND2*%
X17532030Y-9685630D03*
%TO.P,U5,6,VOB*%
%TO.N,Net-(U4-T1IN)*%
X17405030Y-9685630D03*
%TO.P,U5,7,VIA*%
%TO.N,Net-(U4-R1OUT)*%
X17278030Y-9685630D03*
%TO.P,U5,8,VDD2*%
%TO.N,+5\u0412*%
X17151030Y-9685630D03*
%TD*%
D22*
%TO.P,C21,1*%
%TO.N,GND*%
X13480680Y-8922680D03*
%TO.P,C21,2*%
%TO.N,Net-(U3-PD0)*%
X13635680Y-8922680D03*
%TD*%
D44*
%TO.P,Y1,1,1*%
%TO.N,Net-(U3-PD0)*%
X13637740Y-9397660D03*
%TO.P,Y1,2,2*%
%TO.N,Net-(U3-PD1)*%
X12787740Y-9397660D03*
%TD*%
D45*
%TO.N,+3.3\u0412*%
X15313660Y-10274300D03*
X16565880Y-10335260D03*
%TO.N,GND*%
X13796940Y-10065680D03*
D46*
X11722100Y-8288020D03*
D45*
X14960260Y-10086000D03*
X15707020Y-9633880D03*
X17619980Y-9370060D03*
X16975630Y-8515810D03*
X14645300Y-9628800D03*
D46*
X5676900Y-8509000D03*
X9458960Y-8237220D03*
X6263640Y-8877300D03*
D45*
X14541160Y-9933600D03*
X15000900Y-9671980D03*
X13316880Y-8922680D03*
D46*
X7490460Y-9974580D03*
D45*
X15323480Y-10710840D03*
X14685940Y-9100480D03*
X16893540Y-10005060D03*
D46*
X7386320Y-8074660D03*
X5514340Y-8509000D03*
X9237980Y-9085580D03*
D45*
X13045100Y-8518820D03*
D46*
X7490460Y-10137140D03*
D45*
X15135520Y-8013360D03*
X12410100Y-10370480D03*
X15289240Y-9111960D03*
X14056020Y-8010820D03*
D46*
X10902890Y-9601200D03*
D45*
X16969270Y-9846770D03*
X17227090Y-7852870D03*
D46*
X6911340Y-8493760D03*
D45*
X13123840Y-8925220D03*
D46*
X9458960Y-8074660D03*
D45*
X17835880Y-8338820D03*
D46*
X9836090Y-8920480D03*
D45*
%TO.N,+5\u0412*%
X14574180Y-7703480D03*
X16828310Y-9392110D03*
X17105170Y-8150050D03*
%TO.N,/SWDIO*%
X15547000Y-9809140D03*
X15837880Y-9114400D03*
%TO.N,LED_LINE1*%
X14812940Y-8788060D03*
X14922160Y-9301140D03*
%TO.N,LED_LINE2*%
X14388760Y-8823960D03*
X14873900Y-9235100D03*
%TO.N,RX232_TxD*%
X17284700Y-10634980D03*
X16918940Y-10629900D03*
%TO.N,Net-(U4-T1IN)*%
X17429970Y-8546290D03*
X17406150Y-9442910D03*
%TO.N,Net-(U4-R1OUT)*%
X17276610Y-9442910D03*
X17364970Y-8465010D03*
%TD*%
D47*
%TO.N,LED_LINE2*%
X14388760Y-8823960D02*
X14388760Y-8788060D01*
X14388760Y-8635660D02*
X14388760Y-8823960D01*
%TO.N,/RxD*%
X17940020Y-8056880D02*
X17449800Y-8056880D01*
%TO.N,GND*%
X15040480Y-9632400D02*
X15000900Y-9671980D01*
X15201250Y-9632400D02*
X15040480Y-9632400D01*
D48*
%TO.N,+3.3\u0412*%
X10380950Y-9145240D02*
X10537130Y-9145240D01*
X10304780Y-9221410D02*
X10380950Y-9145240D01*
X10304780Y-9221410D02*
X10304780Y-9624020D01*
D47*
X16004200Y-8623960D02*
X16004200Y-8964540D01*
X14412840Y-8941780D02*
X14962800Y-8941780D01*
X14304940Y-9049680D02*
X14412840Y-8941780D01*
X15776900Y-9477640D02*
X16002880Y-9251660D01*
X14510000Y-9578353D02*
X14510680Y-9579033D01*
X15060000Y-10273650D02*
X15060000Y-10486640D01*
X15201250Y-9582400D02*
X15331780Y-9582400D01*
D48*
X10304780Y-9624020D02*
X10304780Y-10254020D01*
X11724640Y-9778310D02*
X11724640Y-10294620D01*
D47*
X16053460Y-8574700D02*
X16004200Y-8623960D01*
X15313010Y-10273650D02*
X15313660Y-10274300D01*
X14434790Y-9441150D02*
X14304940Y-9311300D01*
X16565880Y-10335260D02*
X16565880Y-10330180D01*
X15060000Y-10079060D02*
X14749440Y-9768500D01*
D48*
X11724640Y-10294620D02*
X12157660Y-10727640D01*
D47*
X16571450Y-10335750D02*
X16570960Y-10335260D01*
D48*
X12157660Y-10727640D02*
X14584680Y-10727640D01*
D47*
X16004200Y-8964540D02*
X16002880Y-8965860D01*
X16002880Y-8965860D02*
X16002880Y-9251660D01*
X16837190Y-10335750D02*
X17129270Y-10335750D01*
X14510680Y-9674520D02*
X14604660Y-9768500D01*
X15009760Y-10708300D02*
X14604020Y-10708300D01*
D48*
X10905430Y-9140160D02*
X11268680Y-9140160D01*
D47*
X15060000Y-10486640D02*
X15009760Y-10536880D01*
X10354220Y-10303460D02*
X10304780Y-10254020D01*
X16570960Y-10335260D02*
X16565880Y-10335260D01*
D48*
X11268680Y-9140160D02*
X11724640Y-9596120D01*
D47*
X14931050Y-9586890D02*
X14749440Y-9768500D01*
X15534300Y-9477640D02*
X15776900Y-9477640D01*
X14510000Y-9441150D02*
X14434790Y-9441150D01*
D49*
X16837190Y-10335750D02*
X16571450Y-10335750D01*
D47*
X15201250Y-9582400D02*
X14935540Y-9582400D01*
X14510000Y-9441150D02*
X14510000Y-9578353D01*
X17129270Y-10335750D02*
X17151030Y-10313990D01*
X15060000Y-10273650D02*
X15060000Y-10079060D01*
D48*
X11724640Y-9596120D02*
X11724640Y-9778310D01*
D47*
X15436540Y-9477640D02*
X15534300Y-9477640D01*
X14510680Y-9579033D02*
X14510680Y-9674520D01*
X10904220Y-10303460D02*
X10354220Y-10303460D01*
X14604020Y-10708300D02*
X14584680Y-10727640D01*
X15009760Y-10536880D02*
X15009760Y-10708300D01*
X10542210Y-9140160D02*
X10537130Y-9145240D01*
X14304940Y-9311300D02*
X14304940Y-9049680D01*
X17151030Y-10313990D02*
X17151030Y-10180630D01*
X15331780Y-9582400D02*
X15436540Y-9477640D01*
X14935540Y-9582400D02*
X14931050Y-9586890D01*
X14604660Y-9768500D02*
X14749440Y-9768500D01*
D48*
X10905430Y-9140160D02*
X10542210Y-9140160D01*
D47*
X16565880Y-10330180D02*
X16570960Y-10335260D01*
%TO.N,GND*%
X14560000Y-9543500D02*
X14560000Y-9441150D01*
X17532030Y-9685630D02*
X17532030Y-9816150D01*
D48*
X7385020Y-8310880D02*
X7385020Y-8075960D01*
D47*
X17532030Y-9816150D02*
X17501410Y-9846770D01*
X10901680Y-9602410D02*
X10902890Y-9601200D01*
D48*
X6263640Y-9030940D02*
X6410960Y-9030940D01*
X9836090Y-8920480D02*
X9836090Y-9145240D01*
D47*
X15706960Y-9632640D02*
X15705720Y-9632640D01*
X16894350Y-10004250D02*
X16893540Y-10005060D01*
X10902890Y-9302780D02*
X10900350Y-9300240D01*
X6850080Y-9038100D02*
X6843580Y-9044600D01*
X17224610Y-7991000D02*
X17224610Y-7855350D01*
D50*
X5600700Y-8509000D02*
X5676900Y-8509000D01*
D47*
X14541160Y-9933600D02*
X14542360Y-9932400D01*
X13799540Y-10063080D02*
X14007760Y-10063080D01*
X16891810Y-10004250D02*
X16834650Y-10061410D01*
D48*
X7053580Y-9038100D02*
X6850080Y-9038100D01*
D47*
X17169970Y-8325110D02*
X17169970Y-8148750D01*
X15704480Y-9632640D02*
X15707020Y-9633880D01*
X16887990Y-9846770D02*
X16969270Y-9846770D01*
X16829570Y-9788350D02*
X16887990Y-9846770D01*
X14510680Y-9099240D02*
X14684700Y-9099240D01*
X15289240Y-9111960D02*
X15289240Y-8965860D01*
D48*
X7205980Y-8495080D02*
X6912660Y-8495080D01*
D47*
X16976600Y-8516780D02*
X17139820Y-8516780D01*
X13794340Y-10063080D02*
X13796940Y-10065680D01*
X15320940Y-10708300D02*
X15323480Y-10710840D01*
D48*
X10537130Y-9300240D02*
X10900350Y-9300240D01*
D47*
X6266180Y-8877300D02*
X6266180Y-8877300D01*
X10901680Y-9761220D02*
X10901680Y-9602410D01*
X15534300Y-9632640D02*
X15704480Y-9632640D01*
X17532030Y-10033950D02*
X17502330Y-10004250D01*
D50*
X5514340Y-8509000D02*
X5600700Y-8509000D01*
D47*
X7385020Y-8075960D02*
X7386320Y-8074660D01*
X16837190Y-10180750D02*
X16837190Y-10179510D01*
X17619980Y-9370060D02*
X17619980Y-9372600D01*
X16829570Y-9685510D02*
X16829570Y-9788350D01*
X14890160Y-8013360D02*
X15135520Y-8013360D01*
D50*
X5676900Y-8509000D02*
X5600700Y-8511540D01*
D47*
X9836090Y-9145240D02*
X9838630Y-9147780D01*
X17619980Y-9372600D02*
X18229800Y-9982420D01*
D50*
X9453880Y-8072120D02*
X9453880Y-8158480D01*
D47*
X16975630Y-8515810D02*
X16976600Y-8516780D01*
D48*
X9052570Y-9085580D02*
X9237980Y-9085580D01*
D47*
X15164760Y-10708300D02*
X15320940Y-10708300D01*
D48*
X9838630Y-9147780D02*
X10064690Y-9147780D01*
D47*
X17169970Y-8486630D02*
X17169970Y-8325110D01*
D50*
X7488370Y-10060940D02*
X7488370Y-10137140D01*
D47*
X17224610Y-7855350D02*
X17227090Y-7852870D01*
X16974660Y-8516780D02*
X16975630Y-8515810D01*
X17501410Y-9846770D02*
X16969270Y-9846770D01*
D50*
X9453880Y-8158480D02*
X9453880Y-8234680D01*
D47*
X6263640Y-8879840D02*
X6263640Y-8879840D01*
X14645300Y-9628800D02*
X14560000Y-9543500D01*
X6263640Y-8879840D02*
X6263640Y-8877300D01*
X13480680Y-8922680D02*
X13316880Y-8922680D01*
X14291220Y-8011280D02*
X14056480Y-8011280D01*
X13123840Y-8925220D02*
X13128920Y-8925220D01*
X18229800Y-9982420D02*
X18516600Y-9982420D01*
X15289240Y-9111960D02*
X15293000Y-9115720D01*
X15326020Y-10708300D02*
X15331100Y-10708300D01*
X17502330Y-10004250D02*
X16894350Y-10004250D01*
X15010000Y-10135740D02*
X14960260Y-10086000D01*
D48*
X10537130Y-9300240D02*
X10537130Y-9621670D01*
D47*
X12411260Y-10065680D02*
X12411260Y-10369320D01*
X14056480Y-8011280D02*
X14056020Y-8010820D01*
X15293000Y-9115720D02*
X15293000Y-9118260D01*
X13796940Y-10065680D02*
X13799540Y-10063080D01*
X17532030Y-10180630D02*
X17532030Y-10033950D01*
X17227090Y-7852870D02*
X17224610Y-7850390D01*
X16837190Y-10179510D02*
X16834650Y-10176970D01*
X14539960Y-9932400D02*
X14541160Y-9933600D01*
D49*
X17619980Y-9370060D02*
X17617440Y-9372600D01*
D47*
X6263640Y-8877300D02*
X6266180Y-8877300D01*
X17224610Y-8094110D02*
X17224610Y-7991000D01*
X16893540Y-10005060D02*
X16892730Y-10004250D01*
D48*
X17836690Y-8338010D02*
X17835880Y-8338820D01*
D47*
X17224610Y-7850390D02*
X17224610Y-7845310D01*
X17836690Y-8339630D02*
X17836690Y-8506890D01*
X15135520Y-8013360D02*
X15138060Y-8013360D01*
D48*
X6263640Y-9030940D02*
X6263640Y-8879840D01*
D50*
X5600700Y-8847720D02*
X5600700Y-8511540D01*
X7149650Y-10060940D02*
X7485830Y-10060940D01*
D47*
X14368750Y-9932400D02*
X14539960Y-9932400D01*
X16841010Y-8516780D02*
X16974660Y-8516780D01*
D48*
X9660830Y-9147780D02*
X9838630Y-9147780D01*
D47*
X13230500Y-8518820D02*
X13045100Y-8518820D01*
D48*
X10902890Y-9601200D02*
X10902890Y-9302780D01*
D47*
X17169970Y-8148750D02*
X17224610Y-8094110D01*
X16892730Y-10004250D02*
X16891810Y-10004250D01*
X15010000Y-10273650D02*
X15010000Y-10135740D01*
X12411260Y-10369320D02*
X12410100Y-10370480D01*
X6912660Y-8495080D02*
X6911340Y-8493760D01*
X13591200Y-10063080D02*
X13794340Y-10063080D01*
X15707020Y-9633880D02*
X15706960Y-9632640D01*
X16834650Y-10061410D02*
X16834650Y-10176970D01*
X13123840Y-8925220D02*
X12944800Y-8925220D01*
X17532030Y-9685630D02*
X17532030Y-9458010D01*
X14684700Y-9099240D02*
X14685940Y-9100480D01*
X12410100Y-10370480D02*
X12741540Y-10370480D01*
X10537130Y-9621670D02*
X10534780Y-9624020D01*
X17139820Y-8516780D02*
X17169970Y-8486630D01*
X14542360Y-9932400D02*
X14544900Y-9932400D01*
D50*
X7488370Y-9974580D02*
X7488370Y-10060940D01*
D47*
X17532030Y-9458010D02*
X17619980Y-9370060D01*
D50*
X9115160Y-8158480D02*
X9451340Y-8158480D01*
D48*
X6103620Y-9030940D02*
X6263640Y-9030940D01*
D47*
X15323480Y-10710840D02*
X15326020Y-10708300D01*
X14544900Y-9932400D02*
X14546240Y-9931060D01*
D48*
X17835880Y-8338820D02*
X17836690Y-8339630D01*
%TO.N,Net-(U1-BOOT)*%
X7759700Y-9302720D02*
X7387700Y-9302720D01*
%TO.N,Net-(D2-K)*%
X7758460Y-9458960D02*
X7759700Y-9457720D01*
X7759700Y-9855200D02*
X7759700Y-9457720D01*
X6845300Y-9458960D02*
X7758460Y-9458960D01*
X8206880Y-10048240D02*
X7952740Y-10048240D01*
X7952740Y-10048240D02*
X7759700Y-9855200D01*
X6680200Y-9458960D02*
X6845300Y-9458960D01*
X6843580Y-9298600D02*
X6844820Y-9299840D01*
X6479900Y-10058400D02*
X6479900Y-9659260D01*
X6843580Y-9457240D02*
X6845300Y-9458960D01*
X6479900Y-9659260D02*
X6680200Y-9458960D01*
X6843580Y-9298600D02*
X6843580Y-9457240D01*
%TO.N,VIN*%
X6103620Y-9185940D02*
X6102320Y-9185940D01*
X6410960Y-9185940D02*
X6103620Y-9185940D01*
X6843580Y-9171600D02*
X6425300Y-9171600D01*
D47*
X6425300Y-9171600D02*
X6410960Y-9185940D01*
D48*
X6010540Y-9277720D02*
X5600700Y-9277720D01*
D50*
X5600700Y-9659620D02*
X5600700Y-9277720D01*
D48*
X6102320Y-9185940D02*
X6010540Y-9277720D01*
D50*
X4785360Y-9659620D02*
X5600700Y-9659620D01*
D48*
%TO.N,+5\u0412*%
X8246480Y-8472540D02*
X8478520Y-8704580D01*
X9660830Y-9302780D02*
X10064690Y-9302780D01*
X7548780Y-8656320D02*
X7548780Y-8305900D01*
D47*
X14807860Y-7700940D02*
X14576720Y-7700940D01*
D48*
X9497060Y-9164320D02*
X9635520Y-9302780D01*
X8478520Y-8704580D02*
X9354820Y-8704580D01*
D47*
X14574180Y-7703480D02*
X14571640Y-7700940D01*
D48*
X9176880Y-10048240D02*
X9176880Y-9601060D01*
D51*
X8369300Y-7843520D02*
X10180320Y-7843520D01*
X8246480Y-7966340D02*
X8369300Y-7843520D01*
D47*
X17127650Y-9530510D02*
X17151030Y-9553890D01*
D48*
X9354820Y-8704580D02*
X9497060Y-8846820D01*
X8236000Y-8914180D02*
X8236000Y-9085580D01*
X7693660Y-8161020D02*
X8246480Y-8161020D01*
X8236000Y-9366300D02*
X8236000Y-9085580D01*
D47*
X17069610Y-7991000D02*
X17069610Y-8106870D01*
X14805320Y-7703480D02*
X14807860Y-7700940D01*
D48*
X10064690Y-9613930D02*
X10074780Y-9624020D01*
D51*
X8246480Y-8161020D02*
X8246480Y-7966340D01*
D47*
X17104970Y-8150250D02*
X17104970Y-8325110D01*
D48*
X7548780Y-8305900D02*
X7548880Y-8305800D01*
D47*
X14571640Y-7700940D02*
X14360820Y-7700940D01*
X17104970Y-8142230D02*
X17104970Y-8149850D01*
D48*
X10064690Y-9302780D02*
X10064690Y-9613930D01*
D47*
X16828310Y-9392110D02*
X16830850Y-9392110D01*
X16829570Y-9530510D02*
X17127650Y-9530510D01*
X16829570Y-9393390D02*
X16828310Y-9394650D01*
X16830850Y-9392110D02*
X16830850Y-9392110D01*
X17104970Y-8149850D02*
X17105170Y-8150050D01*
D48*
X9176880Y-9601060D02*
X9039860Y-9464040D01*
D47*
X17151030Y-9553890D02*
X17151030Y-9685630D01*
X16828310Y-9394650D02*
X16828310Y-9392110D01*
D48*
X7548780Y-8656320D02*
X7978140Y-8656320D01*
X8246480Y-8161020D02*
X8246480Y-8472540D01*
D47*
X17105170Y-8150050D02*
X17104970Y-8150250D01*
D48*
X7978140Y-8656320D02*
X8236000Y-8914180D01*
D47*
X14576720Y-7700940D02*
X14574180Y-7703480D01*
D48*
X8333740Y-9464040D02*
X8236000Y-9366300D01*
X7548880Y-8305800D02*
X7693660Y-8161020D01*
D47*
X17069610Y-8106870D02*
X17104970Y-8142230D01*
D48*
X9497060Y-8846820D02*
X9497060Y-9164320D01*
X9039860Y-9464040D02*
X8333740Y-9464040D01*
D47*
X16829570Y-9530510D02*
X16829570Y-9393390D01*
X14786320Y-7703480D02*
X14805320Y-7703480D01*
%TO.N,Net-(U3-VDDA)*%
X14134760Y-10218080D02*
X13591200Y-10218080D01*
X14177940Y-10047900D02*
X14177940Y-10174900D01*
X14177940Y-10174900D02*
X14134760Y-10218080D01*
X14243440Y-9982400D02*
X14177940Y-10047900D01*
X14368750Y-9982400D02*
X14243440Y-9982400D01*
%TO.N,Net-(U3-PD0)*%
X14368750Y-9782400D02*
X14368360Y-9782400D01*
X13637740Y-9680420D02*
X13637740Y-9397660D01*
X13637740Y-9397660D02*
X13637740Y-8924740D01*
X14363750Y-9777790D02*
X13735110Y-9777790D01*
X13735110Y-9777790D02*
X13637740Y-9680420D01*
X14368360Y-9782400D02*
X14363750Y-9777790D01*
X13637740Y-8924740D02*
X13635680Y-8922680D01*
%TO.N,Net-(U3-PD1)*%
X12796180Y-9727860D02*
X12900720Y-9832400D01*
X12787740Y-9397660D02*
X12787740Y-9399380D01*
X12787740Y-8927280D02*
X12789800Y-8925220D01*
X12900720Y-9832400D02*
X14368750Y-9832400D01*
X12796180Y-9407820D02*
X12796180Y-9727860D01*
X12787740Y-9399380D02*
X12796180Y-9407820D01*
X12787740Y-9397660D02*
X12787740Y-8927280D01*
%TO.N,Net-(U4-C1-)*%
X17054370Y-9115250D02*
X17054370Y-9188910D01*
X17234970Y-8897610D02*
X17234970Y-8998150D01*
X17234970Y-8998150D02*
X17178830Y-9054290D01*
X17178830Y-9054290D02*
X17115330Y-9054290D01*
X17115330Y-9054290D02*
X17054370Y-9115250D01*
%TO.N,Net-(U4-C1+)*%
X17104970Y-8897610D02*
X16954510Y-8897610D01*
X16899370Y-8952750D02*
X16899370Y-9188910D01*
X16954510Y-8897610D02*
X16899370Y-8952750D01*
%TO.N,Net-(U4-C2-)*%
X17364970Y-9145150D02*
X17411270Y-9191450D01*
X17364970Y-8897610D02*
X17364970Y-9145150D01*
%TO.N,Net-(U4-C2+)*%
X17299970Y-8897610D02*
X17299970Y-9147750D01*
X17299970Y-9147750D02*
X17256270Y-9191450D01*
%TO.N,Net-(U4-VS+)*%
X17169970Y-8730470D02*
X17111280Y-8671780D01*
X17111280Y-8671780D02*
X16841010Y-8671780D01*
X17169970Y-8897610D02*
X17169970Y-8730470D01*
%TO.N,Net-(U4-VS-)*%
X17479790Y-8661890D02*
X17836690Y-8661890D01*
X17429970Y-8897610D02*
X17429970Y-8711710D01*
X17429970Y-8711710D02*
X17479790Y-8661890D01*
%TO.N,NRST*%
X12896540Y-10370480D02*
X13131460Y-10370480D01*
X13324500Y-10065680D02*
X13191260Y-10065680D01*
X13507780Y-9882400D02*
X13324500Y-10065680D01*
X13131460Y-10370480D02*
X13191260Y-10310680D01*
X14368750Y-9882400D02*
X13507780Y-9882400D01*
X13191260Y-10310680D02*
X13191260Y-10065680D01*
D48*
%TO.N,Net-(D3-A)*%
X8895070Y-9085580D02*
X8401000Y-9085580D01*
D47*
%TO.N,Net-(D4-A)*%
X10901680Y-9918720D02*
X10901680Y-10135920D01*
X10901680Y-10135920D02*
X10904220Y-10138460D01*
%TO.N,Net-(D5-A)*%
X13388000Y-8518820D02*
X13818580Y-8518820D01*
%TO.N,/SWDIO*%
X15547000Y-9809140D02*
X15493660Y-9809140D01*
X15839100Y-8614340D02*
X15839100Y-8964640D01*
X15366920Y-9682400D02*
X15201250Y-9682400D01*
X15837880Y-8965860D02*
X15837880Y-9114400D01*
X15493660Y-9809140D02*
X15366920Y-9682400D01*
X15839100Y-8964640D02*
X15837880Y-8965860D01*
X15799460Y-8574700D02*
X15839100Y-8614340D01*
%TO.N,/SWCLK*%
X15545460Y-8874640D02*
X15454240Y-8965860D01*
X15060000Y-9441150D02*
X15338410Y-9441150D01*
X15545460Y-8574700D02*
X15545460Y-8874640D01*
X15454240Y-9325320D02*
X15454240Y-8965860D01*
X15338410Y-9441150D02*
X15454240Y-9325320D01*
%TO.N,Net-(Q1-B)*%
X14938620Y-8479500D02*
X14985660Y-8432460D01*
X14812940Y-8479500D02*
X14938620Y-8479500D01*
X14985660Y-8432460D02*
X14985160Y-8431960D01*
X14985160Y-8431960D02*
X14985160Y-8200860D01*
%TO.N,Net-(Q2-B)*%
X14386220Y-8468120D02*
X14388760Y-8470660D01*
X14386220Y-8198780D02*
X14386220Y-8468120D01*
D48*
%TO.N,Net-(U1-VSENSE)*%
X7383580Y-8917600D02*
X7383580Y-8656520D01*
D47*
X7209740Y-8656320D02*
X7205980Y-8660080D01*
X7382560Y-8657540D02*
X7383780Y-8656320D01*
D48*
X7383780Y-8656320D02*
X7209740Y-8656320D01*
D47*
X7383580Y-8656520D02*
X7383780Y-8656320D01*
%TO.N,Net-(U3-BOOT0)*%
X14844740Y-9106780D02*
X14710000Y-9241520D01*
X14710000Y-9241520D02*
X14710000Y-9441150D01*
X14962800Y-9106780D02*
X14844740Y-9106780D01*
%TO.N,Net-(U3-PC13)*%
X14163760Y-9632400D02*
X14368750Y-9632400D01*
X13983580Y-9452220D02*
X14163760Y-9632400D01*
X13983580Y-8518820D02*
X13983580Y-9452220D01*
%TO.N,Net-(U3-PB2)*%
X14860000Y-10273650D02*
X14860000Y-10473960D01*
X14584680Y-10562640D02*
X14586340Y-10560980D01*
X14860000Y-10473960D02*
X14771320Y-10562640D01*
X14771320Y-10562640D02*
X14584680Y-10562640D01*
%TO.N,LED_LINE1*%
X14810000Y-9321860D02*
X14833260Y-9298600D01*
X14922160Y-9301140D02*
X14924700Y-9298600D01*
X14812940Y-8788060D02*
X14812940Y-8790600D01*
X14919620Y-9298600D02*
X14922160Y-9301140D01*
X14810000Y-9441150D02*
X14810000Y-9321860D01*
X14833260Y-9298600D02*
X14919620Y-9298600D01*
X14924700Y-9298600D02*
X14929780Y-9298600D01*
X14812940Y-8644500D02*
X14812940Y-8788060D01*
%TO.N,LED_LINE2*%
X14785000Y-9235100D02*
X14873900Y-9235100D01*
X14873900Y-9235100D02*
X14871360Y-9235100D01*
X14760000Y-9441150D02*
X14760000Y-9260100D01*
X14760000Y-9260100D02*
X14785000Y-9235100D01*
%TO.N,RX232_TxD*%
X15201250Y-9832400D02*
X15415320Y-9832400D01*
X17405030Y-10514650D02*
X17284700Y-10634980D01*
X15415320Y-9832400D02*
X16212820Y-10629900D01*
X17405030Y-10180630D02*
X17405030Y-10514650D01*
X16918940Y-10629900D02*
X16921480Y-10629900D01*
X16921480Y-10629900D02*
X16924020Y-10632440D01*
X16212820Y-10629900D02*
X16918940Y-10629900D01*
%TO.N,RX232_RxD*%
X17012920Y-10711180D02*
X17278030Y-10446070D01*
X15201250Y-9882400D02*
X15345940Y-9882400D01*
X17278030Y-10446070D02*
X17278030Y-10180630D01*
X16174720Y-10711180D02*
X17012920Y-10711180D01*
X15345940Y-9882400D02*
X16174720Y-10711180D01*
%TO.N,Net-(U4-T1IN)*%
X17405030Y-9685630D02*
X17405030Y-9446870D01*
X17406150Y-9447990D02*
X17406150Y-9442910D01*
X17401070Y-9442910D02*
X17403610Y-9445450D01*
X17406150Y-9442910D02*
X17401070Y-9442910D01*
X17429970Y-8546290D02*
X17429970Y-8325110D01*
X17405030Y-9446870D02*
X17406150Y-9447990D01*
%TO.N,Net-(U4-R1OUT)*%
X17364970Y-8465010D02*
X17364970Y-8325110D01*
X17278030Y-9444330D02*
X17276610Y-9442910D01*
X17278030Y-9685630D02*
X17278030Y-9444330D01*
%TO.N,Net-(J7-Pin_1)*%
X13996020Y-7802540D02*
X13996020Y-8138780D01*
X14043320Y-7700940D02*
X13996020Y-7748240D01*
X13996020Y-7748240D02*
X13996020Y-7802540D01*
X14195820Y-7700940D02*
X14043320Y-7700940D01*
X13996020Y-8138780D02*
X14056020Y-8198780D01*
X14056020Y-8198780D02*
X14196220Y-8198780D01*
X13654700Y-7802540D02*
X13996020Y-7802540D01*
%TO.N,Net-(J8-Pin_1)*%
X14670240Y-8200860D02*
X14795160Y-8200860D01*
X14624980Y-7853340D02*
X14624980Y-8155600D01*
X14955180Y-7800000D02*
X14678320Y-7800000D01*
X15521600Y-7800000D02*
X14955180Y-7800000D01*
X14624980Y-8155600D02*
X14670240Y-8200860D01*
X14678320Y-7800000D02*
X14624980Y-7853340D01*
X14951320Y-7796140D02*
X14955180Y-7800000D01*
X14951320Y-7703480D02*
X14951320Y-7796140D01*
%TO.N,/TxD*%
X17234970Y-8325110D02*
X17234970Y-8185350D01*
X17477740Y-7942580D02*
X18298160Y-7942580D01*
X18298160Y-7942580D02*
X18516600Y-8161020D01*
X18516600Y-8161020D02*
X18516600Y-8422420D01*
X17234970Y-8185350D02*
X17477740Y-7942580D01*
%TO.N,/RxD*%
X18127980Y-9065260D02*
X18265140Y-9202420D01*
X17449800Y-8056880D02*
X17299970Y-8206710D01*
X18265140Y-9202420D02*
X18516600Y-9202420D01*
X18127980Y-8244840D02*
X18127980Y-9065260D01*
X17940020Y-8056880D02*
X18127980Y-8244840D01*
X17299970Y-8206710D02*
X17299970Y-8325110D01*
%TO.N,+3.3\u0412*%
X15060000Y-10273650D02*
X15313010Y-10273650D01*
D51*
%TO.N,GND*%
X11724640Y-8288020D02*
X11282680Y-7846060D01*
X11724640Y-8938310D02*
X11724640Y-8288020D01*
%TD*%
M02*
