%TF.GenerationSoftware,KiCad,Pcbnew,8.0.2*%
%TF.CreationDate,2024-08-08T08:25:17+03:00*%
%TF.ProjectId,______________ SMD,21323542-3e43-43a3-9037-3042353b4c20,rev?*%
%TF.SameCoordinates,Original*%
%TF.FileFunction,Paste,Top*%
%TF.FilePolarity,Positive*%
%FSLAX45Y45*%
G04 Gerber Fmt 4.5, Leading zero omitted, Abs format (unit mm)*
G04 Created by KiCad (PCBNEW 8.0.2) date 2024-08-08 08:25:17*
%MOMM*%
%LPD*%
G01*
G04 APERTURE LIST*
G04 Aperture macros list*
%AMRoundRect*
0 Rectangle with rounded corners*
0 $1 Rounding radius*
0 $2 $3 $4 $5 $6 $7 $8 $9 X,Y pos of 4 corners*
0 Add a 4 corners polygon primitive as box body*
4,1,4,$2,$3,$4,$5,$6,$7,$8,$9,$2,$3,0*
0 Add four circle primitives for the rounded corners*
1,1,$1+$1,$2,$3*
1,1,$1+$1,$4,$5*
1,1,$1+$1,$6,$7*
1,1,$1+$1,$8,$9*
0 Add four rect primitives between the rounded corners*
20,1,$1+$1,$2,$3,$4,$5,0*
20,1,$1+$1,$4,$5,$6,$7,0*
20,1,$1+$1,$6,$7,$8,$9,0*
20,1,$1+$1,$8,$9,$2,$3,0*%
G04 Aperture macros list end*
%ADD10RoundRect,0.075000X-0.662500X-0.075000X0.662500X-0.075000X0.662500X0.075000X-0.662500X0.075000X0*%
%ADD11RoundRect,0.075000X-0.075000X-0.662500X0.075000X-0.662500X0.075000X0.662500X-0.075000X0.662500X0*%
%ADD12RoundRect,0.200000X0.275000X-0.200000X0.275000X0.200000X-0.275000X0.200000X-0.275000X-0.200000X0*%
%ADD13RoundRect,0.218750X-0.256250X0.218750X-0.256250X-0.218750X0.256250X-0.218750X0.256250X0.218750X0*%
%ADD14RoundRect,0.200000X0.200000X0.275000X-0.200000X0.275000X-0.200000X-0.275000X0.200000X-0.275000X0*%
%ADD15RoundRect,0.225000X0.250000X-0.225000X0.250000X0.225000X-0.250000X0.225000X-0.250000X-0.225000X0*%
%ADD16RoundRect,0.218750X0.218750X0.256250X-0.218750X0.256250X-0.218750X-0.256250X0.218750X-0.256250X0*%
%ADD17RoundRect,0.150000X0.150000X-0.587500X0.150000X0.587500X-0.150000X0.587500X-0.150000X-0.587500X0*%
%ADD18RoundRect,0.200000X-0.200000X-0.275000X0.200000X-0.275000X0.200000X0.275000X-0.200000X0.275000X0*%
%ADD19RoundRect,0.200000X-0.275000X0.200000X-0.275000X-0.200000X0.275000X-0.200000X0.275000X0.200000X0*%
%ADD20RoundRect,0.225000X-0.250000X0.225000X-0.250000X-0.225000X0.250000X-0.225000X0.250000X0.225000X0*%
%ADD21RoundRect,0.100000X0.100000X-0.637500X0.100000X0.637500X-0.100000X0.637500X-0.100000X-0.637500X0*%
%ADD22RoundRect,0.225000X-0.225000X-0.250000X0.225000X-0.250000X0.225000X0.250000X-0.225000X0.250000X0*%
%ADD23R,1.550000X0.600000*%
%ADD24R,2.600000X3.100000*%
%ADD25RoundRect,0.250000X-1.950000X-1.000000X1.950000X-1.000000X1.950000X1.000000X-1.950000X1.000000X0*%
%ADD26RoundRect,0.250000X-0.900000X1.000000X-0.900000X-1.000000X0.900000X-1.000000X0.900000X1.000000X0*%
%ADD27RoundRect,0.375000X-0.375000X0.625000X-0.375000X-0.625000X0.375000X-0.625000X0.375000X0.625000X0*%
%ADD28RoundRect,0.500000X-1.400000X0.500000X-1.400000X-0.500000X1.400000X-0.500000X1.400000X0.500000X0*%
%ADD29R,1.500000X1.500000*%
%ADD30RoundRect,0.225000X0.225000X0.250000X-0.225000X0.250000X-0.225000X-0.250000X0.225000X-0.250000X0*%
%ADD31RoundRect,0.250000X1.000000X-1.400000X1.000000X1.400000X-1.000000X1.400000X-1.000000X-1.400000X0*%
%ADD32RoundRect,0.250000X1.000000X-1.950000X1.000000X1.950000X-1.000000X1.950000X-1.000000X-1.950000X0*%
%ADD33RoundRect,0.218750X-0.218750X-0.256250X0.218750X-0.256250X0.218750X0.256250X-0.218750X0.256250X0*%
%ADD34R,2.900000X5.400000*%
%ADD35RoundRect,0.150000X0.150000X-0.825000X0.150000X0.825000X-0.150000X0.825000X-0.150000X-0.825000X0*%
%ADD36R,4.500000X2.000000*%
G04 APERTURE END LIST*
D10*
%TO.C,U3*%
X14368750Y-9582400D03*
X14368750Y-9632400D03*
X14368750Y-9682400D03*
X14368750Y-9732400D03*
X14368750Y-9782400D03*
X14368750Y-9832400D03*
X14368750Y-9882400D03*
X14368750Y-9932400D03*
X14368750Y-9982400D03*
X14368750Y-10032400D03*
X14368750Y-10082400D03*
X14368750Y-10132400D03*
D11*
X14510000Y-10273650D03*
X14560000Y-10273650D03*
X14610000Y-10273650D03*
X14660000Y-10273650D03*
X14710000Y-10273650D03*
X14760000Y-10273650D03*
X14810000Y-10273650D03*
X14860000Y-10273650D03*
X14910000Y-10273650D03*
X14960000Y-10273650D03*
X15010000Y-10273650D03*
X15060000Y-10273650D03*
D10*
X15201250Y-10132400D03*
X15201250Y-10082400D03*
X15201250Y-10032400D03*
X15201250Y-9982400D03*
X15201250Y-9932400D03*
X15201250Y-9882400D03*
X15201250Y-9832400D03*
X15201250Y-9782400D03*
X15201250Y-9732400D03*
X15201250Y-9682400D03*
X15201250Y-9632400D03*
X15201250Y-9582400D03*
D11*
X15060000Y-9441150D03*
X15010000Y-9441150D03*
X14960000Y-9441150D03*
X14910000Y-9441150D03*
X14860000Y-9441150D03*
X14810000Y-9441150D03*
X14760000Y-9441150D03*
X14710000Y-9441150D03*
X14660000Y-9441150D03*
X14610000Y-9441150D03*
X14560000Y-9441150D03*
X14510000Y-9441150D03*
%TD*%
D12*
%TO.C,R1*%
X7205980Y-8660080D03*
X7205980Y-8495080D03*
%TD*%
D13*
%TO.C,D4*%
X10901680Y-9761220D03*
X10901680Y-9918720D03*
%TD*%
D14*
%TO.C,R9*%
X14953860Y-7695860D03*
X14788860Y-7695860D03*
%TD*%
D15*
%TO.C,C13*%
X13591200Y-10218080D03*
X13591200Y-10063080D03*
%TD*%
D14*
%TO.C,R2*%
X7548780Y-8656320D03*
X7383780Y-8656320D03*
%TD*%
D16*
%TO.C,D3*%
X9052570Y-9085580D03*
X8895070Y-9085580D03*
%TD*%
D17*
%TO.C,Q2*%
X14196220Y-8198780D03*
X14386220Y-8198780D03*
X14291220Y-8011280D03*
%TD*%
D18*
%TO.C,R13*%
X13818580Y-8518820D03*
X13983580Y-8518820D03*
%TD*%
D19*
%TO.C,R12*%
X14962800Y-8941780D03*
X14962800Y-9106780D03*
%TD*%
D15*
%TO.C,C19*%
X16841010Y-8671780D03*
X16841010Y-8516780D03*
%TD*%
D20*
%TO.C,C8*%
X10905430Y-9140160D03*
X10905430Y-9295160D03*
%TD*%
D21*
%TO.C,U4*%
X17104970Y-8897610D03*
X17169970Y-8897610D03*
X17234970Y-8897610D03*
X17299970Y-8897610D03*
X17364970Y-8897610D03*
X17429970Y-8897610D03*
X17494970Y-8897610D03*
X17559970Y-8897610D03*
X17559970Y-8325110D03*
X17494970Y-8325110D03*
X17429970Y-8325110D03*
X17364970Y-8325110D03*
X17299970Y-8325110D03*
X17234970Y-8325110D03*
X17169970Y-8325110D03*
X17104970Y-8325110D03*
%TD*%
D15*
%TO.C,C14*%
X14510680Y-9099240D03*
X14510680Y-8944240D03*
%TD*%
%TO.C,C6*%
X6410960Y-9185940D03*
X6410960Y-9030940D03*
%TD*%
D22*
%TO.C,C24*%
X17256270Y-9191450D03*
X17411270Y-9191450D03*
%TD*%
D12*
%TO.C,R7*%
X14584680Y-10727640D03*
X14584680Y-10562640D03*
%TD*%
D23*
%TO.C,U1*%
X7383580Y-9298600D03*
X7383580Y-9171600D03*
X7383580Y-9044600D03*
X7383580Y-8917600D03*
X6843580Y-8917600D03*
X6843580Y-9044600D03*
X6843580Y-9171600D03*
X6843580Y-9298600D03*
D24*
X7113580Y-9108100D03*
%TD*%
D15*
%TO.C,C11*%
X10064690Y-9302780D03*
X10064690Y-9147780D03*
%TD*%
D20*
%TO.C,C17*%
X16829570Y-9530510D03*
X16829570Y-9685510D03*
%TD*%
%TO.C,C22*%
X16837190Y-10180750D03*
X16837190Y-10335750D03*
%TD*%
D25*
%TO.C,C2*%
X8246480Y-8161020D03*
X9086480Y-8161020D03*
%TD*%
D26*
%TO.C,D1*%
X5600700Y-8847720D03*
X5600700Y-9277720D03*
%TD*%
D12*
%TO.C,R10*%
X14812940Y-8644500D03*
X14812940Y-8479500D03*
%TD*%
D20*
%TO.C,C16*%
X15534300Y-9477640D03*
X15534300Y-9632640D03*
%TD*%
D27*
%TO.C,U2*%
X10534780Y-9624020D03*
X10304780Y-9624020D03*
D28*
X10304780Y-10254020D03*
D27*
X10074780Y-9624020D03*
%TD*%
D29*
%TO.C,SW1*%
X12411260Y-10065680D03*
X13191260Y-10065680D03*
%TD*%
D30*
%TO.C,C15*%
X15164760Y-10708300D03*
X15009760Y-10708300D03*
%TD*%
D20*
%TO.C,C9*%
X10537130Y-9145240D03*
X10537130Y-9300240D03*
%TD*%
D14*
%TO.C,R3*%
X8401000Y-9085580D03*
X8236000Y-9085580D03*
%TD*%
D22*
%TO.C,C23*%
X17069610Y-7991000D03*
X17224610Y-7991000D03*
%TD*%
D15*
%TO.C,C18*%
X17836690Y-8661890D03*
X17836690Y-8506890D03*
%TD*%
D30*
%TO.C,C20*%
X12944800Y-8925220D03*
X12789800Y-8925220D03*
%TD*%
D15*
%TO.C,C5*%
X6103620Y-9185940D03*
X6103620Y-9030940D03*
%TD*%
D31*
%TO.C,D2*%
X6479900Y-10058400D03*
X7159900Y-10058400D03*
%TD*%
D12*
%TO.C,R6*%
X14388760Y-8635660D03*
X14388760Y-8470660D03*
%TD*%
D19*
%TO.C,R11*%
X10904220Y-10138460D03*
X10904220Y-10303460D03*
%TD*%
D20*
%TO.C,C7*%
X7759700Y-9302720D03*
X7759700Y-9457720D03*
%TD*%
D17*
%TO.C,Q1*%
X14795160Y-8200860D03*
X14985160Y-8200860D03*
X14890160Y-8013360D03*
%TD*%
D15*
%TO.C,C10*%
X9660830Y-9302780D03*
X9660830Y-9147780D03*
%TD*%
D14*
%TO.C,R4*%
X16002880Y-8965860D03*
X15837880Y-8965860D03*
%TD*%
D32*
%TO.C,C4*%
X11724640Y-9778310D03*
X11724640Y-8938310D03*
%TD*%
D33*
%TO.C,D5*%
X13230500Y-8518820D03*
X13388000Y-8518820D03*
%TD*%
D15*
%TO.C,C12*%
X14007760Y-10218080D03*
X14007760Y-10063080D03*
%TD*%
D18*
%TO.C,R8*%
X14195820Y-7700940D03*
X14360820Y-7700940D03*
%TD*%
D22*
%TO.C,C3*%
X12741540Y-10370480D03*
X12896540Y-10370480D03*
%TD*%
%TO.C,C25*%
X16899370Y-9188910D03*
X17054370Y-9188910D03*
%TD*%
D14*
%TO.C,R5*%
X15454240Y-8965860D03*
X15289240Y-8965860D03*
%TD*%
D34*
%TO.C,L1*%
X8206880Y-10048240D03*
X9176880Y-10048240D03*
%TD*%
D30*
%TO.C,C1*%
X7540020Y-8310880D03*
X7385020Y-8310880D03*
%TD*%
D35*
%TO.C,U5*%
X17151030Y-10180630D03*
X17278030Y-10180630D03*
X17405030Y-10180630D03*
X17532030Y-10180630D03*
X17532030Y-9685630D03*
X17405030Y-9685630D03*
X17278030Y-9685630D03*
X17151030Y-9685630D03*
%TD*%
D22*
%TO.C,C21*%
X13480680Y-8922680D03*
X13635680Y-8922680D03*
%TD*%
D36*
%TO.C,Y1*%
X13637740Y-9397660D03*
X12787740Y-9397660D03*
%TD*%
M02*
