%TF.GenerationSoftware,KiCad,Pcbnew,8.0.2*%
%TF.CreationDate,2024-08-08T08:25:32+03:00*%
%TF.ProjectId,______________ SMD,21323542-3e43-43a3-9037-3042353b4c20,rev?*%
%TF.SameCoordinates,Original*%
%TF.FileFunction,Drillmap*%
%TF.FilePolarity,Positive*%
%FSLAX45Y45*%
G04 Gerber Fmt 4.5, Leading zero omitted, Abs format (unit mm)*
G04 Created by KiCad (PCBNEW 8.0.2) date 2024-08-08 08:25:32*
%MOMM*%
%LPD*%
G01*
G04 APERTURE LIST*
%ADD10C,0.200000*%
%ADD11C,0.100000*%
%ADD12C,0.175000*%
%ADD13C,0.300000*%
G04 APERTURE END LIST*
D10*
X4330700Y-7383780D02*
X19077940Y-7383780D01*
X19077940Y-10952480D01*
X4330700Y-10952480D01*
X4330700Y-7383780D01*
D11*
X12395100Y-10355480D02*
X12425100Y-10385480D01*
X12425100Y-10355480D02*
X12395100Y-10385480D01*
X13030100Y-8503820D02*
X13060100Y-8533820D01*
X13060100Y-8503820D02*
X13030100Y-8533820D01*
X13108840Y-8910220D02*
X13138840Y-8940220D01*
X13138840Y-8910220D02*
X13108840Y-8940220D01*
X13301880Y-8907680D02*
X13331880Y-8937680D01*
X13331880Y-8907680D02*
X13301880Y-8937680D01*
X13781940Y-10050680D02*
X13811940Y-10080680D01*
X13811940Y-10050680D02*
X13781940Y-10080680D01*
X14041020Y-7995820D02*
X14071020Y-8025820D01*
X14071020Y-7995820D02*
X14041020Y-8025820D01*
X14373760Y-8808960D02*
X14403760Y-8838960D01*
X14403760Y-8808960D02*
X14373760Y-8838960D01*
X14526160Y-9918600D02*
X14556160Y-9948600D01*
X14556160Y-9918600D02*
X14526160Y-9948600D01*
X14559180Y-7688480D02*
X14589180Y-7718480D01*
X14589180Y-7688480D02*
X14559180Y-7718480D01*
X14630300Y-9613800D02*
X14660300Y-9643800D01*
X14660300Y-9613800D02*
X14630300Y-9643800D01*
X14670940Y-9085480D02*
X14700940Y-9115480D01*
X14700940Y-9085480D02*
X14670940Y-9115480D01*
X14797940Y-8773060D02*
X14827940Y-8803060D01*
X14827940Y-8773060D02*
X14797940Y-8803060D01*
X14858900Y-9220100D02*
X14888900Y-9250100D01*
X14888900Y-9220100D02*
X14858900Y-9250100D01*
X14907160Y-9286140D02*
X14937160Y-9316140D01*
X14937160Y-9286140D02*
X14907160Y-9316140D01*
X14945260Y-10071000D02*
X14975260Y-10101000D01*
X14975260Y-10071000D02*
X14945260Y-10101000D01*
X14985900Y-9656980D02*
X15015900Y-9686980D01*
X15015900Y-9656980D02*
X14985900Y-9686980D01*
X15120520Y-7998360D02*
X15150520Y-8028360D01*
X15150520Y-7998360D02*
X15120520Y-8028360D01*
X15274240Y-9096960D02*
X15304240Y-9126960D01*
X15304240Y-9096960D02*
X15274240Y-9126960D01*
X15298660Y-10259300D02*
X15328660Y-10289300D01*
X15328660Y-10259300D02*
X15298660Y-10289300D01*
X15308480Y-10695840D02*
X15338480Y-10725840D01*
X15338480Y-10695840D02*
X15308480Y-10725840D01*
X15532000Y-9794140D02*
X15562000Y-9824140D01*
X15562000Y-9794140D02*
X15532000Y-9824140D01*
X15692020Y-9618880D02*
X15722020Y-9648880D01*
X15722020Y-9618880D02*
X15692020Y-9648880D01*
X15822880Y-9099400D02*
X15852880Y-9129400D01*
X15852880Y-9099400D02*
X15822880Y-9129400D01*
X16550880Y-10320260D02*
X16580880Y-10350260D01*
X16580880Y-10320260D02*
X16550880Y-10350260D01*
X16813310Y-9377110D02*
X16843310Y-9407110D01*
X16843310Y-9377110D02*
X16813310Y-9407110D01*
X16878540Y-9990060D02*
X16908540Y-10020060D01*
X16908540Y-9990060D02*
X16878540Y-10020060D01*
X16903940Y-10614900D02*
X16933940Y-10644900D01*
X16933940Y-10614900D02*
X16903940Y-10644900D01*
X16954270Y-9831770D02*
X16984270Y-9861770D01*
X16984270Y-9831770D02*
X16954270Y-9861770D01*
X16960630Y-8500810D02*
X16990630Y-8530810D01*
X16990630Y-8500810D02*
X16960630Y-8530810D01*
X17090170Y-8135050D02*
X17120170Y-8165050D01*
X17120170Y-8135050D02*
X17090170Y-8165050D01*
X17212090Y-7837870D02*
X17242090Y-7867870D01*
X17242090Y-7837870D02*
X17212090Y-7867870D01*
X17261610Y-9427910D02*
X17291610Y-9457910D01*
X17291610Y-9427910D02*
X17261610Y-9457910D01*
X17269700Y-10619980D02*
X17299700Y-10649980D01*
X17299700Y-10619980D02*
X17269700Y-10649980D01*
X17349970Y-8450010D02*
X17379970Y-8480010D01*
X17379970Y-8450010D02*
X17349970Y-8480010D01*
X17391150Y-9427910D02*
X17421150Y-9457910D01*
X17421150Y-9427910D02*
X17391150Y-9457910D01*
X17414970Y-8531290D02*
X17444970Y-8561290D01*
X17444970Y-8531290D02*
X17414970Y-8561290D01*
X17604980Y-9355060D02*
X17634980Y-9385060D01*
X17634980Y-9355060D02*
X17604980Y-9385060D01*
X17820880Y-8323820D02*
X17850880Y-8353820D01*
X17850880Y-8323820D02*
X17820880Y-8353820D01*
X7068580Y-8928100D02*
G75*
G02*
X7038580Y-8928100I-15000J0D01*
G01*
X7038580Y-8928100D02*
G75*
G02*
X7068580Y-8928100I15000J0D01*
G01*
X7068580Y-9038100D02*
G75*
G02*
X7038580Y-9038100I-15000J0D01*
G01*
X7038580Y-9038100D02*
G75*
G02*
X7068580Y-9038100I15000J0D01*
G01*
X7068580Y-9168100D02*
G75*
G02*
X7038580Y-9168100I-15000J0D01*
G01*
X7038580Y-9168100D02*
G75*
G02*
X7068580Y-9168100I15000J0D01*
G01*
X7068580Y-9288100D02*
G75*
G02*
X7038580Y-9288100I-15000J0D01*
G01*
X7038580Y-9288100D02*
G75*
G02*
X7068580Y-9288100I15000J0D01*
G01*
X7188580Y-8928100D02*
G75*
G02*
X7158580Y-8928100I-15000J0D01*
G01*
X7158580Y-8928100D02*
G75*
G02*
X7188580Y-8928100I15000J0D01*
G01*
X7188580Y-9038100D02*
G75*
G02*
X7158580Y-9038100I-15000J0D01*
G01*
X7158580Y-9038100D02*
G75*
G02*
X7188580Y-9038100I15000J0D01*
G01*
X7188580Y-9168100D02*
G75*
G02*
X7158580Y-9168100I-15000J0D01*
G01*
X7158580Y-9168100D02*
G75*
G02*
X7188580Y-9168100I15000J0D01*
G01*
X7188580Y-9288100D02*
G75*
G02*
X7158580Y-9288100I-15000J0D01*
G01*
X7158580Y-9288100D02*
G75*
G02*
X7188580Y-9288100I15000J0D01*
G01*
X5514340Y-8484000D02*
X5514340Y-8534000D01*
X5489340Y-8509000D02*
X5539340Y-8509000D01*
X5676900Y-8484000D02*
X5676900Y-8534000D01*
X5651900Y-8509000D02*
X5701900Y-8509000D01*
X6263640Y-8852300D02*
X6263640Y-8902300D01*
X6238640Y-8877300D02*
X6288640Y-8877300D01*
X6911340Y-8468760D02*
X6911340Y-8518760D01*
X6886340Y-8493760D02*
X6936340Y-8493760D01*
X7386320Y-8049660D02*
X7386320Y-8099660D01*
X7361320Y-8074660D02*
X7411320Y-8074660D01*
X7490460Y-9949580D02*
X7490460Y-9999580D01*
X7465460Y-9974580D02*
X7515460Y-9974580D01*
X7490460Y-10112140D02*
X7490460Y-10162140D01*
X7465460Y-10137140D02*
X7515460Y-10137140D01*
X9237980Y-9060580D02*
X9237980Y-9110580D01*
X9212980Y-9085580D02*
X9262980Y-9085580D01*
X9458960Y-8049660D02*
X9458960Y-8099660D01*
X9433960Y-8074660D02*
X9483960Y-8074660D01*
X9458960Y-8212220D02*
X9458960Y-8262220D01*
X9433960Y-8237220D02*
X9483960Y-8237220D01*
X9836090Y-8895480D02*
X9836090Y-8945480D01*
X9811090Y-8920480D02*
X9861090Y-8920480D01*
X10902890Y-9576200D02*
X10902890Y-9626200D01*
X10877890Y-9601200D02*
X10927890Y-9601200D01*
X11722100Y-8263020D02*
X11722100Y-8313020D01*
X11697100Y-8288020D02*
X11747100Y-8288020D01*
X15326816Y-8610056D02*
X15326816Y-8539344D01*
X15256104Y-8539344D01*
X15256104Y-8610056D01*
X15326816Y-8610056D01*
X15580816Y-8610056D02*
X15580816Y-8539344D01*
X15510104Y-8539344D01*
X15510104Y-8610056D01*
X15580816Y-8610056D01*
X15834816Y-8610056D02*
X15834816Y-8539344D01*
X15764104Y-8539344D01*
X15764104Y-8610056D01*
X15834816Y-8610056D01*
X16088816Y-8610056D02*
X16088816Y-8539344D01*
X16018104Y-8539344D01*
X16018104Y-8610056D01*
X16088816Y-8610056D01*
D12*
X18516600Y-8509920D02*
X18604100Y-8422420D01*
X18516600Y-8334920D01*
X18429100Y-8422420D01*
X18516600Y-8509920D01*
X18516600Y-9289920D02*
X18604100Y-9202420D01*
X18516600Y-9114920D01*
X18429100Y-9202420D01*
X18516600Y-9289920D01*
X18516600Y-10069920D02*
X18604100Y-9982420D01*
X18516600Y-9894920D01*
X18429100Y-9982420D01*
X18516600Y-10069920D01*
D13*
X4635360Y-8290420D02*
X4935360Y-8590420D01*
X4935360Y-8290420D02*
X4635360Y-8590420D01*
X4935360Y-8440420D02*
G75*
G02*
X4635360Y-8440420I-150000J0D01*
G01*
X4635360Y-8440420D02*
G75*
G02*
X4935360Y-8440420I150000J0D01*
G01*
X4635360Y-9509620D02*
X4935360Y-9809620D01*
X4935360Y-9509620D02*
X4635360Y-9809620D01*
X4935360Y-9659620D02*
G75*
G02*
X4635360Y-9659620I-150000J0D01*
G01*
X4635360Y-9659620D02*
G75*
G02*
X4935360Y-9659620I150000J0D01*
G01*
X10030320Y-7693520D02*
X10330320Y-7993520D01*
X10330320Y-7693520D02*
X10030320Y-7993520D01*
X10330320Y-7843520D02*
G75*
G02*
X10030320Y-7843520I-150000J0D01*
G01*
X10030320Y-7843520D02*
G75*
G02*
X10330320Y-7843520I150000J0D01*
G01*
X11132680Y-7696060D02*
X11432680Y-7996060D01*
X11432680Y-7696060D02*
X11132680Y-7996060D01*
X11432680Y-7846060D02*
G75*
G02*
X11132680Y-7846060I-150000J0D01*
G01*
X11132680Y-7846060D02*
G75*
G02*
X11432680Y-7846060I150000J0D01*
G01*
X13504700Y-7652540D02*
X13804700Y-7952540D01*
X13804700Y-7652540D02*
X13504700Y-7952540D01*
X13804700Y-7802540D02*
G75*
G02*
X13504700Y-7802540I-150000J0D01*
G01*
X13504700Y-7802540D02*
G75*
G02*
X13804700Y-7802540I150000J0D01*
G01*
X15371600Y-7650000D02*
X15671600Y-7950000D01*
X15671600Y-7650000D02*
X15371600Y-7950000D01*
X15671600Y-7800000D02*
G75*
G02*
X15371600Y-7800000I-150000J0D01*
G01*
X15371600Y-7800000D02*
G75*
G02*
X15671600Y-7800000I150000J0D01*
G01*
D10*
X4581477Y-11273964D02*
X4581477Y-11073964D01*
X4581477Y-11073964D02*
X4629096Y-11073964D01*
X4629096Y-11073964D02*
X4657667Y-11083488D01*
X4657667Y-11083488D02*
X4676715Y-11102535D01*
X4676715Y-11102535D02*
X4686239Y-11121583D01*
X4686239Y-11121583D02*
X4695763Y-11159678D01*
X4695763Y-11159678D02*
X4695763Y-11188249D01*
X4695763Y-11188249D02*
X4686239Y-11226345D01*
X4686239Y-11226345D02*
X4676715Y-11245392D01*
X4676715Y-11245392D02*
X4657667Y-11264440D01*
X4657667Y-11264440D02*
X4629096Y-11273964D01*
X4629096Y-11273964D02*
X4581477Y-11273964D01*
X4781477Y-11273964D02*
X4781477Y-11140630D01*
X4781477Y-11178726D02*
X4791001Y-11159678D01*
X4791001Y-11159678D02*
X4800524Y-11150154D01*
X4800524Y-11150154D02*
X4819572Y-11140630D01*
X4819572Y-11140630D02*
X4838620Y-11140630D01*
X4905286Y-11273964D02*
X4905286Y-11140630D01*
X4905286Y-11073964D02*
X4895763Y-11083488D01*
X4895763Y-11083488D02*
X4905286Y-11093011D01*
X4905286Y-11093011D02*
X4914810Y-11083488D01*
X4914810Y-11083488D02*
X4905286Y-11073964D01*
X4905286Y-11073964D02*
X4905286Y-11093011D01*
X5029096Y-11273964D02*
X5010048Y-11264440D01*
X5010048Y-11264440D02*
X5000524Y-11245392D01*
X5000524Y-11245392D02*
X5000524Y-11073964D01*
X5133858Y-11273964D02*
X5114810Y-11264440D01*
X5114810Y-11264440D02*
X5105286Y-11245392D01*
X5105286Y-11245392D02*
X5105286Y-11073964D01*
X5362429Y-11273964D02*
X5362429Y-11073964D01*
X5362429Y-11073964D02*
X5429096Y-11216821D01*
X5429096Y-11216821D02*
X5495763Y-11073964D01*
X5495763Y-11073964D02*
X5495763Y-11273964D01*
X5676715Y-11273964D02*
X5676715Y-11169202D01*
X5676715Y-11169202D02*
X5667191Y-11150154D01*
X5667191Y-11150154D02*
X5648143Y-11140630D01*
X5648143Y-11140630D02*
X5610048Y-11140630D01*
X5610048Y-11140630D02*
X5591001Y-11150154D01*
X5676715Y-11264440D02*
X5657667Y-11273964D01*
X5657667Y-11273964D02*
X5610048Y-11273964D01*
X5610048Y-11273964D02*
X5591001Y-11264440D01*
X5591001Y-11264440D02*
X5581477Y-11245392D01*
X5581477Y-11245392D02*
X5581477Y-11226345D01*
X5581477Y-11226345D02*
X5591001Y-11207297D01*
X5591001Y-11207297D02*
X5610048Y-11197773D01*
X5610048Y-11197773D02*
X5657667Y-11197773D01*
X5657667Y-11197773D02*
X5676715Y-11188249D01*
X5771953Y-11140630D02*
X5771953Y-11340630D01*
X5771953Y-11150154D02*
X5791001Y-11140630D01*
X5791001Y-11140630D02*
X5829096Y-11140630D01*
X5829096Y-11140630D02*
X5848143Y-11150154D01*
X5848143Y-11150154D02*
X5857667Y-11159678D01*
X5857667Y-11159678D02*
X5867191Y-11178726D01*
X5867191Y-11178726D02*
X5867191Y-11235868D01*
X5867191Y-11235868D02*
X5857667Y-11254916D01*
X5857667Y-11254916D02*
X5848143Y-11264440D01*
X5848143Y-11264440D02*
X5829096Y-11273964D01*
X5829096Y-11273964D02*
X5791001Y-11273964D01*
X5791001Y-11273964D02*
X5771953Y-11264440D01*
X5952905Y-11254916D02*
X5962429Y-11264440D01*
X5962429Y-11264440D02*
X5952905Y-11273964D01*
X5952905Y-11273964D02*
X5943382Y-11264440D01*
X5943382Y-11264440D02*
X5952905Y-11254916D01*
X5952905Y-11254916D02*
X5952905Y-11273964D01*
X5952905Y-11150154D02*
X5962429Y-11159678D01*
X5962429Y-11159678D02*
X5952905Y-11169202D01*
X5952905Y-11169202D02*
X5943382Y-11159678D01*
X5943382Y-11159678D02*
X5952905Y-11150154D01*
X5952905Y-11150154D02*
X5952905Y-11169202D01*
D11*
X4290700Y-11587480D02*
X4320700Y-11617480D01*
X4320700Y-11587480D02*
X4290700Y-11617480D01*
D10*
X4619572Y-11493964D02*
X4638620Y-11493964D01*
X4638620Y-11493964D02*
X4657667Y-11503488D01*
X4657667Y-11503488D02*
X4667191Y-11513011D01*
X4667191Y-11513011D02*
X4676715Y-11532059D01*
X4676715Y-11532059D02*
X4686239Y-11570154D01*
X4686239Y-11570154D02*
X4686239Y-11617773D01*
X4686239Y-11617773D02*
X4676715Y-11655868D01*
X4676715Y-11655868D02*
X4667191Y-11674916D01*
X4667191Y-11674916D02*
X4657667Y-11684440D01*
X4657667Y-11684440D02*
X4638620Y-11693964D01*
X4638620Y-11693964D02*
X4619572Y-11693964D01*
X4619572Y-11693964D02*
X4600524Y-11684440D01*
X4600524Y-11684440D02*
X4591001Y-11674916D01*
X4591001Y-11674916D02*
X4581477Y-11655868D01*
X4581477Y-11655868D02*
X4571953Y-11617773D01*
X4571953Y-11617773D02*
X4571953Y-11570154D01*
X4571953Y-11570154D02*
X4581477Y-11532059D01*
X4581477Y-11532059D02*
X4591001Y-11513011D01*
X4591001Y-11513011D02*
X4600524Y-11503488D01*
X4600524Y-11503488D02*
X4619572Y-11493964D01*
X4771953Y-11674916D02*
X4781477Y-11684440D01*
X4781477Y-11684440D02*
X4771953Y-11693964D01*
X4771953Y-11693964D02*
X4762429Y-11684440D01*
X4762429Y-11684440D02*
X4771953Y-11674916D01*
X4771953Y-11674916D02*
X4771953Y-11693964D01*
X4848144Y-11493964D02*
X4971953Y-11493964D01*
X4971953Y-11493964D02*
X4905286Y-11570154D01*
X4905286Y-11570154D02*
X4933858Y-11570154D01*
X4933858Y-11570154D02*
X4952905Y-11579678D01*
X4952905Y-11579678D02*
X4962429Y-11589202D01*
X4962429Y-11589202D02*
X4971953Y-11608249D01*
X4971953Y-11608249D02*
X4971953Y-11655868D01*
X4971953Y-11655868D02*
X4962429Y-11674916D01*
X4962429Y-11674916D02*
X4952905Y-11684440D01*
X4952905Y-11684440D02*
X4933858Y-11693964D01*
X4933858Y-11693964D02*
X4876715Y-11693964D01*
X4876715Y-11693964D02*
X4857667Y-11684440D01*
X4857667Y-11684440D02*
X4848144Y-11674916D01*
X5095763Y-11493964D02*
X5114810Y-11493964D01*
X5114810Y-11493964D02*
X5133858Y-11503488D01*
X5133858Y-11503488D02*
X5143382Y-11513011D01*
X5143382Y-11513011D02*
X5152905Y-11532059D01*
X5152905Y-11532059D02*
X5162429Y-11570154D01*
X5162429Y-11570154D02*
X5162429Y-11617773D01*
X5162429Y-11617773D02*
X5152905Y-11655868D01*
X5152905Y-11655868D02*
X5143382Y-11674916D01*
X5143382Y-11674916D02*
X5133858Y-11684440D01*
X5133858Y-11684440D02*
X5114810Y-11693964D01*
X5114810Y-11693964D02*
X5095763Y-11693964D01*
X5095763Y-11693964D02*
X5076715Y-11684440D01*
X5076715Y-11684440D02*
X5067191Y-11674916D01*
X5067191Y-11674916D02*
X5057667Y-11655868D01*
X5057667Y-11655868D02*
X5048144Y-11617773D01*
X5048144Y-11617773D02*
X5048144Y-11570154D01*
X5048144Y-11570154D02*
X5057667Y-11532059D01*
X5057667Y-11532059D02*
X5067191Y-11513011D01*
X5067191Y-11513011D02*
X5076715Y-11503488D01*
X5076715Y-11503488D02*
X5095763Y-11493964D01*
X5286239Y-11493964D02*
X5305286Y-11493964D01*
X5305286Y-11493964D02*
X5324334Y-11503488D01*
X5324334Y-11503488D02*
X5333858Y-11513011D01*
X5333858Y-11513011D02*
X5343382Y-11532059D01*
X5343382Y-11532059D02*
X5352905Y-11570154D01*
X5352905Y-11570154D02*
X5352905Y-11617773D01*
X5352905Y-11617773D02*
X5343382Y-11655868D01*
X5343382Y-11655868D02*
X5333858Y-11674916D01*
X5333858Y-11674916D02*
X5324334Y-11684440D01*
X5324334Y-11684440D02*
X5305286Y-11693964D01*
X5305286Y-11693964D02*
X5286239Y-11693964D01*
X5286239Y-11693964D02*
X5267191Y-11684440D01*
X5267191Y-11684440D02*
X5257667Y-11674916D01*
X5257667Y-11674916D02*
X5248144Y-11655868D01*
X5248144Y-11655868D02*
X5238620Y-11617773D01*
X5238620Y-11617773D02*
X5238620Y-11570154D01*
X5238620Y-11570154D02*
X5248144Y-11532059D01*
X5248144Y-11532059D02*
X5257667Y-11513011D01*
X5257667Y-11513011D02*
X5267191Y-11503488D01*
X5267191Y-11503488D02*
X5286239Y-11493964D01*
X5438620Y-11693964D02*
X5438620Y-11560630D01*
X5438620Y-11579678D02*
X5448144Y-11570154D01*
X5448144Y-11570154D02*
X5467191Y-11560630D01*
X5467191Y-11560630D02*
X5495763Y-11560630D01*
X5495763Y-11560630D02*
X5514810Y-11570154D01*
X5514810Y-11570154D02*
X5524334Y-11589202D01*
X5524334Y-11589202D02*
X5524334Y-11693964D01*
X5524334Y-11589202D02*
X5533858Y-11570154D01*
X5533858Y-11570154D02*
X5552905Y-11560630D01*
X5552905Y-11560630D02*
X5581477Y-11560630D01*
X5581477Y-11560630D02*
X5600524Y-11570154D01*
X5600524Y-11570154D02*
X5610048Y-11589202D01*
X5610048Y-11589202D02*
X5610048Y-11693964D01*
X5705286Y-11693964D02*
X5705286Y-11560630D01*
X5705286Y-11579678D02*
X5714810Y-11570154D01*
X5714810Y-11570154D02*
X5733858Y-11560630D01*
X5733858Y-11560630D02*
X5762429Y-11560630D01*
X5762429Y-11560630D02*
X5781477Y-11570154D01*
X5781477Y-11570154D02*
X5791001Y-11589202D01*
X5791001Y-11589202D02*
X5791001Y-11693964D01*
X5791001Y-11589202D02*
X5800524Y-11570154D01*
X5800524Y-11570154D02*
X5819572Y-11560630D01*
X5819572Y-11560630D02*
X5848143Y-11560630D01*
X5848143Y-11560630D02*
X5867191Y-11570154D01*
X5867191Y-11570154D02*
X5876715Y-11589202D01*
X5876715Y-11589202D02*
X5876715Y-11693964D01*
X6267191Y-11484440D02*
X6095763Y-11741583D01*
X6524334Y-11493964D02*
X6543382Y-11493964D01*
X6543382Y-11493964D02*
X6562429Y-11503488D01*
X6562429Y-11503488D02*
X6571953Y-11513011D01*
X6571953Y-11513011D02*
X6581477Y-11532059D01*
X6581477Y-11532059D02*
X6591001Y-11570154D01*
X6591001Y-11570154D02*
X6591001Y-11617773D01*
X6591001Y-11617773D02*
X6581477Y-11655868D01*
X6581477Y-11655868D02*
X6571953Y-11674916D01*
X6571953Y-11674916D02*
X6562429Y-11684440D01*
X6562429Y-11684440D02*
X6543382Y-11693964D01*
X6543382Y-11693964D02*
X6524334Y-11693964D01*
X6524334Y-11693964D02*
X6505286Y-11684440D01*
X6505286Y-11684440D02*
X6495763Y-11674916D01*
X6495763Y-11674916D02*
X6486239Y-11655868D01*
X6486239Y-11655868D02*
X6476715Y-11617773D01*
X6476715Y-11617773D02*
X6476715Y-11570154D01*
X6476715Y-11570154D02*
X6486239Y-11532059D01*
X6486239Y-11532059D02*
X6495763Y-11513011D01*
X6495763Y-11513011D02*
X6505286Y-11503488D01*
X6505286Y-11503488D02*
X6524334Y-11493964D01*
X6676715Y-11674916D02*
X6686239Y-11684440D01*
X6686239Y-11684440D02*
X6676715Y-11693964D01*
X6676715Y-11693964D02*
X6667191Y-11684440D01*
X6667191Y-11684440D02*
X6676715Y-11674916D01*
X6676715Y-11674916D02*
X6676715Y-11693964D01*
X6810048Y-11493964D02*
X6829096Y-11493964D01*
X6829096Y-11493964D02*
X6848144Y-11503488D01*
X6848144Y-11503488D02*
X6857667Y-11513011D01*
X6857667Y-11513011D02*
X6867191Y-11532059D01*
X6867191Y-11532059D02*
X6876715Y-11570154D01*
X6876715Y-11570154D02*
X6876715Y-11617773D01*
X6876715Y-11617773D02*
X6867191Y-11655868D01*
X6867191Y-11655868D02*
X6857667Y-11674916D01*
X6857667Y-11674916D02*
X6848144Y-11684440D01*
X6848144Y-11684440D02*
X6829096Y-11693964D01*
X6829096Y-11693964D02*
X6810048Y-11693964D01*
X6810048Y-11693964D02*
X6791001Y-11684440D01*
X6791001Y-11684440D02*
X6781477Y-11674916D01*
X6781477Y-11674916D02*
X6771953Y-11655868D01*
X6771953Y-11655868D02*
X6762429Y-11617773D01*
X6762429Y-11617773D02*
X6762429Y-11570154D01*
X6762429Y-11570154D02*
X6771953Y-11532059D01*
X6771953Y-11532059D02*
X6781477Y-11513011D01*
X6781477Y-11513011D02*
X6791001Y-11503488D01*
X6791001Y-11503488D02*
X6810048Y-11493964D01*
X7067191Y-11693964D02*
X6952906Y-11693964D01*
X7010048Y-11693964D02*
X7010048Y-11493964D01*
X7010048Y-11493964D02*
X6991001Y-11522535D01*
X6991001Y-11522535D02*
X6971953Y-11541583D01*
X6971953Y-11541583D02*
X6952906Y-11551107D01*
X7257667Y-11693964D02*
X7143382Y-11693964D01*
X7200525Y-11693964D02*
X7200525Y-11493964D01*
X7200525Y-11493964D02*
X7181477Y-11522535D01*
X7181477Y-11522535D02*
X7162429Y-11541583D01*
X7162429Y-11541583D02*
X7143382Y-11551107D01*
X7371953Y-11579678D02*
X7352906Y-11570154D01*
X7352906Y-11570154D02*
X7343382Y-11560630D01*
X7343382Y-11560630D02*
X7333858Y-11541583D01*
X7333858Y-11541583D02*
X7333858Y-11532059D01*
X7333858Y-11532059D02*
X7343382Y-11513011D01*
X7343382Y-11513011D02*
X7352906Y-11503488D01*
X7352906Y-11503488D02*
X7371953Y-11493964D01*
X7371953Y-11493964D02*
X7410048Y-11493964D01*
X7410048Y-11493964D02*
X7429096Y-11503488D01*
X7429096Y-11503488D02*
X7438620Y-11513011D01*
X7438620Y-11513011D02*
X7448144Y-11532059D01*
X7448144Y-11532059D02*
X7448144Y-11541583D01*
X7448144Y-11541583D02*
X7438620Y-11560630D01*
X7438620Y-11560630D02*
X7429096Y-11570154D01*
X7429096Y-11570154D02*
X7410048Y-11579678D01*
X7410048Y-11579678D02*
X7371953Y-11579678D01*
X7371953Y-11579678D02*
X7352906Y-11589202D01*
X7352906Y-11589202D02*
X7343382Y-11598726D01*
X7343382Y-11598726D02*
X7333858Y-11617773D01*
X7333858Y-11617773D02*
X7333858Y-11655868D01*
X7333858Y-11655868D02*
X7343382Y-11674916D01*
X7343382Y-11674916D02*
X7352906Y-11684440D01*
X7352906Y-11684440D02*
X7371953Y-11693964D01*
X7371953Y-11693964D02*
X7410048Y-11693964D01*
X7410048Y-11693964D02*
X7429096Y-11684440D01*
X7429096Y-11684440D02*
X7438620Y-11674916D01*
X7438620Y-11674916D02*
X7448144Y-11655868D01*
X7448144Y-11655868D02*
X7448144Y-11617773D01*
X7448144Y-11617773D02*
X7438620Y-11598726D01*
X7438620Y-11598726D02*
X7429096Y-11589202D01*
X7429096Y-11589202D02*
X7410048Y-11579678D01*
X7524334Y-11493964D02*
X7524334Y-11532059D01*
X7600525Y-11493964D02*
X7600525Y-11532059D01*
X7895763Y-11770154D02*
X7886239Y-11760630D01*
X7886239Y-11760630D02*
X7867191Y-11732059D01*
X7867191Y-11732059D02*
X7857668Y-11713011D01*
X7857668Y-11713011D02*
X7848144Y-11684440D01*
X7848144Y-11684440D02*
X7838620Y-11636821D01*
X7838620Y-11636821D02*
X7838620Y-11598726D01*
X7838620Y-11598726D02*
X7848144Y-11551107D01*
X7848144Y-11551107D02*
X7857668Y-11522535D01*
X7857668Y-11522535D02*
X7867191Y-11503488D01*
X7867191Y-11503488D02*
X7886239Y-11474916D01*
X7886239Y-11474916D02*
X7895763Y-11465392D01*
X7952906Y-11493964D02*
X8076715Y-11493964D01*
X8076715Y-11493964D02*
X8010048Y-11570154D01*
X8010048Y-11570154D02*
X8038620Y-11570154D01*
X8038620Y-11570154D02*
X8057668Y-11579678D01*
X8057668Y-11579678D02*
X8067191Y-11589202D01*
X8067191Y-11589202D02*
X8076715Y-11608249D01*
X8076715Y-11608249D02*
X8076715Y-11655868D01*
X8076715Y-11655868D02*
X8067191Y-11674916D01*
X8067191Y-11674916D02*
X8057668Y-11684440D01*
X8057668Y-11684440D02*
X8038620Y-11693964D01*
X8038620Y-11693964D02*
X7981477Y-11693964D01*
X7981477Y-11693964D02*
X7962429Y-11684440D01*
X7962429Y-11684440D02*
X7952906Y-11674916D01*
X8191001Y-11579678D02*
X8171953Y-11570154D01*
X8171953Y-11570154D02*
X8162429Y-11560630D01*
X8162429Y-11560630D02*
X8152906Y-11541583D01*
X8152906Y-11541583D02*
X8152906Y-11532059D01*
X8152906Y-11532059D02*
X8162429Y-11513011D01*
X8162429Y-11513011D02*
X8171953Y-11503488D01*
X8171953Y-11503488D02*
X8191001Y-11493964D01*
X8191001Y-11493964D02*
X8229096Y-11493964D01*
X8229096Y-11493964D02*
X8248144Y-11503488D01*
X8248144Y-11503488D02*
X8257668Y-11513011D01*
X8257668Y-11513011D02*
X8267191Y-11532059D01*
X8267191Y-11532059D02*
X8267191Y-11541583D01*
X8267191Y-11541583D02*
X8257668Y-11560630D01*
X8257668Y-11560630D02*
X8248144Y-11570154D01*
X8248144Y-11570154D02*
X8229096Y-11579678D01*
X8229096Y-11579678D02*
X8191001Y-11579678D01*
X8191001Y-11579678D02*
X8171953Y-11589202D01*
X8171953Y-11589202D02*
X8162429Y-11598726D01*
X8162429Y-11598726D02*
X8152906Y-11617773D01*
X8152906Y-11617773D02*
X8152906Y-11655868D01*
X8152906Y-11655868D02*
X8162429Y-11674916D01*
X8162429Y-11674916D02*
X8171953Y-11684440D01*
X8171953Y-11684440D02*
X8191001Y-11693964D01*
X8191001Y-11693964D02*
X8229096Y-11693964D01*
X8229096Y-11693964D02*
X8248144Y-11684440D01*
X8248144Y-11684440D02*
X8257668Y-11674916D01*
X8257668Y-11674916D02*
X8267191Y-11655868D01*
X8267191Y-11655868D02*
X8267191Y-11617773D01*
X8267191Y-11617773D02*
X8257668Y-11598726D01*
X8257668Y-11598726D02*
X8248144Y-11589202D01*
X8248144Y-11589202D02*
X8229096Y-11579678D01*
X8505287Y-11693964D02*
X8505287Y-11493964D01*
X8591001Y-11693964D02*
X8591001Y-11589202D01*
X8591001Y-11589202D02*
X8581477Y-11570154D01*
X8581477Y-11570154D02*
X8562430Y-11560630D01*
X8562430Y-11560630D02*
X8533858Y-11560630D01*
X8533858Y-11560630D02*
X8514811Y-11570154D01*
X8514811Y-11570154D02*
X8505287Y-11579678D01*
X8714811Y-11693964D02*
X8695763Y-11684440D01*
X8695763Y-11684440D02*
X8686239Y-11674916D01*
X8686239Y-11674916D02*
X8676715Y-11655868D01*
X8676715Y-11655868D02*
X8676715Y-11598726D01*
X8676715Y-11598726D02*
X8686239Y-11579678D01*
X8686239Y-11579678D02*
X8695763Y-11570154D01*
X8695763Y-11570154D02*
X8714811Y-11560630D01*
X8714811Y-11560630D02*
X8743382Y-11560630D01*
X8743382Y-11560630D02*
X8762430Y-11570154D01*
X8762430Y-11570154D02*
X8771953Y-11579678D01*
X8771953Y-11579678D02*
X8781477Y-11598726D01*
X8781477Y-11598726D02*
X8781477Y-11655868D01*
X8781477Y-11655868D02*
X8771953Y-11674916D01*
X8771953Y-11674916D02*
X8762430Y-11684440D01*
X8762430Y-11684440D02*
X8743382Y-11693964D01*
X8743382Y-11693964D02*
X8714811Y-11693964D01*
X8895763Y-11693964D02*
X8876715Y-11684440D01*
X8876715Y-11684440D02*
X8867192Y-11665392D01*
X8867192Y-11665392D02*
X8867192Y-11493964D01*
X9048144Y-11684440D02*
X9029096Y-11693964D01*
X9029096Y-11693964D02*
X8991001Y-11693964D01*
X8991001Y-11693964D02*
X8971953Y-11684440D01*
X8971953Y-11684440D02*
X8962430Y-11665392D01*
X8962430Y-11665392D02*
X8962430Y-11589202D01*
X8962430Y-11589202D02*
X8971953Y-11570154D01*
X8971953Y-11570154D02*
X8991001Y-11560630D01*
X8991001Y-11560630D02*
X9029096Y-11560630D01*
X9029096Y-11560630D02*
X9048144Y-11570154D01*
X9048144Y-11570154D02*
X9057668Y-11589202D01*
X9057668Y-11589202D02*
X9057668Y-11608249D01*
X9057668Y-11608249D02*
X8962430Y-11627297D01*
X9133858Y-11684440D02*
X9152906Y-11693964D01*
X9152906Y-11693964D02*
X9191001Y-11693964D01*
X9191001Y-11693964D02*
X9210049Y-11684440D01*
X9210049Y-11684440D02*
X9219573Y-11665392D01*
X9219573Y-11665392D02*
X9219573Y-11655868D01*
X9219573Y-11655868D02*
X9210049Y-11636821D01*
X9210049Y-11636821D02*
X9191001Y-11627297D01*
X9191001Y-11627297D02*
X9162430Y-11627297D01*
X9162430Y-11627297D02*
X9143382Y-11617773D01*
X9143382Y-11617773D02*
X9133858Y-11598726D01*
X9133858Y-11598726D02*
X9133858Y-11589202D01*
X9133858Y-11589202D02*
X9143382Y-11570154D01*
X9143382Y-11570154D02*
X9162430Y-11560630D01*
X9162430Y-11560630D02*
X9191001Y-11560630D01*
X9191001Y-11560630D02*
X9210049Y-11570154D01*
X9286239Y-11770154D02*
X9295763Y-11760630D01*
X9295763Y-11760630D02*
X9314811Y-11732059D01*
X9314811Y-11732059D02*
X9324334Y-11713011D01*
X9324334Y-11713011D02*
X9333858Y-11684440D01*
X9333858Y-11684440D02*
X9343382Y-11636821D01*
X9343382Y-11636821D02*
X9343382Y-11598726D01*
X9343382Y-11598726D02*
X9333858Y-11551107D01*
X9333858Y-11551107D02*
X9324334Y-11522535D01*
X9324334Y-11522535D02*
X9314811Y-11503488D01*
X9314811Y-11503488D02*
X9295763Y-11474916D01*
X9295763Y-11474916D02*
X9286239Y-11465392D01*
D11*
X4320700Y-11866480D02*
G75*
G02*
X4290700Y-11866480I-15000J0D01*
G01*
X4290700Y-11866480D02*
G75*
G02*
X4320700Y-11866480I15000J0D01*
G01*
D10*
X4619572Y-11757964D02*
X4638620Y-11757964D01*
X4638620Y-11757964D02*
X4657667Y-11767488D01*
X4657667Y-11767488D02*
X4667191Y-11777011D01*
X4667191Y-11777011D02*
X4676715Y-11796059D01*
X4676715Y-11796059D02*
X4686239Y-11834154D01*
X4686239Y-11834154D02*
X4686239Y-11881773D01*
X4686239Y-11881773D02*
X4676715Y-11919868D01*
X4676715Y-11919868D02*
X4667191Y-11938916D01*
X4667191Y-11938916D02*
X4657667Y-11948440D01*
X4657667Y-11948440D02*
X4638620Y-11957964D01*
X4638620Y-11957964D02*
X4619572Y-11957964D01*
X4619572Y-11957964D02*
X4600524Y-11948440D01*
X4600524Y-11948440D02*
X4591001Y-11938916D01*
X4591001Y-11938916D02*
X4581477Y-11919868D01*
X4581477Y-11919868D02*
X4571953Y-11881773D01*
X4571953Y-11881773D02*
X4571953Y-11834154D01*
X4571953Y-11834154D02*
X4581477Y-11796059D01*
X4581477Y-11796059D02*
X4591001Y-11777011D01*
X4591001Y-11777011D02*
X4600524Y-11767488D01*
X4600524Y-11767488D02*
X4619572Y-11757964D01*
X4771953Y-11938916D02*
X4781477Y-11948440D01*
X4781477Y-11948440D02*
X4771953Y-11957964D01*
X4771953Y-11957964D02*
X4762429Y-11948440D01*
X4762429Y-11948440D02*
X4771953Y-11938916D01*
X4771953Y-11938916D02*
X4771953Y-11957964D01*
X4848144Y-11757964D02*
X4971953Y-11757964D01*
X4971953Y-11757964D02*
X4905286Y-11834154D01*
X4905286Y-11834154D02*
X4933858Y-11834154D01*
X4933858Y-11834154D02*
X4952905Y-11843678D01*
X4952905Y-11843678D02*
X4962429Y-11853202D01*
X4962429Y-11853202D02*
X4971953Y-11872249D01*
X4971953Y-11872249D02*
X4971953Y-11919868D01*
X4971953Y-11919868D02*
X4962429Y-11938916D01*
X4962429Y-11938916D02*
X4952905Y-11948440D01*
X4952905Y-11948440D02*
X4933858Y-11957964D01*
X4933858Y-11957964D02*
X4876715Y-11957964D01*
X4876715Y-11957964D02*
X4857667Y-11948440D01*
X4857667Y-11948440D02*
X4848144Y-11938916D01*
X5095763Y-11757964D02*
X5114810Y-11757964D01*
X5114810Y-11757964D02*
X5133858Y-11767488D01*
X5133858Y-11767488D02*
X5143382Y-11777011D01*
X5143382Y-11777011D02*
X5152905Y-11796059D01*
X5152905Y-11796059D02*
X5162429Y-11834154D01*
X5162429Y-11834154D02*
X5162429Y-11881773D01*
X5162429Y-11881773D02*
X5152905Y-11919868D01*
X5152905Y-11919868D02*
X5143382Y-11938916D01*
X5143382Y-11938916D02*
X5133858Y-11948440D01*
X5133858Y-11948440D02*
X5114810Y-11957964D01*
X5114810Y-11957964D02*
X5095763Y-11957964D01*
X5095763Y-11957964D02*
X5076715Y-11948440D01*
X5076715Y-11948440D02*
X5067191Y-11938916D01*
X5067191Y-11938916D02*
X5057667Y-11919868D01*
X5057667Y-11919868D02*
X5048144Y-11881773D01*
X5048144Y-11881773D02*
X5048144Y-11834154D01*
X5048144Y-11834154D02*
X5057667Y-11796059D01*
X5057667Y-11796059D02*
X5067191Y-11777011D01*
X5067191Y-11777011D02*
X5076715Y-11767488D01*
X5076715Y-11767488D02*
X5095763Y-11757964D01*
X5286239Y-11757964D02*
X5305286Y-11757964D01*
X5305286Y-11757964D02*
X5324334Y-11767488D01*
X5324334Y-11767488D02*
X5333858Y-11777011D01*
X5333858Y-11777011D02*
X5343382Y-11796059D01*
X5343382Y-11796059D02*
X5352905Y-11834154D01*
X5352905Y-11834154D02*
X5352905Y-11881773D01*
X5352905Y-11881773D02*
X5343382Y-11919868D01*
X5343382Y-11919868D02*
X5333858Y-11938916D01*
X5333858Y-11938916D02*
X5324334Y-11948440D01*
X5324334Y-11948440D02*
X5305286Y-11957964D01*
X5305286Y-11957964D02*
X5286239Y-11957964D01*
X5286239Y-11957964D02*
X5267191Y-11948440D01*
X5267191Y-11948440D02*
X5257667Y-11938916D01*
X5257667Y-11938916D02*
X5248144Y-11919868D01*
X5248144Y-11919868D02*
X5238620Y-11881773D01*
X5238620Y-11881773D02*
X5238620Y-11834154D01*
X5238620Y-11834154D02*
X5248144Y-11796059D01*
X5248144Y-11796059D02*
X5257667Y-11777011D01*
X5257667Y-11777011D02*
X5267191Y-11767488D01*
X5267191Y-11767488D02*
X5286239Y-11757964D01*
X5438620Y-11957964D02*
X5438620Y-11824630D01*
X5438620Y-11843678D02*
X5448144Y-11834154D01*
X5448144Y-11834154D02*
X5467191Y-11824630D01*
X5467191Y-11824630D02*
X5495763Y-11824630D01*
X5495763Y-11824630D02*
X5514810Y-11834154D01*
X5514810Y-11834154D02*
X5524334Y-11853202D01*
X5524334Y-11853202D02*
X5524334Y-11957964D01*
X5524334Y-11853202D02*
X5533858Y-11834154D01*
X5533858Y-11834154D02*
X5552905Y-11824630D01*
X5552905Y-11824630D02*
X5581477Y-11824630D01*
X5581477Y-11824630D02*
X5600524Y-11834154D01*
X5600524Y-11834154D02*
X5610048Y-11853202D01*
X5610048Y-11853202D02*
X5610048Y-11957964D01*
X5705286Y-11957964D02*
X5705286Y-11824630D01*
X5705286Y-11843678D02*
X5714810Y-11834154D01*
X5714810Y-11834154D02*
X5733858Y-11824630D01*
X5733858Y-11824630D02*
X5762429Y-11824630D01*
X5762429Y-11824630D02*
X5781477Y-11834154D01*
X5781477Y-11834154D02*
X5791001Y-11853202D01*
X5791001Y-11853202D02*
X5791001Y-11957964D01*
X5791001Y-11853202D02*
X5800524Y-11834154D01*
X5800524Y-11834154D02*
X5819572Y-11824630D01*
X5819572Y-11824630D02*
X5848143Y-11824630D01*
X5848143Y-11824630D02*
X5867191Y-11834154D01*
X5867191Y-11834154D02*
X5876715Y-11853202D01*
X5876715Y-11853202D02*
X5876715Y-11957964D01*
X6267191Y-11748440D02*
X6095763Y-12005583D01*
X6524334Y-11757964D02*
X6543382Y-11757964D01*
X6543382Y-11757964D02*
X6562429Y-11767488D01*
X6562429Y-11767488D02*
X6571953Y-11777011D01*
X6571953Y-11777011D02*
X6581477Y-11796059D01*
X6581477Y-11796059D02*
X6591001Y-11834154D01*
X6591001Y-11834154D02*
X6591001Y-11881773D01*
X6591001Y-11881773D02*
X6581477Y-11919868D01*
X6581477Y-11919868D02*
X6571953Y-11938916D01*
X6571953Y-11938916D02*
X6562429Y-11948440D01*
X6562429Y-11948440D02*
X6543382Y-11957964D01*
X6543382Y-11957964D02*
X6524334Y-11957964D01*
X6524334Y-11957964D02*
X6505286Y-11948440D01*
X6505286Y-11948440D02*
X6495763Y-11938916D01*
X6495763Y-11938916D02*
X6486239Y-11919868D01*
X6486239Y-11919868D02*
X6476715Y-11881773D01*
X6476715Y-11881773D02*
X6476715Y-11834154D01*
X6476715Y-11834154D02*
X6486239Y-11796059D01*
X6486239Y-11796059D02*
X6495763Y-11777011D01*
X6495763Y-11777011D02*
X6505286Y-11767488D01*
X6505286Y-11767488D02*
X6524334Y-11757964D01*
X6676715Y-11938916D02*
X6686239Y-11948440D01*
X6686239Y-11948440D02*
X6676715Y-11957964D01*
X6676715Y-11957964D02*
X6667191Y-11948440D01*
X6667191Y-11948440D02*
X6676715Y-11938916D01*
X6676715Y-11938916D02*
X6676715Y-11957964D01*
X6810048Y-11757964D02*
X6829096Y-11757964D01*
X6829096Y-11757964D02*
X6848144Y-11767488D01*
X6848144Y-11767488D02*
X6857667Y-11777011D01*
X6857667Y-11777011D02*
X6867191Y-11796059D01*
X6867191Y-11796059D02*
X6876715Y-11834154D01*
X6876715Y-11834154D02*
X6876715Y-11881773D01*
X6876715Y-11881773D02*
X6867191Y-11919868D01*
X6867191Y-11919868D02*
X6857667Y-11938916D01*
X6857667Y-11938916D02*
X6848144Y-11948440D01*
X6848144Y-11948440D02*
X6829096Y-11957964D01*
X6829096Y-11957964D02*
X6810048Y-11957964D01*
X6810048Y-11957964D02*
X6791001Y-11948440D01*
X6791001Y-11948440D02*
X6781477Y-11938916D01*
X6781477Y-11938916D02*
X6771953Y-11919868D01*
X6771953Y-11919868D02*
X6762429Y-11881773D01*
X6762429Y-11881773D02*
X6762429Y-11834154D01*
X6762429Y-11834154D02*
X6771953Y-11796059D01*
X6771953Y-11796059D02*
X6781477Y-11777011D01*
X6781477Y-11777011D02*
X6791001Y-11767488D01*
X6791001Y-11767488D02*
X6810048Y-11757964D01*
X7067191Y-11957964D02*
X6952906Y-11957964D01*
X7010048Y-11957964D02*
X7010048Y-11757964D01*
X7010048Y-11757964D02*
X6991001Y-11786535D01*
X6991001Y-11786535D02*
X6971953Y-11805583D01*
X6971953Y-11805583D02*
X6952906Y-11815107D01*
X7257667Y-11957964D02*
X7143382Y-11957964D01*
X7200525Y-11957964D02*
X7200525Y-11757964D01*
X7200525Y-11757964D02*
X7181477Y-11786535D01*
X7181477Y-11786535D02*
X7162429Y-11805583D01*
X7162429Y-11805583D02*
X7143382Y-11815107D01*
X7371953Y-11843678D02*
X7352906Y-11834154D01*
X7352906Y-11834154D02*
X7343382Y-11824630D01*
X7343382Y-11824630D02*
X7333858Y-11805583D01*
X7333858Y-11805583D02*
X7333858Y-11796059D01*
X7333858Y-11796059D02*
X7343382Y-11777011D01*
X7343382Y-11777011D02*
X7352906Y-11767488D01*
X7352906Y-11767488D02*
X7371953Y-11757964D01*
X7371953Y-11757964D02*
X7410048Y-11757964D01*
X7410048Y-11757964D02*
X7429096Y-11767488D01*
X7429096Y-11767488D02*
X7438620Y-11777011D01*
X7438620Y-11777011D02*
X7448144Y-11796059D01*
X7448144Y-11796059D02*
X7448144Y-11805583D01*
X7448144Y-11805583D02*
X7438620Y-11824630D01*
X7438620Y-11824630D02*
X7429096Y-11834154D01*
X7429096Y-11834154D02*
X7410048Y-11843678D01*
X7410048Y-11843678D02*
X7371953Y-11843678D01*
X7371953Y-11843678D02*
X7352906Y-11853202D01*
X7352906Y-11853202D02*
X7343382Y-11862726D01*
X7343382Y-11862726D02*
X7333858Y-11881773D01*
X7333858Y-11881773D02*
X7333858Y-11919868D01*
X7333858Y-11919868D02*
X7343382Y-11938916D01*
X7343382Y-11938916D02*
X7352906Y-11948440D01*
X7352906Y-11948440D02*
X7371953Y-11957964D01*
X7371953Y-11957964D02*
X7410048Y-11957964D01*
X7410048Y-11957964D02*
X7429096Y-11948440D01*
X7429096Y-11948440D02*
X7438620Y-11938916D01*
X7438620Y-11938916D02*
X7448144Y-11919868D01*
X7448144Y-11919868D02*
X7448144Y-11881773D01*
X7448144Y-11881773D02*
X7438620Y-11862726D01*
X7438620Y-11862726D02*
X7429096Y-11853202D01*
X7429096Y-11853202D02*
X7410048Y-11843678D01*
X7524334Y-11757964D02*
X7524334Y-11796059D01*
X7600525Y-11757964D02*
X7600525Y-11796059D01*
X7895763Y-12034154D02*
X7886239Y-12024630D01*
X7886239Y-12024630D02*
X7867191Y-11996059D01*
X7867191Y-11996059D02*
X7857668Y-11977011D01*
X7857668Y-11977011D02*
X7848144Y-11948440D01*
X7848144Y-11948440D02*
X7838620Y-11900821D01*
X7838620Y-11900821D02*
X7838620Y-11862726D01*
X7838620Y-11862726D02*
X7848144Y-11815107D01*
X7848144Y-11815107D02*
X7857668Y-11786535D01*
X7857668Y-11786535D02*
X7867191Y-11767488D01*
X7867191Y-11767488D02*
X7886239Y-11738916D01*
X7886239Y-11738916D02*
X7895763Y-11729392D01*
X8000525Y-11843678D02*
X7981477Y-11834154D01*
X7981477Y-11834154D02*
X7971953Y-11824630D01*
X7971953Y-11824630D02*
X7962429Y-11805583D01*
X7962429Y-11805583D02*
X7962429Y-11796059D01*
X7962429Y-11796059D02*
X7971953Y-11777011D01*
X7971953Y-11777011D02*
X7981477Y-11767488D01*
X7981477Y-11767488D02*
X8000525Y-11757964D01*
X8000525Y-11757964D02*
X8038620Y-11757964D01*
X8038620Y-11757964D02*
X8057668Y-11767488D01*
X8057668Y-11767488D02*
X8067191Y-11777011D01*
X8067191Y-11777011D02*
X8076715Y-11796059D01*
X8076715Y-11796059D02*
X8076715Y-11805583D01*
X8076715Y-11805583D02*
X8067191Y-11824630D01*
X8067191Y-11824630D02*
X8057668Y-11834154D01*
X8057668Y-11834154D02*
X8038620Y-11843678D01*
X8038620Y-11843678D02*
X8000525Y-11843678D01*
X8000525Y-11843678D02*
X7981477Y-11853202D01*
X7981477Y-11853202D02*
X7971953Y-11862726D01*
X7971953Y-11862726D02*
X7962429Y-11881773D01*
X7962429Y-11881773D02*
X7962429Y-11919868D01*
X7962429Y-11919868D02*
X7971953Y-11938916D01*
X7971953Y-11938916D02*
X7981477Y-11948440D01*
X7981477Y-11948440D02*
X8000525Y-11957964D01*
X8000525Y-11957964D02*
X8038620Y-11957964D01*
X8038620Y-11957964D02*
X8057668Y-11948440D01*
X8057668Y-11948440D02*
X8067191Y-11938916D01*
X8067191Y-11938916D02*
X8076715Y-11919868D01*
X8076715Y-11919868D02*
X8076715Y-11881773D01*
X8076715Y-11881773D02*
X8067191Y-11862726D01*
X8067191Y-11862726D02*
X8057668Y-11853202D01*
X8057668Y-11853202D02*
X8038620Y-11843678D01*
X8314810Y-11957964D02*
X8314810Y-11757964D01*
X8400525Y-11957964D02*
X8400525Y-11853202D01*
X8400525Y-11853202D02*
X8391001Y-11834154D01*
X8391001Y-11834154D02*
X8371953Y-11824630D01*
X8371953Y-11824630D02*
X8343382Y-11824630D01*
X8343382Y-11824630D02*
X8324334Y-11834154D01*
X8324334Y-11834154D02*
X8314810Y-11843678D01*
X8524334Y-11957964D02*
X8505287Y-11948440D01*
X8505287Y-11948440D02*
X8495763Y-11938916D01*
X8495763Y-11938916D02*
X8486239Y-11919868D01*
X8486239Y-11919868D02*
X8486239Y-11862726D01*
X8486239Y-11862726D02*
X8495763Y-11843678D01*
X8495763Y-11843678D02*
X8505287Y-11834154D01*
X8505287Y-11834154D02*
X8524334Y-11824630D01*
X8524334Y-11824630D02*
X8552906Y-11824630D01*
X8552906Y-11824630D02*
X8571953Y-11834154D01*
X8571953Y-11834154D02*
X8581477Y-11843678D01*
X8581477Y-11843678D02*
X8591001Y-11862726D01*
X8591001Y-11862726D02*
X8591001Y-11919868D01*
X8591001Y-11919868D02*
X8581477Y-11938916D01*
X8581477Y-11938916D02*
X8571953Y-11948440D01*
X8571953Y-11948440D02*
X8552906Y-11957964D01*
X8552906Y-11957964D02*
X8524334Y-11957964D01*
X8705287Y-11957964D02*
X8686239Y-11948440D01*
X8686239Y-11948440D02*
X8676715Y-11929392D01*
X8676715Y-11929392D02*
X8676715Y-11757964D01*
X8857668Y-11948440D02*
X8838620Y-11957964D01*
X8838620Y-11957964D02*
X8800525Y-11957964D01*
X8800525Y-11957964D02*
X8781477Y-11948440D01*
X8781477Y-11948440D02*
X8771953Y-11929392D01*
X8771953Y-11929392D02*
X8771953Y-11853202D01*
X8771953Y-11853202D02*
X8781477Y-11834154D01*
X8781477Y-11834154D02*
X8800525Y-11824630D01*
X8800525Y-11824630D02*
X8838620Y-11824630D01*
X8838620Y-11824630D02*
X8857668Y-11834154D01*
X8857668Y-11834154D02*
X8867192Y-11853202D01*
X8867192Y-11853202D02*
X8867192Y-11872249D01*
X8867192Y-11872249D02*
X8771953Y-11891297D01*
X8943382Y-11948440D02*
X8962430Y-11957964D01*
X8962430Y-11957964D02*
X9000525Y-11957964D01*
X9000525Y-11957964D02*
X9019573Y-11948440D01*
X9019573Y-11948440D02*
X9029096Y-11929392D01*
X9029096Y-11929392D02*
X9029096Y-11919868D01*
X9029096Y-11919868D02*
X9019573Y-11900821D01*
X9019573Y-11900821D02*
X9000525Y-11891297D01*
X9000525Y-11891297D02*
X8971953Y-11891297D01*
X8971953Y-11891297D02*
X8952906Y-11881773D01*
X8952906Y-11881773D02*
X8943382Y-11862726D01*
X8943382Y-11862726D02*
X8943382Y-11853202D01*
X8943382Y-11853202D02*
X8952906Y-11834154D01*
X8952906Y-11834154D02*
X8971953Y-11824630D01*
X8971953Y-11824630D02*
X9000525Y-11824630D01*
X9000525Y-11824630D02*
X9019573Y-11834154D01*
X9095763Y-12034154D02*
X9105287Y-12024630D01*
X9105287Y-12024630D02*
X9124334Y-11996059D01*
X9124334Y-11996059D02*
X9133858Y-11977011D01*
X9133858Y-11977011D02*
X9143382Y-11948440D01*
X9143382Y-11948440D02*
X9152906Y-11900821D01*
X9152906Y-11900821D02*
X9152906Y-11862726D01*
X9152906Y-11862726D02*
X9143382Y-11815107D01*
X9143382Y-11815107D02*
X9133858Y-11786535D01*
X9133858Y-11786535D02*
X9124334Y-11767488D01*
X9124334Y-11767488D02*
X9105287Y-11738916D01*
X9105287Y-11738916D02*
X9095763Y-11729392D01*
D11*
X4295700Y-12105480D02*
X4295700Y-12155480D01*
X4270700Y-12130480D02*
X4320700Y-12130480D01*
D10*
X4619572Y-12021964D02*
X4638620Y-12021964D01*
X4638620Y-12021964D02*
X4657667Y-12031488D01*
X4657667Y-12031488D02*
X4667191Y-12041011D01*
X4667191Y-12041011D02*
X4676715Y-12060059D01*
X4676715Y-12060059D02*
X4686239Y-12098154D01*
X4686239Y-12098154D02*
X4686239Y-12145773D01*
X4686239Y-12145773D02*
X4676715Y-12183868D01*
X4676715Y-12183868D02*
X4667191Y-12202916D01*
X4667191Y-12202916D02*
X4657667Y-12212440D01*
X4657667Y-12212440D02*
X4638620Y-12221964D01*
X4638620Y-12221964D02*
X4619572Y-12221964D01*
X4619572Y-12221964D02*
X4600524Y-12212440D01*
X4600524Y-12212440D02*
X4591001Y-12202916D01*
X4591001Y-12202916D02*
X4581477Y-12183868D01*
X4581477Y-12183868D02*
X4571953Y-12145773D01*
X4571953Y-12145773D02*
X4571953Y-12098154D01*
X4571953Y-12098154D02*
X4581477Y-12060059D01*
X4581477Y-12060059D02*
X4591001Y-12041011D01*
X4591001Y-12041011D02*
X4600524Y-12031488D01*
X4600524Y-12031488D02*
X4619572Y-12021964D01*
X4771953Y-12202916D02*
X4781477Y-12212440D01*
X4781477Y-12212440D02*
X4771953Y-12221964D01*
X4771953Y-12221964D02*
X4762429Y-12212440D01*
X4762429Y-12212440D02*
X4771953Y-12202916D01*
X4771953Y-12202916D02*
X4771953Y-12221964D01*
X4962429Y-12021964D02*
X4867191Y-12021964D01*
X4867191Y-12021964D02*
X4857667Y-12117202D01*
X4857667Y-12117202D02*
X4867191Y-12107678D01*
X4867191Y-12107678D02*
X4886239Y-12098154D01*
X4886239Y-12098154D02*
X4933858Y-12098154D01*
X4933858Y-12098154D02*
X4952905Y-12107678D01*
X4952905Y-12107678D02*
X4962429Y-12117202D01*
X4962429Y-12117202D02*
X4971953Y-12136249D01*
X4971953Y-12136249D02*
X4971953Y-12183868D01*
X4971953Y-12183868D02*
X4962429Y-12202916D01*
X4962429Y-12202916D02*
X4952905Y-12212440D01*
X4952905Y-12212440D02*
X4933858Y-12221964D01*
X4933858Y-12221964D02*
X4886239Y-12221964D01*
X4886239Y-12221964D02*
X4867191Y-12212440D01*
X4867191Y-12212440D02*
X4857667Y-12202916D01*
X5095763Y-12021964D02*
X5114810Y-12021964D01*
X5114810Y-12021964D02*
X5133858Y-12031488D01*
X5133858Y-12031488D02*
X5143382Y-12041011D01*
X5143382Y-12041011D02*
X5152905Y-12060059D01*
X5152905Y-12060059D02*
X5162429Y-12098154D01*
X5162429Y-12098154D02*
X5162429Y-12145773D01*
X5162429Y-12145773D02*
X5152905Y-12183868D01*
X5152905Y-12183868D02*
X5143382Y-12202916D01*
X5143382Y-12202916D02*
X5133858Y-12212440D01*
X5133858Y-12212440D02*
X5114810Y-12221964D01*
X5114810Y-12221964D02*
X5095763Y-12221964D01*
X5095763Y-12221964D02*
X5076715Y-12212440D01*
X5076715Y-12212440D02*
X5067191Y-12202916D01*
X5067191Y-12202916D02*
X5057667Y-12183868D01*
X5057667Y-12183868D02*
X5048144Y-12145773D01*
X5048144Y-12145773D02*
X5048144Y-12098154D01*
X5048144Y-12098154D02*
X5057667Y-12060059D01*
X5057667Y-12060059D02*
X5067191Y-12041011D01*
X5067191Y-12041011D02*
X5076715Y-12031488D01*
X5076715Y-12031488D02*
X5095763Y-12021964D01*
X5286239Y-12021964D02*
X5305286Y-12021964D01*
X5305286Y-12021964D02*
X5324334Y-12031488D01*
X5324334Y-12031488D02*
X5333858Y-12041011D01*
X5333858Y-12041011D02*
X5343382Y-12060059D01*
X5343382Y-12060059D02*
X5352905Y-12098154D01*
X5352905Y-12098154D02*
X5352905Y-12145773D01*
X5352905Y-12145773D02*
X5343382Y-12183868D01*
X5343382Y-12183868D02*
X5333858Y-12202916D01*
X5333858Y-12202916D02*
X5324334Y-12212440D01*
X5324334Y-12212440D02*
X5305286Y-12221964D01*
X5305286Y-12221964D02*
X5286239Y-12221964D01*
X5286239Y-12221964D02*
X5267191Y-12212440D01*
X5267191Y-12212440D02*
X5257667Y-12202916D01*
X5257667Y-12202916D02*
X5248144Y-12183868D01*
X5248144Y-12183868D02*
X5238620Y-12145773D01*
X5238620Y-12145773D02*
X5238620Y-12098154D01*
X5238620Y-12098154D02*
X5248144Y-12060059D01*
X5248144Y-12060059D02*
X5257667Y-12041011D01*
X5257667Y-12041011D02*
X5267191Y-12031488D01*
X5267191Y-12031488D02*
X5286239Y-12021964D01*
X5438620Y-12221964D02*
X5438620Y-12088630D01*
X5438620Y-12107678D02*
X5448144Y-12098154D01*
X5448144Y-12098154D02*
X5467191Y-12088630D01*
X5467191Y-12088630D02*
X5495763Y-12088630D01*
X5495763Y-12088630D02*
X5514810Y-12098154D01*
X5514810Y-12098154D02*
X5524334Y-12117202D01*
X5524334Y-12117202D02*
X5524334Y-12221964D01*
X5524334Y-12117202D02*
X5533858Y-12098154D01*
X5533858Y-12098154D02*
X5552905Y-12088630D01*
X5552905Y-12088630D02*
X5581477Y-12088630D01*
X5581477Y-12088630D02*
X5600524Y-12098154D01*
X5600524Y-12098154D02*
X5610048Y-12117202D01*
X5610048Y-12117202D02*
X5610048Y-12221964D01*
X5705286Y-12221964D02*
X5705286Y-12088630D01*
X5705286Y-12107678D02*
X5714810Y-12098154D01*
X5714810Y-12098154D02*
X5733858Y-12088630D01*
X5733858Y-12088630D02*
X5762429Y-12088630D01*
X5762429Y-12088630D02*
X5781477Y-12098154D01*
X5781477Y-12098154D02*
X5791001Y-12117202D01*
X5791001Y-12117202D02*
X5791001Y-12221964D01*
X5791001Y-12117202D02*
X5800524Y-12098154D01*
X5800524Y-12098154D02*
X5819572Y-12088630D01*
X5819572Y-12088630D02*
X5848143Y-12088630D01*
X5848143Y-12088630D02*
X5867191Y-12098154D01*
X5867191Y-12098154D02*
X5876715Y-12117202D01*
X5876715Y-12117202D02*
X5876715Y-12221964D01*
X6267191Y-12012440D02*
X6095763Y-12269583D01*
X6524334Y-12021964D02*
X6543382Y-12021964D01*
X6543382Y-12021964D02*
X6562429Y-12031488D01*
X6562429Y-12031488D02*
X6571953Y-12041011D01*
X6571953Y-12041011D02*
X6581477Y-12060059D01*
X6581477Y-12060059D02*
X6591001Y-12098154D01*
X6591001Y-12098154D02*
X6591001Y-12145773D01*
X6591001Y-12145773D02*
X6581477Y-12183868D01*
X6581477Y-12183868D02*
X6571953Y-12202916D01*
X6571953Y-12202916D02*
X6562429Y-12212440D01*
X6562429Y-12212440D02*
X6543382Y-12221964D01*
X6543382Y-12221964D02*
X6524334Y-12221964D01*
X6524334Y-12221964D02*
X6505286Y-12212440D01*
X6505286Y-12212440D02*
X6495763Y-12202916D01*
X6495763Y-12202916D02*
X6486239Y-12183868D01*
X6486239Y-12183868D02*
X6476715Y-12145773D01*
X6476715Y-12145773D02*
X6476715Y-12098154D01*
X6476715Y-12098154D02*
X6486239Y-12060059D01*
X6486239Y-12060059D02*
X6495763Y-12041011D01*
X6495763Y-12041011D02*
X6505286Y-12031488D01*
X6505286Y-12031488D02*
X6524334Y-12021964D01*
X6676715Y-12202916D02*
X6686239Y-12212440D01*
X6686239Y-12212440D02*
X6676715Y-12221964D01*
X6676715Y-12221964D02*
X6667191Y-12212440D01*
X6667191Y-12212440D02*
X6676715Y-12202916D01*
X6676715Y-12202916D02*
X6676715Y-12221964D01*
X6810048Y-12021964D02*
X6829096Y-12021964D01*
X6829096Y-12021964D02*
X6848144Y-12031488D01*
X6848144Y-12031488D02*
X6857667Y-12041011D01*
X6857667Y-12041011D02*
X6867191Y-12060059D01*
X6867191Y-12060059D02*
X6876715Y-12098154D01*
X6876715Y-12098154D02*
X6876715Y-12145773D01*
X6876715Y-12145773D02*
X6867191Y-12183868D01*
X6867191Y-12183868D02*
X6857667Y-12202916D01*
X6857667Y-12202916D02*
X6848144Y-12212440D01*
X6848144Y-12212440D02*
X6829096Y-12221964D01*
X6829096Y-12221964D02*
X6810048Y-12221964D01*
X6810048Y-12221964D02*
X6791001Y-12212440D01*
X6791001Y-12212440D02*
X6781477Y-12202916D01*
X6781477Y-12202916D02*
X6771953Y-12183868D01*
X6771953Y-12183868D02*
X6762429Y-12145773D01*
X6762429Y-12145773D02*
X6762429Y-12098154D01*
X6762429Y-12098154D02*
X6771953Y-12060059D01*
X6771953Y-12060059D02*
X6781477Y-12041011D01*
X6781477Y-12041011D02*
X6791001Y-12031488D01*
X6791001Y-12031488D02*
X6810048Y-12021964D01*
X7067191Y-12221964D02*
X6952906Y-12221964D01*
X7010048Y-12221964D02*
X7010048Y-12021964D01*
X7010048Y-12021964D02*
X6991001Y-12050535D01*
X6991001Y-12050535D02*
X6971953Y-12069583D01*
X6971953Y-12069583D02*
X6952906Y-12079107D01*
X7162429Y-12221964D02*
X7200525Y-12221964D01*
X7200525Y-12221964D02*
X7219572Y-12212440D01*
X7219572Y-12212440D02*
X7229096Y-12202916D01*
X7229096Y-12202916D02*
X7248144Y-12174345D01*
X7248144Y-12174345D02*
X7257667Y-12136249D01*
X7257667Y-12136249D02*
X7257667Y-12060059D01*
X7257667Y-12060059D02*
X7248144Y-12041011D01*
X7248144Y-12041011D02*
X7238620Y-12031488D01*
X7238620Y-12031488D02*
X7219572Y-12021964D01*
X7219572Y-12021964D02*
X7181477Y-12021964D01*
X7181477Y-12021964D02*
X7162429Y-12031488D01*
X7162429Y-12031488D02*
X7152906Y-12041011D01*
X7152906Y-12041011D02*
X7143382Y-12060059D01*
X7143382Y-12060059D02*
X7143382Y-12107678D01*
X7143382Y-12107678D02*
X7152906Y-12126726D01*
X7152906Y-12126726D02*
X7162429Y-12136249D01*
X7162429Y-12136249D02*
X7181477Y-12145773D01*
X7181477Y-12145773D02*
X7219572Y-12145773D01*
X7219572Y-12145773D02*
X7238620Y-12136249D01*
X7238620Y-12136249D02*
X7248144Y-12126726D01*
X7248144Y-12126726D02*
X7257667Y-12107678D01*
X7324334Y-12021964D02*
X7457667Y-12021964D01*
X7457667Y-12021964D02*
X7371953Y-12221964D01*
X7524334Y-12021964D02*
X7524334Y-12060059D01*
X7600525Y-12021964D02*
X7600525Y-12060059D01*
X7895763Y-12298154D02*
X7886239Y-12288630D01*
X7886239Y-12288630D02*
X7867191Y-12260059D01*
X7867191Y-12260059D02*
X7857668Y-12241011D01*
X7857668Y-12241011D02*
X7848144Y-12212440D01*
X7848144Y-12212440D02*
X7838620Y-12164821D01*
X7838620Y-12164821D02*
X7838620Y-12126726D01*
X7838620Y-12126726D02*
X7848144Y-12079107D01*
X7848144Y-12079107D02*
X7857668Y-12050535D01*
X7857668Y-12050535D02*
X7867191Y-12031488D01*
X7867191Y-12031488D02*
X7886239Y-12002916D01*
X7886239Y-12002916D02*
X7895763Y-11993392D01*
X8076715Y-12221964D02*
X7962429Y-12221964D01*
X8019572Y-12221964D02*
X8019572Y-12021964D01*
X8019572Y-12021964D02*
X8000525Y-12050535D01*
X8000525Y-12050535D02*
X7981477Y-12069583D01*
X7981477Y-12069583D02*
X7962429Y-12079107D01*
X8143382Y-12021964D02*
X8267191Y-12021964D01*
X8267191Y-12021964D02*
X8200525Y-12098154D01*
X8200525Y-12098154D02*
X8229096Y-12098154D01*
X8229096Y-12098154D02*
X8248144Y-12107678D01*
X8248144Y-12107678D02*
X8257668Y-12117202D01*
X8257668Y-12117202D02*
X8267191Y-12136249D01*
X8267191Y-12136249D02*
X8267191Y-12183868D01*
X8267191Y-12183868D02*
X8257668Y-12202916D01*
X8257668Y-12202916D02*
X8248144Y-12212440D01*
X8248144Y-12212440D02*
X8229096Y-12221964D01*
X8229096Y-12221964D02*
X8171953Y-12221964D01*
X8171953Y-12221964D02*
X8152906Y-12212440D01*
X8152906Y-12212440D02*
X8143382Y-12202916D01*
X8505287Y-12221964D02*
X8505287Y-12021964D01*
X8591001Y-12221964D02*
X8591001Y-12117202D01*
X8591001Y-12117202D02*
X8581477Y-12098154D01*
X8581477Y-12098154D02*
X8562430Y-12088630D01*
X8562430Y-12088630D02*
X8533858Y-12088630D01*
X8533858Y-12088630D02*
X8514811Y-12098154D01*
X8514811Y-12098154D02*
X8505287Y-12107678D01*
X8714811Y-12221964D02*
X8695763Y-12212440D01*
X8695763Y-12212440D02*
X8686239Y-12202916D01*
X8686239Y-12202916D02*
X8676715Y-12183868D01*
X8676715Y-12183868D02*
X8676715Y-12126726D01*
X8676715Y-12126726D02*
X8686239Y-12107678D01*
X8686239Y-12107678D02*
X8695763Y-12098154D01*
X8695763Y-12098154D02*
X8714811Y-12088630D01*
X8714811Y-12088630D02*
X8743382Y-12088630D01*
X8743382Y-12088630D02*
X8762430Y-12098154D01*
X8762430Y-12098154D02*
X8771953Y-12107678D01*
X8771953Y-12107678D02*
X8781477Y-12126726D01*
X8781477Y-12126726D02*
X8781477Y-12183868D01*
X8781477Y-12183868D02*
X8771953Y-12202916D01*
X8771953Y-12202916D02*
X8762430Y-12212440D01*
X8762430Y-12212440D02*
X8743382Y-12221964D01*
X8743382Y-12221964D02*
X8714811Y-12221964D01*
X8895763Y-12221964D02*
X8876715Y-12212440D01*
X8876715Y-12212440D02*
X8867192Y-12193392D01*
X8867192Y-12193392D02*
X8867192Y-12021964D01*
X9048144Y-12212440D02*
X9029096Y-12221964D01*
X9029096Y-12221964D02*
X8991001Y-12221964D01*
X8991001Y-12221964D02*
X8971953Y-12212440D01*
X8971953Y-12212440D02*
X8962430Y-12193392D01*
X8962430Y-12193392D02*
X8962430Y-12117202D01*
X8962430Y-12117202D02*
X8971953Y-12098154D01*
X8971953Y-12098154D02*
X8991001Y-12088630D01*
X8991001Y-12088630D02*
X9029096Y-12088630D01*
X9029096Y-12088630D02*
X9048144Y-12098154D01*
X9048144Y-12098154D02*
X9057668Y-12117202D01*
X9057668Y-12117202D02*
X9057668Y-12136249D01*
X9057668Y-12136249D02*
X8962430Y-12155297D01*
X9133858Y-12212440D02*
X9152906Y-12221964D01*
X9152906Y-12221964D02*
X9191001Y-12221964D01*
X9191001Y-12221964D02*
X9210049Y-12212440D01*
X9210049Y-12212440D02*
X9219573Y-12193392D01*
X9219573Y-12193392D02*
X9219573Y-12183868D01*
X9219573Y-12183868D02*
X9210049Y-12164821D01*
X9210049Y-12164821D02*
X9191001Y-12155297D01*
X9191001Y-12155297D02*
X9162430Y-12155297D01*
X9162430Y-12155297D02*
X9143382Y-12145773D01*
X9143382Y-12145773D02*
X9133858Y-12126726D01*
X9133858Y-12126726D02*
X9133858Y-12117202D01*
X9133858Y-12117202D02*
X9143382Y-12098154D01*
X9143382Y-12098154D02*
X9162430Y-12088630D01*
X9162430Y-12088630D02*
X9191001Y-12088630D01*
X9191001Y-12088630D02*
X9210049Y-12098154D01*
X9286239Y-12298154D02*
X9295763Y-12288630D01*
X9295763Y-12288630D02*
X9314811Y-12260059D01*
X9314811Y-12260059D02*
X9324334Y-12241011D01*
X9324334Y-12241011D02*
X9333858Y-12212440D01*
X9333858Y-12212440D02*
X9343382Y-12164821D01*
X9343382Y-12164821D02*
X9343382Y-12126726D01*
X9343382Y-12126726D02*
X9333858Y-12079107D01*
X9333858Y-12079107D02*
X9324334Y-12050535D01*
X9324334Y-12050535D02*
X9314811Y-12031488D01*
X9314811Y-12031488D02*
X9295763Y-12002916D01*
X9295763Y-12002916D02*
X9286239Y-11993392D01*
D11*
X4306056Y-12429836D02*
X4306056Y-12359124D01*
X4235344Y-12359124D01*
X4235344Y-12429836D01*
X4306056Y-12429836D01*
D10*
X4686239Y-12485964D02*
X4571953Y-12485964D01*
X4629096Y-12485964D02*
X4629096Y-12285964D01*
X4629096Y-12285964D02*
X4610048Y-12314535D01*
X4610048Y-12314535D02*
X4591001Y-12333583D01*
X4591001Y-12333583D02*
X4571953Y-12343107D01*
X4771953Y-12466916D02*
X4781477Y-12476440D01*
X4781477Y-12476440D02*
X4771953Y-12485964D01*
X4771953Y-12485964D02*
X4762429Y-12476440D01*
X4762429Y-12476440D02*
X4771953Y-12466916D01*
X4771953Y-12466916D02*
X4771953Y-12485964D01*
X4905286Y-12285964D02*
X4924334Y-12285964D01*
X4924334Y-12285964D02*
X4943382Y-12295488D01*
X4943382Y-12295488D02*
X4952905Y-12305011D01*
X4952905Y-12305011D02*
X4962429Y-12324059D01*
X4962429Y-12324059D02*
X4971953Y-12362154D01*
X4971953Y-12362154D02*
X4971953Y-12409773D01*
X4971953Y-12409773D02*
X4962429Y-12447868D01*
X4962429Y-12447868D02*
X4952905Y-12466916D01*
X4952905Y-12466916D02*
X4943382Y-12476440D01*
X4943382Y-12476440D02*
X4924334Y-12485964D01*
X4924334Y-12485964D02*
X4905286Y-12485964D01*
X4905286Y-12485964D02*
X4886239Y-12476440D01*
X4886239Y-12476440D02*
X4876715Y-12466916D01*
X4876715Y-12466916D02*
X4867191Y-12447868D01*
X4867191Y-12447868D02*
X4857667Y-12409773D01*
X4857667Y-12409773D02*
X4857667Y-12362154D01*
X4857667Y-12362154D02*
X4867191Y-12324059D01*
X4867191Y-12324059D02*
X4876715Y-12305011D01*
X4876715Y-12305011D02*
X4886239Y-12295488D01*
X4886239Y-12295488D02*
X4905286Y-12285964D01*
X5095763Y-12285964D02*
X5114810Y-12285964D01*
X5114810Y-12285964D02*
X5133858Y-12295488D01*
X5133858Y-12295488D02*
X5143382Y-12305011D01*
X5143382Y-12305011D02*
X5152905Y-12324059D01*
X5152905Y-12324059D02*
X5162429Y-12362154D01*
X5162429Y-12362154D02*
X5162429Y-12409773D01*
X5162429Y-12409773D02*
X5152905Y-12447868D01*
X5152905Y-12447868D02*
X5143382Y-12466916D01*
X5143382Y-12466916D02*
X5133858Y-12476440D01*
X5133858Y-12476440D02*
X5114810Y-12485964D01*
X5114810Y-12485964D02*
X5095763Y-12485964D01*
X5095763Y-12485964D02*
X5076715Y-12476440D01*
X5076715Y-12476440D02*
X5067191Y-12466916D01*
X5067191Y-12466916D02*
X5057667Y-12447868D01*
X5057667Y-12447868D02*
X5048144Y-12409773D01*
X5048144Y-12409773D02*
X5048144Y-12362154D01*
X5048144Y-12362154D02*
X5057667Y-12324059D01*
X5057667Y-12324059D02*
X5067191Y-12305011D01*
X5067191Y-12305011D02*
X5076715Y-12295488D01*
X5076715Y-12295488D02*
X5095763Y-12285964D01*
X5286239Y-12285964D02*
X5305286Y-12285964D01*
X5305286Y-12285964D02*
X5324334Y-12295488D01*
X5324334Y-12295488D02*
X5333858Y-12305011D01*
X5333858Y-12305011D02*
X5343382Y-12324059D01*
X5343382Y-12324059D02*
X5352905Y-12362154D01*
X5352905Y-12362154D02*
X5352905Y-12409773D01*
X5352905Y-12409773D02*
X5343382Y-12447868D01*
X5343382Y-12447868D02*
X5333858Y-12466916D01*
X5333858Y-12466916D02*
X5324334Y-12476440D01*
X5324334Y-12476440D02*
X5305286Y-12485964D01*
X5305286Y-12485964D02*
X5286239Y-12485964D01*
X5286239Y-12485964D02*
X5267191Y-12476440D01*
X5267191Y-12476440D02*
X5257667Y-12466916D01*
X5257667Y-12466916D02*
X5248144Y-12447868D01*
X5248144Y-12447868D02*
X5238620Y-12409773D01*
X5238620Y-12409773D02*
X5238620Y-12362154D01*
X5238620Y-12362154D02*
X5248144Y-12324059D01*
X5248144Y-12324059D02*
X5257667Y-12305011D01*
X5257667Y-12305011D02*
X5267191Y-12295488D01*
X5267191Y-12295488D02*
X5286239Y-12285964D01*
X5438620Y-12485964D02*
X5438620Y-12352630D01*
X5438620Y-12371678D02*
X5448144Y-12362154D01*
X5448144Y-12362154D02*
X5467191Y-12352630D01*
X5467191Y-12352630D02*
X5495763Y-12352630D01*
X5495763Y-12352630D02*
X5514810Y-12362154D01*
X5514810Y-12362154D02*
X5524334Y-12381202D01*
X5524334Y-12381202D02*
X5524334Y-12485964D01*
X5524334Y-12381202D02*
X5533858Y-12362154D01*
X5533858Y-12362154D02*
X5552905Y-12352630D01*
X5552905Y-12352630D02*
X5581477Y-12352630D01*
X5581477Y-12352630D02*
X5600524Y-12362154D01*
X5600524Y-12362154D02*
X5610048Y-12381202D01*
X5610048Y-12381202D02*
X5610048Y-12485964D01*
X5705286Y-12485964D02*
X5705286Y-12352630D01*
X5705286Y-12371678D02*
X5714810Y-12362154D01*
X5714810Y-12362154D02*
X5733858Y-12352630D01*
X5733858Y-12352630D02*
X5762429Y-12352630D01*
X5762429Y-12352630D02*
X5781477Y-12362154D01*
X5781477Y-12362154D02*
X5791001Y-12381202D01*
X5791001Y-12381202D02*
X5791001Y-12485964D01*
X5791001Y-12381202D02*
X5800524Y-12362154D01*
X5800524Y-12362154D02*
X5819572Y-12352630D01*
X5819572Y-12352630D02*
X5848143Y-12352630D01*
X5848143Y-12352630D02*
X5867191Y-12362154D01*
X5867191Y-12362154D02*
X5876715Y-12381202D01*
X5876715Y-12381202D02*
X5876715Y-12485964D01*
X6267191Y-12276440D02*
X6095763Y-12533583D01*
X6524334Y-12285964D02*
X6543382Y-12285964D01*
X6543382Y-12285964D02*
X6562429Y-12295488D01*
X6562429Y-12295488D02*
X6571953Y-12305011D01*
X6571953Y-12305011D02*
X6581477Y-12324059D01*
X6581477Y-12324059D02*
X6591001Y-12362154D01*
X6591001Y-12362154D02*
X6591001Y-12409773D01*
X6591001Y-12409773D02*
X6581477Y-12447868D01*
X6581477Y-12447868D02*
X6571953Y-12466916D01*
X6571953Y-12466916D02*
X6562429Y-12476440D01*
X6562429Y-12476440D02*
X6543382Y-12485964D01*
X6543382Y-12485964D02*
X6524334Y-12485964D01*
X6524334Y-12485964D02*
X6505286Y-12476440D01*
X6505286Y-12476440D02*
X6495763Y-12466916D01*
X6495763Y-12466916D02*
X6486239Y-12447868D01*
X6486239Y-12447868D02*
X6476715Y-12409773D01*
X6476715Y-12409773D02*
X6476715Y-12362154D01*
X6476715Y-12362154D02*
X6486239Y-12324059D01*
X6486239Y-12324059D02*
X6495763Y-12305011D01*
X6495763Y-12305011D02*
X6505286Y-12295488D01*
X6505286Y-12295488D02*
X6524334Y-12285964D01*
X6676715Y-12466916D02*
X6686239Y-12476440D01*
X6686239Y-12476440D02*
X6676715Y-12485964D01*
X6676715Y-12485964D02*
X6667191Y-12476440D01*
X6667191Y-12476440D02*
X6676715Y-12466916D01*
X6676715Y-12466916D02*
X6676715Y-12485964D01*
X6810048Y-12285964D02*
X6829096Y-12285964D01*
X6829096Y-12285964D02*
X6848144Y-12295488D01*
X6848144Y-12295488D02*
X6857667Y-12305011D01*
X6857667Y-12305011D02*
X6867191Y-12324059D01*
X6867191Y-12324059D02*
X6876715Y-12362154D01*
X6876715Y-12362154D02*
X6876715Y-12409773D01*
X6876715Y-12409773D02*
X6867191Y-12447868D01*
X6867191Y-12447868D02*
X6857667Y-12466916D01*
X6857667Y-12466916D02*
X6848144Y-12476440D01*
X6848144Y-12476440D02*
X6829096Y-12485964D01*
X6829096Y-12485964D02*
X6810048Y-12485964D01*
X6810048Y-12485964D02*
X6791001Y-12476440D01*
X6791001Y-12476440D02*
X6781477Y-12466916D01*
X6781477Y-12466916D02*
X6771953Y-12447868D01*
X6771953Y-12447868D02*
X6762429Y-12409773D01*
X6762429Y-12409773D02*
X6762429Y-12362154D01*
X6762429Y-12362154D02*
X6771953Y-12324059D01*
X6771953Y-12324059D02*
X6781477Y-12305011D01*
X6781477Y-12305011D02*
X6791001Y-12295488D01*
X6791001Y-12295488D02*
X6810048Y-12285964D01*
X6943382Y-12285964D02*
X7067191Y-12285964D01*
X7067191Y-12285964D02*
X7000525Y-12362154D01*
X7000525Y-12362154D02*
X7029096Y-12362154D01*
X7029096Y-12362154D02*
X7048144Y-12371678D01*
X7048144Y-12371678D02*
X7057667Y-12381202D01*
X7057667Y-12381202D02*
X7067191Y-12400249D01*
X7067191Y-12400249D02*
X7067191Y-12447868D01*
X7067191Y-12447868D02*
X7057667Y-12466916D01*
X7057667Y-12466916D02*
X7048144Y-12476440D01*
X7048144Y-12476440D02*
X7029096Y-12485964D01*
X7029096Y-12485964D02*
X6971953Y-12485964D01*
X6971953Y-12485964D02*
X6952906Y-12476440D01*
X6952906Y-12476440D02*
X6943382Y-12466916D01*
X7162429Y-12485964D02*
X7200525Y-12485964D01*
X7200525Y-12485964D02*
X7219572Y-12476440D01*
X7219572Y-12476440D02*
X7229096Y-12466916D01*
X7229096Y-12466916D02*
X7248144Y-12438345D01*
X7248144Y-12438345D02*
X7257667Y-12400249D01*
X7257667Y-12400249D02*
X7257667Y-12324059D01*
X7257667Y-12324059D02*
X7248144Y-12305011D01*
X7248144Y-12305011D02*
X7238620Y-12295488D01*
X7238620Y-12295488D02*
X7219572Y-12285964D01*
X7219572Y-12285964D02*
X7181477Y-12285964D01*
X7181477Y-12285964D02*
X7162429Y-12295488D01*
X7162429Y-12295488D02*
X7152906Y-12305011D01*
X7152906Y-12305011D02*
X7143382Y-12324059D01*
X7143382Y-12324059D02*
X7143382Y-12371678D01*
X7143382Y-12371678D02*
X7152906Y-12390726D01*
X7152906Y-12390726D02*
X7162429Y-12400249D01*
X7162429Y-12400249D02*
X7181477Y-12409773D01*
X7181477Y-12409773D02*
X7219572Y-12409773D01*
X7219572Y-12409773D02*
X7238620Y-12400249D01*
X7238620Y-12400249D02*
X7248144Y-12390726D01*
X7248144Y-12390726D02*
X7257667Y-12371678D01*
X7429096Y-12352630D02*
X7429096Y-12485964D01*
X7381477Y-12276440D02*
X7333858Y-12419297D01*
X7333858Y-12419297D02*
X7457667Y-12419297D01*
X7524334Y-12285964D02*
X7524334Y-12324059D01*
X7600525Y-12285964D02*
X7600525Y-12324059D01*
X7895763Y-12562154D02*
X7886239Y-12552630D01*
X7886239Y-12552630D02*
X7867191Y-12524059D01*
X7867191Y-12524059D02*
X7857668Y-12505011D01*
X7857668Y-12505011D02*
X7848144Y-12476440D01*
X7848144Y-12476440D02*
X7838620Y-12428821D01*
X7838620Y-12428821D02*
X7838620Y-12390726D01*
X7838620Y-12390726D02*
X7848144Y-12343107D01*
X7848144Y-12343107D02*
X7857668Y-12314535D01*
X7857668Y-12314535D02*
X7867191Y-12295488D01*
X7867191Y-12295488D02*
X7886239Y-12266916D01*
X7886239Y-12266916D02*
X7895763Y-12257392D01*
X8057668Y-12352630D02*
X8057668Y-12485964D01*
X8010048Y-12276440D02*
X7962429Y-12419297D01*
X7962429Y-12419297D02*
X8086239Y-12419297D01*
X8314810Y-12485964D02*
X8314810Y-12285964D01*
X8400525Y-12485964D02*
X8400525Y-12381202D01*
X8400525Y-12381202D02*
X8391001Y-12362154D01*
X8391001Y-12362154D02*
X8371953Y-12352630D01*
X8371953Y-12352630D02*
X8343382Y-12352630D01*
X8343382Y-12352630D02*
X8324334Y-12362154D01*
X8324334Y-12362154D02*
X8314810Y-12371678D01*
X8524334Y-12485964D02*
X8505287Y-12476440D01*
X8505287Y-12476440D02*
X8495763Y-12466916D01*
X8495763Y-12466916D02*
X8486239Y-12447868D01*
X8486239Y-12447868D02*
X8486239Y-12390726D01*
X8486239Y-12390726D02*
X8495763Y-12371678D01*
X8495763Y-12371678D02*
X8505287Y-12362154D01*
X8505287Y-12362154D02*
X8524334Y-12352630D01*
X8524334Y-12352630D02*
X8552906Y-12352630D01*
X8552906Y-12352630D02*
X8571953Y-12362154D01*
X8571953Y-12362154D02*
X8581477Y-12371678D01*
X8581477Y-12371678D02*
X8591001Y-12390726D01*
X8591001Y-12390726D02*
X8591001Y-12447868D01*
X8591001Y-12447868D02*
X8581477Y-12466916D01*
X8581477Y-12466916D02*
X8571953Y-12476440D01*
X8571953Y-12476440D02*
X8552906Y-12485964D01*
X8552906Y-12485964D02*
X8524334Y-12485964D01*
X8705287Y-12485964D02*
X8686239Y-12476440D01*
X8686239Y-12476440D02*
X8676715Y-12457392D01*
X8676715Y-12457392D02*
X8676715Y-12285964D01*
X8857668Y-12476440D02*
X8838620Y-12485964D01*
X8838620Y-12485964D02*
X8800525Y-12485964D01*
X8800525Y-12485964D02*
X8781477Y-12476440D01*
X8781477Y-12476440D02*
X8771953Y-12457392D01*
X8771953Y-12457392D02*
X8771953Y-12381202D01*
X8771953Y-12381202D02*
X8781477Y-12362154D01*
X8781477Y-12362154D02*
X8800525Y-12352630D01*
X8800525Y-12352630D02*
X8838620Y-12352630D01*
X8838620Y-12352630D02*
X8857668Y-12362154D01*
X8857668Y-12362154D02*
X8867192Y-12381202D01*
X8867192Y-12381202D02*
X8867192Y-12400249D01*
X8867192Y-12400249D02*
X8771953Y-12419297D01*
X8943382Y-12476440D02*
X8962430Y-12485964D01*
X8962430Y-12485964D02*
X9000525Y-12485964D01*
X9000525Y-12485964D02*
X9019573Y-12476440D01*
X9019573Y-12476440D02*
X9029096Y-12457392D01*
X9029096Y-12457392D02*
X9029096Y-12447868D01*
X9029096Y-12447868D02*
X9019573Y-12428821D01*
X9019573Y-12428821D02*
X9000525Y-12419297D01*
X9000525Y-12419297D02*
X8971953Y-12419297D01*
X8971953Y-12419297D02*
X8952906Y-12409773D01*
X8952906Y-12409773D02*
X8943382Y-12390726D01*
X8943382Y-12390726D02*
X8943382Y-12381202D01*
X8943382Y-12381202D02*
X8952906Y-12362154D01*
X8952906Y-12362154D02*
X8971953Y-12352630D01*
X8971953Y-12352630D02*
X9000525Y-12352630D01*
X9000525Y-12352630D02*
X9019573Y-12362154D01*
X9095763Y-12562154D02*
X9105287Y-12552630D01*
X9105287Y-12552630D02*
X9124334Y-12524059D01*
X9124334Y-12524059D02*
X9133858Y-12505011D01*
X9133858Y-12505011D02*
X9143382Y-12476440D01*
X9143382Y-12476440D02*
X9152906Y-12428821D01*
X9152906Y-12428821D02*
X9152906Y-12390726D01*
X9152906Y-12390726D02*
X9143382Y-12343107D01*
X9143382Y-12343107D02*
X9133858Y-12314535D01*
X9133858Y-12314535D02*
X9124334Y-12295488D01*
X9124334Y-12295488D02*
X9105287Y-12266916D01*
X9105287Y-12266916D02*
X9095763Y-12257392D01*
D12*
X4233200Y-12745980D02*
X4320700Y-12658480D01*
X4233200Y-12570980D01*
X4145700Y-12658480D01*
X4233200Y-12745980D01*
D10*
X4686239Y-12749964D02*
X4571953Y-12749964D01*
X4629096Y-12749964D02*
X4629096Y-12549964D01*
X4629096Y-12549964D02*
X4610048Y-12578535D01*
X4610048Y-12578535D02*
X4591001Y-12597583D01*
X4591001Y-12597583D02*
X4571953Y-12607107D01*
X4771953Y-12730916D02*
X4781477Y-12740440D01*
X4781477Y-12740440D02*
X4771953Y-12749964D01*
X4771953Y-12749964D02*
X4762429Y-12740440D01*
X4762429Y-12740440D02*
X4771953Y-12730916D01*
X4771953Y-12730916D02*
X4771953Y-12749964D01*
X4848144Y-12549964D02*
X4981477Y-12549964D01*
X4981477Y-12549964D02*
X4895763Y-12749964D01*
X5152905Y-12549964D02*
X5057667Y-12549964D01*
X5057667Y-12549964D02*
X5048144Y-12645202D01*
X5048144Y-12645202D02*
X5057667Y-12635678D01*
X5057667Y-12635678D02*
X5076715Y-12626154D01*
X5076715Y-12626154D02*
X5124334Y-12626154D01*
X5124334Y-12626154D02*
X5143382Y-12635678D01*
X5143382Y-12635678D02*
X5152905Y-12645202D01*
X5152905Y-12645202D02*
X5162429Y-12664249D01*
X5162429Y-12664249D02*
X5162429Y-12711868D01*
X5162429Y-12711868D02*
X5152905Y-12730916D01*
X5152905Y-12730916D02*
X5143382Y-12740440D01*
X5143382Y-12740440D02*
X5124334Y-12749964D01*
X5124334Y-12749964D02*
X5076715Y-12749964D01*
X5076715Y-12749964D02*
X5057667Y-12740440D01*
X5057667Y-12740440D02*
X5048144Y-12730916D01*
X5286239Y-12549964D02*
X5305286Y-12549964D01*
X5305286Y-12549964D02*
X5324334Y-12559488D01*
X5324334Y-12559488D02*
X5333858Y-12569011D01*
X5333858Y-12569011D02*
X5343382Y-12588059D01*
X5343382Y-12588059D02*
X5352905Y-12626154D01*
X5352905Y-12626154D02*
X5352905Y-12673773D01*
X5352905Y-12673773D02*
X5343382Y-12711868D01*
X5343382Y-12711868D02*
X5333858Y-12730916D01*
X5333858Y-12730916D02*
X5324334Y-12740440D01*
X5324334Y-12740440D02*
X5305286Y-12749964D01*
X5305286Y-12749964D02*
X5286239Y-12749964D01*
X5286239Y-12749964D02*
X5267191Y-12740440D01*
X5267191Y-12740440D02*
X5257667Y-12730916D01*
X5257667Y-12730916D02*
X5248144Y-12711868D01*
X5248144Y-12711868D02*
X5238620Y-12673773D01*
X5238620Y-12673773D02*
X5238620Y-12626154D01*
X5238620Y-12626154D02*
X5248144Y-12588059D01*
X5248144Y-12588059D02*
X5257667Y-12569011D01*
X5257667Y-12569011D02*
X5267191Y-12559488D01*
X5267191Y-12559488D02*
X5286239Y-12549964D01*
X5438620Y-12749964D02*
X5438620Y-12616630D01*
X5438620Y-12635678D02*
X5448144Y-12626154D01*
X5448144Y-12626154D02*
X5467191Y-12616630D01*
X5467191Y-12616630D02*
X5495763Y-12616630D01*
X5495763Y-12616630D02*
X5514810Y-12626154D01*
X5514810Y-12626154D02*
X5524334Y-12645202D01*
X5524334Y-12645202D02*
X5524334Y-12749964D01*
X5524334Y-12645202D02*
X5533858Y-12626154D01*
X5533858Y-12626154D02*
X5552905Y-12616630D01*
X5552905Y-12616630D02*
X5581477Y-12616630D01*
X5581477Y-12616630D02*
X5600524Y-12626154D01*
X5600524Y-12626154D02*
X5610048Y-12645202D01*
X5610048Y-12645202D02*
X5610048Y-12749964D01*
X5705286Y-12749964D02*
X5705286Y-12616630D01*
X5705286Y-12635678D02*
X5714810Y-12626154D01*
X5714810Y-12626154D02*
X5733858Y-12616630D01*
X5733858Y-12616630D02*
X5762429Y-12616630D01*
X5762429Y-12616630D02*
X5781477Y-12626154D01*
X5781477Y-12626154D02*
X5791001Y-12645202D01*
X5791001Y-12645202D02*
X5791001Y-12749964D01*
X5791001Y-12645202D02*
X5800524Y-12626154D01*
X5800524Y-12626154D02*
X5819572Y-12616630D01*
X5819572Y-12616630D02*
X5848143Y-12616630D01*
X5848143Y-12616630D02*
X5867191Y-12626154D01*
X5867191Y-12626154D02*
X5876715Y-12645202D01*
X5876715Y-12645202D02*
X5876715Y-12749964D01*
X6267191Y-12540440D02*
X6095763Y-12797583D01*
X6524334Y-12549964D02*
X6543382Y-12549964D01*
X6543382Y-12549964D02*
X6562429Y-12559488D01*
X6562429Y-12559488D02*
X6571953Y-12569011D01*
X6571953Y-12569011D02*
X6581477Y-12588059D01*
X6581477Y-12588059D02*
X6591001Y-12626154D01*
X6591001Y-12626154D02*
X6591001Y-12673773D01*
X6591001Y-12673773D02*
X6581477Y-12711868D01*
X6581477Y-12711868D02*
X6571953Y-12730916D01*
X6571953Y-12730916D02*
X6562429Y-12740440D01*
X6562429Y-12740440D02*
X6543382Y-12749964D01*
X6543382Y-12749964D02*
X6524334Y-12749964D01*
X6524334Y-12749964D02*
X6505286Y-12740440D01*
X6505286Y-12740440D02*
X6495763Y-12730916D01*
X6495763Y-12730916D02*
X6486239Y-12711868D01*
X6486239Y-12711868D02*
X6476715Y-12673773D01*
X6476715Y-12673773D02*
X6476715Y-12626154D01*
X6476715Y-12626154D02*
X6486239Y-12588059D01*
X6486239Y-12588059D02*
X6495763Y-12569011D01*
X6495763Y-12569011D02*
X6505286Y-12559488D01*
X6505286Y-12559488D02*
X6524334Y-12549964D01*
X6676715Y-12730916D02*
X6686239Y-12740440D01*
X6686239Y-12740440D02*
X6676715Y-12749964D01*
X6676715Y-12749964D02*
X6667191Y-12740440D01*
X6667191Y-12740440D02*
X6676715Y-12730916D01*
X6676715Y-12730916D02*
X6676715Y-12749964D01*
X6810048Y-12549964D02*
X6829096Y-12549964D01*
X6829096Y-12549964D02*
X6848144Y-12559488D01*
X6848144Y-12559488D02*
X6857667Y-12569011D01*
X6857667Y-12569011D02*
X6867191Y-12588059D01*
X6867191Y-12588059D02*
X6876715Y-12626154D01*
X6876715Y-12626154D02*
X6876715Y-12673773D01*
X6876715Y-12673773D02*
X6867191Y-12711868D01*
X6867191Y-12711868D02*
X6857667Y-12730916D01*
X6857667Y-12730916D02*
X6848144Y-12740440D01*
X6848144Y-12740440D02*
X6829096Y-12749964D01*
X6829096Y-12749964D02*
X6810048Y-12749964D01*
X6810048Y-12749964D02*
X6791001Y-12740440D01*
X6791001Y-12740440D02*
X6781477Y-12730916D01*
X6781477Y-12730916D02*
X6771953Y-12711868D01*
X6771953Y-12711868D02*
X6762429Y-12673773D01*
X6762429Y-12673773D02*
X6762429Y-12626154D01*
X6762429Y-12626154D02*
X6771953Y-12588059D01*
X6771953Y-12588059D02*
X6781477Y-12569011D01*
X6781477Y-12569011D02*
X6791001Y-12559488D01*
X6791001Y-12559488D02*
X6810048Y-12549964D01*
X7048144Y-12549964D02*
X7010048Y-12549964D01*
X7010048Y-12549964D02*
X6991001Y-12559488D01*
X6991001Y-12559488D02*
X6981477Y-12569011D01*
X6981477Y-12569011D02*
X6962429Y-12597583D01*
X6962429Y-12597583D02*
X6952906Y-12635678D01*
X6952906Y-12635678D02*
X6952906Y-12711868D01*
X6952906Y-12711868D02*
X6962429Y-12730916D01*
X6962429Y-12730916D02*
X6971953Y-12740440D01*
X6971953Y-12740440D02*
X6991001Y-12749964D01*
X6991001Y-12749964D02*
X7029096Y-12749964D01*
X7029096Y-12749964D02*
X7048144Y-12740440D01*
X7048144Y-12740440D02*
X7057667Y-12730916D01*
X7057667Y-12730916D02*
X7067191Y-12711868D01*
X7067191Y-12711868D02*
X7067191Y-12664249D01*
X7067191Y-12664249D02*
X7057667Y-12645202D01*
X7057667Y-12645202D02*
X7048144Y-12635678D01*
X7048144Y-12635678D02*
X7029096Y-12626154D01*
X7029096Y-12626154D02*
X6991001Y-12626154D01*
X6991001Y-12626154D02*
X6971953Y-12635678D01*
X6971953Y-12635678D02*
X6962429Y-12645202D01*
X6962429Y-12645202D02*
X6952906Y-12664249D01*
X7181477Y-12635678D02*
X7162429Y-12626154D01*
X7162429Y-12626154D02*
X7152906Y-12616630D01*
X7152906Y-12616630D02*
X7143382Y-12597583D01*
X7143382Y-12597583D02*
X7143382Y-12588059D01*
X7143382Y-12588059D02*
X7152906Y-12569011D01*
X7152906Y-12569011D02*
X7162429Y-12559488D01*
X7162429Y-12559488D02*
X7181477Y-12549964D01*
X7181477Y-12549964D02*
X7219572Y-12549964D01*
X7219572Y-12549964D02*
X7238620Y-12559488D01*
X7238620Y-12559488D02*
X7248144Y-12569011D01*
X7248144Y-12569011D02*
X7257667Y-12588059D01*
X7257667Y-12588059D02*
X7257667Y-12597583D01*
X7257667Y-12597583D02*
X7248144Y-12616630D01*
X7248144Y-12616630D02*
X7238620Y-12626154D01*
X7238620Y-12626154D02*
X7219572Y-12635678D01*
X7219572Y-12635678D02*
X7181477Y-12635678D01*
X7181477Y-12635678D02*
X7162429Y-12645202D01*
X7162429Y-12645202D02*
X7152906Y-12654726D01*
X7152906Y-12654726D02*
X7143382Y-12673773D01*
X7143382Y-12673773D02*
X7143382Y-12711868D01*
X7143382Y-12711868D02*
X7152906Y-12730916D01*
X7152906Y-12730916D02*
X7162429Y-12740440D01*
X7162429Y-12740440D02*
X7181477Y-12749964D01*
X7181477Y-12749964D02*
X7219572Y-12749964D01*
X7219572Y-12749964D02*
X7238620Y-12740440D01*
X7238620Y-12740440D02*
X7248144Y-12730916D01*
X7248144Y-12730916D02*
X7257667Y-12711868D01*
X7257667Y-12711868D02*
X7257667Y-12673773D01*
X7257667Y-12673773D02*
X7248144Y-12654726D01*
X7248144Y-12654726D02*
X7238620Y-12645202D01*
X7238620Y-12645202D02*
X7219572Y-12635678D01*
X7352906Y-12749964D02*
X7391001Y-12749964D01*
X7391001Y-12749964D02*
X7410048Y-12740440D01*
X7410048Y-12740440D02*
X7419572Y-12730916D01*
X7419572Y-12730916D02*
X7438620Y-12702345D01*
X7438620Y-12702345D02*
X7448144Y-12664249D01*
X7448144Y-12664249D02*
X7448144Y-12588059D01*
X7448144Y-12588059D02*
X7438620Y-12569011D01*
X7438620Y-12569011D02*
X7429096Y-12559488D01*
X7429096Y-12559488D02*
X7410048Y-12549964D01*
X7410048Y-12549964D02*
X7371953Y-12549964D01*
X7371953Y-12549964D02*
X7352906Y-12559488D01*
X7352906Y-12559488D02*
X7343382Y-12569011D01*
X7343382Y-12569011D02*
X7333858Y-12588059D01*
X7333858Y-12588059D02*
X7333858Y-12635678D01*
X7333858Y-12635678D02*
X7343382Y-12654726D01*
X7343382Y-12654726D02*
X7352906Y-12664249D01*
X7352906Y-12664249D02*
X7371953Y-12673773D01*
X7371953Y-12673773D02*
X7410048Y-12673773D01*
X7410048Y-12673773D02*
X7429096Y-12664249D01*
X7429096Y-12664249D02*
X7438620Y-12654726D01*
X7438620Y-12654726D02*
X7448144Y-12635678D01*
X7524334Y-12549964D02*
X7524334Y-12588059D01*
X7600525Y-12549964D02*
X7600525Y-12588059D01*
X7895763Y-12826154D02*
X7886239Y-12816630D01*
X7886239Y-12816630D02*
X7867191Y-12788059D01*
X7867191Y-12788059D02*
X7857668Y-12769011D01*
X7857668Y-12769011D02*
X7848144Y-12740440D01*
X7848144Y-12740440D02*
X7838620Y-12692821D01*
X7838620Y-12692821D02*
X7838620Y-12654726D01*
X7838620Y-12654726D02*
X7848144Y-12607107D01*
X7848144Y-12607107D02*
X7857668Y-12578535D01*
X7857668Y-12578535D02*
X7867191Y-12559488D01*
X7867191Y-12559488D02*
X7886239Y-12530916D01*
X7886239Y-12530916D02*
X7895763Y-12521392D01*
X7952906Y-12549964D02*
X8076715Y-12549964D01*
X8076715Y-12549964D02*
X8010048Y-12626154D01*
X8010048Y-12626154D02*
X8038620Y-12626154D01*
X8038620Y-12626154D02*
X8057668Y-12635678D01*
X8057668Y-12635678D02*
X8067191Y-12645202D01*
X8067191Y-12645202D02*
X8076715Y-12664249D01*
X8076715Y-12664249D02*
X8076715Y-12711868D01*
X8076715Y-12711868D02*
X8067191Y-12730916D01*
X8067191Y-12730916D02*
X8057668Y-12740440D01*
X8057668Y-12740440D02*
X8038620Y-12749964D01*
X8038620Y-12749964D02*
X7981477Y-12749964D01*
X7981477Y-12749964D02*
X7962429Y-12740440D01*
X7962429Y-12740440D02*
X7952906Y-12730916D01*
X8314810Y-12749964D02*
X8314810Y-12549964D01*
X8400525Y-12749964D02*
X8400525Y-12645202D01*
X8400525Y-12645202D02*
X8391001Y-12626154D01*
X8391001Y-12626154D02*
X8371953Y-12616630D01*
X8371953Y-12616630D02*
X8343382Y-12616630D01*
X8343382Y-12616630D02*
X8324334Y-12626154D01*
X8324334Y-12626154D02*
X8314810Y-12635678D01*
X8524334Y-12749964D02*
X8505287Y-12740440D01*
X8505287Y-12740440D02*
X8495763Y-12730916D01*
X8495763Y-12730916D02*
X8486239Y-12711868D01*
X8486239Y-12711868D02*
X8486239Y-12654726D01*
X8486239Y-12654726D02*
X8495763Y-12635678D01*
X8495763Y-12635678D02*
X8505287Y-12626154D01*
X8505287Y-12626154D02*
X8524334Y-12616630D01*
X8524334Y-12616630D02*
X8552906Y-12616630D01*
X8552906Y-12616630D02*
X8571953Y-12626154D01*
X8571953Y-12626154D02*
X8581477Y-12635678D01*
X8581477Y-12635678D02*
X8591001Y-12654726D01*
X8591001Y-12654726D02*
X8591001Y-12711868D01*
X8591001Y-12711868D02*
X8581477Y-12730916D01*
X8581477Y-12730916D02*
X8571953Y-12740440D01*
X8571953Y-12740440D02*
X8552906Y-12749964D01*
X8552906Y-12749964D02*
X8524334Y-12749964D01*
X8705287Y-12749964D02*
X8686239Y-12740440D01*
X8686239Y-12740440D02*
X8676715Y-12721392D01*
X8676715Y-12721392D02*
X8676715Y-12549964D01*
X8857668Y-12740440D02*
X8838620Y-12749964D01*
X8838620Y-12749964D02*
X8800525Y-12749964D01*
X8800525Y-12749964D02*
X8781477Y-12740440D01*
X8781477Y-12740440D02*
X8771953Y-12721392D01*
X8771953Y-12721392D02*
X8771953Y-12645202D01*
X8771953Y-12645202D02*
X8781477Y-12626154D01*
X8781477Y-12626154D02*
X8800525Y-12616630D01*
X8800525Y-12616630D02*
X8838620Y-12616630D01*
X8838620Y-12616630D02*
X8857668Y-12626154D01*
X8857668Y-12626154D02*
X8867192Y-12645202D01*
X8867192Y-12645202D02*
X8867192Y-12664249D01*
X8867192Y-12664249D02*
X8771953Y-12683297D01*
X8943382Y-12740440D02*
X8962430Y-12749964D01*
X8962430Y-12749964D02*
X9000525Y-12749964D01*
X9000525Y-12749964D02*
X9019573Y-12740440D01*
X9019573Y-12740440D02*
X9029096Y-12721392D01*
X9029096Y-12721392D02*
X9029096Y-12711868D01*
X9029096Y-12711868D02*
X9019573Y-12692821D01*
X9019573Y-12692821D02*
X9000525Y-12683297D01*
X9000525Y-12683297D02*
X8971953Y-12683297D01*
X8971953Y-12683297D02*
X8952906Y-12673773D01*
X8952906Y-12673773D02*
X8943382Y-12654726D01*
X8943382Y-12654726D02*
X8943382Y-12645202D01*
X8943382Y-12645202D02*
X8952906Y-12626154D01*
X8952906Y-12626154D02*
X8971953Y-12616630D01*
X8971953Y-12616630D02*
X9000525Y-12616630D01*
X9000525Y-12616630D02*
X9019573Y-12626154D01*
X9095763Y-12826154D02*
X9105287Y-12816630D01*
X9105287Y-12816630D02*
X9124334Y-12788059D01*
X9124334Y-12788059D02*
X9133858Y-12769011D01*
X9133858Y-12769011D02*
X9143382Y-12740440D01*
X9143382Y-12740440D02*
X9152906Y-12692821D01*
X9152906Y-12692821D02*
X9152906Y-12654726D01*
X9152906Y-12654726D02*
X9143382Y-12607107D01*
X9143382Y-12607107D02*
X9133858Y-12578535D01*
X9133858Y-12578535D02*
X9124334Y-12559488D01*
X9124334Y-12559488D02*
X9105287Y-12530916D01*
X9105287Y-12530916D02*
X9095763Y-12521392D01*
X4120700Y-12853480D02*
X4320700Y-13053480D01*
X4320700Y-12853480D02*
X4120700Y-13053480D01*
X4320700Y-12953480D02*
G75*
G02*
X4120700Y-12953480I-100000J0D01*
G01*
X4120700Y-12953480D02*
G75*
G02*
X4320700Y-12953480I100000J0D01*
G01*
X4562429Y-12844964D02*
X4686239Y-12844964D01*
X4686239Y-12844964D02*
X4619572Y-12921154D01*
X4619572Y-12921154D02*
X4648144Y-12921154D01*
X4648144Y-12921154D02*
X4667191Y-12930678D01*
X4667191Y-12930678D02*
X4676715Y-12940202D01*
X4676715Y-12940202D02*
X4686239Y-12959249D01*
X4686239Y-12959249D02*
X4686239Y-13006868D01*
X4686239Y-13006868D02*
X4676715Y-13025916D01*
X4676715Y-13025916D02*
X4667191Y-13035440D01*
X4667191Y-13035440D02*
X4648144Y-13044964D01*
X4648144Y-13044964D02*
X4591001Y-13044964D01*
X4591001Y-13044964D02*
X4571953Y-13035440D01*
X4571953Y-13035440D02*
X4562429Y-13025916D01*
X4771953Y-13025916D02*
X4781477Y-13035440D01*
X4781477Y-13035440D02*
X4771953Y-13044964D01*
X4771953Y-13044964D02*
X4762429Y-13035440D01*
X4762429Y-13035440D02*
X4771953Y-13025916D01*
X4771953Y-13025916D02*
X4771953Y-13044964D01*
X4905286Y-12844964D02*
X4924334Y-12844964D01*
X4924334Y-12844964D02*
X4943382Y-12854488D01*
X4943382Y-12854488D02*
X4952905Y-12864011D01*
X4952905Y-12864011D02*
X4962429Y-12883059D01*
X4962429Y-12883059D02*
X4971953Y-12921154D01*
X4971953Y-12921154D02*
X4971953Y-12968773D01*
X4971953Y-12968773D02*
X4962429Y-13006868D01*
X4962429Y-13006868D02*
X4952905Y-13025916D01*
X4952905Y-13025916D02*
X4943382Y-13035440D01*
X4943382Y-13035440D02*
X4924334Y-13044964D01*
X4924334Y-13044964D02*
X4905286Y-13044964D01*
X4905286Y-13044964D02*
X4886239Y-13035440D01*
X4886239Y-13035440D02*
X4876715Y-13025916D01*
X4876715Y-13025916D02*
X4867191Y-13006868D01*
X4867191Y-13006868D02*
X4857667Y-12968773D01*
X4857667Y-12968773D02*
X4857667Y-12921154D01*
X4857667Y-12921154D02*
X4867191Y-12883059D01*
X4867191Y-12883059D02*
X4876715Y-12864011D01*
X4876715Y-12864011D02*
X4886239Y-12854488D01*
X4886239Y-12854488D02*
X4905286Y-12844964D01*
X5095763Y-12844964D02*
X5114810Y-12844964D01*
X5114810Y-12844964D02*
X5133858Y-12854488D01*
X5133858Y-12854488D02*
X5143382Y-12864011D01*
X5143382Y-12864011D02*
X5152905Y-12883059D01*
X5152905Y-12883059D02*
X5162429Y-12921154D01*
X5162429Y-12921154D02*
X5162429Y-12968773D01*
X5162429Y-12968773D02*
X5152905Y-13006868D01*
X5152905Y-13006868D02*
X5143382Y-13025916D01*
X5143382Y-13025916D02*
X5133858Y-13035440D01*
X5133858Y-13035440D02*
X5114810Y-13044964D01*
X5114810Y-13044964D02*
X5095763Y-13044964D01*
X5095763Y-13044964D02*
X5076715Y-13035440D01*
X5076715Y-13035440D02*
X5067191Y-13025916D01*
X5067191Y-13025916D02*
X5057667Y-13006868D01*
X5057667Y-13006868D02*
X5048144Y-12968773D01*
X5048144Y-12968773D02*
X5048144Y-12921154D01*
X5048144Y-12921154D02*
X5057667Y-12883059D01*
X5057667Y-12883059D02*
X5067191Y-12864011D01*
X5067191Y-12864011D02*
X5076715Y-12854488D01*
X5076715Y-12854488D02*
X5095763Y-12844964D01*
X5286239Y-12844964D02*
X5305286Y-12844964D01*
X5305286Y-12844964D02*
X5324334Y-12854488D01*
X5324334Y-12854488D02*
X5333858Y-12864011D01*
X5333858Y-12864011D02*
X5343382Y-12883059D01*
X5343382Y-12883059D02*
X5352905Y-12921154D01*
X5352905Y-12921154D02*
X5352905Y-12968773D01*
X5352905Y-12968773D02*
X5343382Y-13006868D01*
X5343382Y-13006868D02*
X5333858Y-13025916D01*
X5333858Y-13025916D02*
X5324334Y-13035440D01*
X5324334Y-13035440D02*
X5305286Y-13044964D01*
X5305286Y-13044964D02*
X5286239Y-13044964D01*
X5286239Y-13044964D02*
X5267191Y-13035440D01*
X5267191Y-13035440D02*
X5257667Y-13025916D01*
X5257667Y-13025916D02*
X5248144Y-13006868D01*
X5248144Y-13006868D02*
X5238620Y-12968773D01*
X5238620Y-12968773D02*
X5238620Y-12921154D01*
X5238620Y-12921154D02*
X5248144Y-12883059D01*
X5248144Y-12883059D02*
X5257667Y-12864011D01*
X5257667Y-12864011D02*
X5267191Y-12854488D01*
X5267191Y-12854488D02*
X5286239Y-12844964D01*
X5438620Y-13044964D02*
X5438620Y-12911630D01*
X5438620Y-12930678D02*
X5448144Y-12921154D01*
X5448144Y-12921154D02*
X5467191Y-12911630D01*
X5467191Y-12911630D02*
X5495763Y-12911630D01*
X5495763Y-12911630D02*
X5514810Y-12921154D01*
X5514810Y-12921154D02*
X5524334Y-12940202D01*
X5524334Y-12940202D02*
X5524334Y-13044964D01*
X5524334Y-12940202D02*
X5533858Y-12921154D01*
X5533858Y-12921154D02*
X5552905Y-12911630D01*
X5552905Y-12911630D02*
X5581477Y-12911630D01*
X5581477Y-12911630D02*
X5600524Y-12921154D01*
X5600524Y-12921154D02*
X5610048Y-12940202D01*
X5610048Y-12940202D02*
X5610048Y-13044964D01*
X5705286Y-13044964D02*
X5705286Y-12911630D01*
X5705286Y-12930678D02*
X5714810Y-12921154D01*
X5714810Y-12921154D02*
X5733858Y-12911630D01*
X5733858Y-12911630D02*
X5762429Y-12911630D01*
X5762429Y-12911630D02*
X5781477Y-12921154D01*
X5781477Y-12921154D02*
X5791001Y-12940202D01*
X5791001Y-12940202D02*
X5791001Y-13044964D01*
X5791001Y-12940202D02*
X5800524Y-12921154D01*
X5800524Y-12921154D02*
X5819572Y-12911630D01*
X5819572Y-12911630D02*
X5848143Y-12911630D01*
X5848143Y-12911630D02*
X5867191Y-12921154D01*
X5867191Y-12921154D02*
X5876715Y-12940202D01*
X5876715Y-12940202D02*
X5876715Y-13044964D01*
X6267191Y-12835440D02*
X6095763Y-13092583D01*
X6524334Y-12844964D02*
X6543382Y-12844964D01*
X6543382Y-12844964D02*
X6562429Y-12854488D01*
X6562429Y-12854488D02*
X6571953Y-12864011D01*
X6571953Y-12864011D02*
X6581477Y-12883059D01*
X6581477Y-12883059D02*
X6591001Y-12921154D01*
X6591001Y-12921154D02*
X6591001Y-12968773D01*
X6591001Y-12968773D02*
X6581477Y-13006868D01*
X6581477Y-13006868D02*
X6571953Y-13025916D01*
X6571953Y-13025916D02*
X6562429Y-13035440D01*
X6562429Y-13035440D02*
X6543382Y-13044964D01*
X6543382Y-13044964D02*
X6524334Y-13044964D01*
X6524334Y-13044964D02*
X6505286Y-13035440D01*
X6505286Y-13035440D02*
X6495763Y-13025916D01*
X6495763Y-13025916D02*
X6486239Y-13006868D01*
X6486239Y-13006868D02*
X6476715Y-12968773D01*
X6476715Y-12968773D02*
X6476715Y-12921154D01*
X6476715Y-12921154D02*
X6486239Y-12883059D01*
X6486239Y-12883059D02*
X6495763Y-12864011D01*
X6495763Y-12864011D02*
X6505286Y-12854488D01*
X6505286Y-12854488D02*
X6524334Y-12844964D01*
X6676715Y-13025916D02*
X6686239Y-13035440D01*
X6686239Y-13035440D02*
X6676715Y-13044964D01*
X6676715Y-13044964D02*
X6667191Y-13035440D01*
X6667191Y-13035440D02*
X6676715Y-13025916D01*
X6676715Y-13025916D02*
X6676715Y-13044964D01*
X6876715Y-13044964D02*
X6762429Y-13044964D01*
X6819572Y-13044964D02*
X6819572Y-12844964D01*
X6819572Y-12844964D02*
X6800525Y-12873535D01*
X6800525Y-12873535D02*
X6781477Y-12892583D01*
X6781477Y-12892583D02*
X6762429Y-12902107D01*
X7067191Y-13044964D02*
X6952906Y-13044964D01*
X7010048Y-13044964D02*
X7010048Y-12844964D01*
X7010048Y-12844964D02*
X6991001Y-12873535D01*
X6991001Y-12873535D02*
X6971953Y-12892583D01*
X6971953Y-12892583D02*
X6952906Y-12902107D01*
X7181477Y-12930678D02*
X7162429Y-12921154D01*
X7162429Y-12921154D02*
X7152906Y-12911630D01*
X7152906Y-12911630D02*
X7143382Y-12892583D01*
X7143382Y-12892583D02*
X7143382Y-12883059D01*
X7143382Y-12883059D02*
X7152906Y-12864011D01*
X7152906Y-12864011D02*
X7162429Y-12854488D01*
X7162429Y-12854488D02*
X7181477Y-12844964D01*
X7181477Y-12844964D02*
X7219572Y-12844964D01*
X7219572Y-12844964D02*
X7238620Y-12854488D01*
X7238620Y-12854488D02*
X7248144Y-12864011D01*
X7248144Y-12864011D02*
X7257667Y-12883059D01*
X7257667Y-12883059D02*
X7257667Y-12892583D01*
X7257667Y-12892583D02*
X7248144Y-12911630D01*
X7248144Y-12911630D02*
X7238620Y-12921154D01*
X7238620Y-12921154D02*
X7219572Y-12930678D01*
X7219572Y-12930678D02*
X7181477Y-12930678D01*
X7181477Y-12930678D02*
X7162429Y-12940202D01*
X7162429Y-12940202D02*
X7152906Y-12949726D01*
X7152906Y-12949726D02*
X7143382Y-12968773D01*
X7143382Y-12968773D02*
X7143382Y-13006868D01*
X7143382Y-13006868D02*
X7152906Y-13025916D01*
X7152906Y-13025916D02*
X7162429Y-13035440D01*
X7162429Y-13035440D02*
X7181477Y-13044964D01*
X7181477Y-13044964D02*
X7219572Y-13044964D01*
X7219572Y-13044964D02*
X7238620Y-13035440D01*
X7238620Y-13035440D02*
X7248144Y-13025916D01*
X7248144Y-13025916D02*
X7257667Y-13006868D01*
X7257667Y-13006868D02*
X7257667Y-12968773D01*
X7257667Y-12968773D02*
X7248144Y-12949726D01*
X7248144Y-12949726D02*
X7238620Y-12940202D01*
X7238620Y-12940202D02*
X7219572Y-12930678D01*
X7448144Y-13044964D02*
X7333858Y-13044964D01*
X7391001Y-13044964D02*
X7391001Y-12844964D01*
X7391001Y-12844964D02*
X7371953Y-12873535D01*
X7371953Y-12873535D02*
X7352906Y-12892583D01*
X7352906Y-12892583D02*
X7333858Y-12902107D01*
X7524334Y-12844964D02*
X7524334Y-12883059D01*
X7600525Y-12844964D02*
X7600525Y-12883059D01*
X7895763Y-13121154D02*
X7886239Y-13111630D01*
X7886239Y-13111630D02*
X7867191Y-13083059D01*
X7867191Y-13083059D02*
X7857668Y-13064011D01*
X7857668Y-13064011D02*
X7848144Y-13035440D01*
X7848144Y-13035440D02*
X7838620Y-12987821D01*
X7838620Y-12987821D02*
X7838620Y-12949726D01*
X7838620Y-12949726D02*
X7848144Y-12902107D01*
X7848144Y-12902107D02*
X7857668Y-12873535D01*
X7857668Y-12873535D02*
X7867191Y-12854488D01*
X7867191Y-12854488D02*
X7886239Y-12825916D01*
X7886239Y-12825916D02*
X7895763Y-12816392D01*
X8057668Y-12844964D02*
X8019572Y-12844964D01*
X8019572Y-12844964D02*
X8000525Y-12854488D01*
X8000525Y-12854488D02*
X7991001Y-12864011D01*
X7991001Y-12864011D02*
X7971953Y-12892583D01*
X7971953Y-12892583D02*
X7962429Y-12930678D01*
X7962429Y-12930678D02*
X7962429Y-13006868D01*
X7962429Y-13006868D02*
X7971953Y-13025916D01*
X7971953Y-13025916D02*
X7981477Y-13035440D01*
X7981477Y-13035440D02*
X8000525Y-13044964D01*
X8000525Y-13044964D02*
X8038620Y-13044964D01*
X8038620Y-13044964D02*
X8057668Y-13035440D01*
X8057668Y-13035440D02*
X8067191Y-13025916D01*
X8067191Y-13025916D02*
X8076715Y-13006868D01*
X8076715Y-13006868D02*
X8076715Y-12959249D01*
X8076715Y-12959249D02*
X8067191Y-12940202D01*
X8067191Y-12940202D02*
X8057668Y-12930678D01*
X8057668Y-12930678D02*
X8038620Y-12921154D01*
X8038620Y-12921154D02*
X8000525Y-12921154D01*
X8000525Y-12921154D02*
X7981477Y-12930678D01*
X7981477Y-12930678D02*
X7971953Y-12940202D01*
X7971953Y-12940202D02*
X7962429Y-12959249D01*
X8314810Y-13044964D02*
X8314810Y-12844964D01*
X8400525Y-13044964D02*
X8400525Y-12940202D01*
X8400525Y-12940202D02*
X8391001Y-12921154D01*
X8391001Y-12921154D02*
X8371953Y-12911630D01*
X8371953Y-12911630D02*
X8343382Y-12911630D01*
X8343382Y-12911630D02*
X8324334Y-12921154D01*
X8324334Y-12921154D02*
X8314810Y-12930678D01*
X8524334Y-13044964D02*
X8505287Y-13035440D01*
X8505287Y-13035440D02*
X8495763Y-13025916D01*
X8495763Y-13025916D02*
X8486239Y-13006868D01*
X8486239Y-13006868D02*
X8486239Y-12949726D01*
X8486239Y-12949726D02*
X8495763Y-12930678D01*
X8495763Y-12930678D02*
X8505287Y-12921154D01*
X8505287Y-12921154D02*
X8524334Y-12911630D01*
X8524334Y-12911630D02*
X8552906Y-12911630D01*
X8552906Y-12911630D02*
X8571953Y-12921154D01*
X8571953Y-12921154D02*
X8581477Y-12930678D01*
X8581477Y-12930678D02*
X8591001Y-12949726D01*
X8591001Y-12949726D02*
X8591001Y-13006868D01*
X8591001Y-13006868D02*
X8581477Y-13025916D01*
X8581477Y-13025916D02*
X8571953Y-13035440D01*
X8571953Y-13035440D02*
X8552906Y-13044964D01*
X8552906Y-13044964D02*
X8524334Y-13044964D01*
X8705287Y-13044964D02*
X8686239Y-13035440D01*
X8686239Y-13035440D02*
X8676715Y-13016392D01*
X8676715Y-13016392D02*
X8676715Y-12844964D01*
X8857668Y-13035440D02*
X8838620Y-13044964D01*
X8838620Y-13044964D02*
X8800525Y-13044964D01*
X8800525Y-13044964D02*
X8781477Y-13035440D01*
X8781477Y-13035440D02*
X8771953Y-13016392D01*
X8771953Y-13016392D02*
X8771953Y-12940202D01*
X8771953Y-12940202D02*
X8781477Y-12921154D01*
X8781477Y-12921154D02*
X8800525Y-12911630D01*
X8800525Y-12911630D02*
X8838620Y-12911630D01*
X8838620Y-12911630D02*
X8857668Y-12921154D01*
X8857668Y-12921154D02*
X8867192Y-12940202D01*
X8867192Y-12940202D02*
X8867192Y-12959249D01*
X8867192Y-12959249D02*
X8771953Y-12978297D01*
X8943382Y-13035440D02*
X8962430Y-13044964D01*
X8962430Y-13044964D02*
X9000525Y-13044964D01*
X9000525Y-13044964D02*
X9019573Y-13035440D01*
X9019573Y-13035440D02*
X9029096Y-13016392D01*
X9029096Y-13016392D02*
X9029096Y-13006868D01*
X9029096Y-13006868D02*
X9019573Y-12987821D01*
X9019573Y-12987821D02*
X9000525Y-12978297D01*
X9000525Y-12978297D02*
X8971953Y-12978297D01*
X8971953Y-12978297D02*
X8952906Y-12968773D01*
X8952906Y-12968773D02*
X8943382Y-12949726D01*
X8943382Y-12949726D02*
X8943382Y-12940202D01*
X8943382Y-12940202D02*
X8952906Y-12921154D01*
X8952906Y-12921154D02*
X8971953Y-12911630D01*
X8971953Y-12911630D02*
X9000525Y-12911630D01*
X9000525Y-12911630D02*
X9019573Y-12921154D01*
X9095763Y-13121154D02*
X9105287Y-13111630D01*
X9105287Y-13111630D02*
X9124334Y-13083059D01*
X9124334Y-13083059D02*
X9133858Y-13064011D01*
X9133858Y-13064011D02*
X9143382Y-13035440D01*
X9143382Y-13035440D02*
X9152906Y-12987821D01*
X9152906Y-12987821D02*
X9152906Y-12949726D01*
X9152906Y-12949726D02*
X9143382Y-12902107D01*
X9143382Y-12902107D02*
X9133858Y-12873535D01*
X9133858Y-12873535D02*
X9124334Y-12854488D01*
X9124334Y-12854488D02*
X9105287Y-12825916D01*
X9105287Y-12825916D02*
X9095763Y-12816392D01*
M02*
